<svg width="965" height="594" version="2.0" xmlns="http://www.w3.org/2000/svg" xmlns:xlink="http://www.w3.org/1999/xlink" xmlns:figma="http://www.figma.com/figma/ns">
<title>Group</title>
<desc>Created using Figma (9000)</desc>
<g id="Canvas" transform="translate(-2783 384)" figma:type="canvas">
<g id="Group" style="mix-blend-mode:normal;" figma:type="group">
<g id="config_left" style="mix-blend-mode:normal;" figma:type="group">
<g id="Group" style="mix-blend-mode:normal;" figma:type="group">
<g id="Ellipse" style="mix-blend-mode:normal;" figma:type="ellipse">
<use xlink:href="#path0_fill" transform="matrix(-1 -1.22465e-16 1.22465e-16 -1 2932 86.75)" fill="#FFFFFF" fill-opacity="0.2" style="mix-blend-mode:normal;"/>
</g>
<g id="Ellipse 2" style="mix-blend-mode:normal;" figma:type="ellipse">
<use xlink:href="#path2_stroke" transform="matrix(-1 -1.22465e-16 1.22465e-16 -1 2941.5 96.25)" fill="#FFFFFF" fill-opacity="0.2" style="mix-blend-mode:normal;"/>
</g>
</g>
<g id="Group" style="mix-blend-mode:normal;" figma:type="group">
<g id="Ellipse" style="mix-blend-mode:normal;" figma:type="ellipse">
<use xlink:href="#path0_fill" transform="matrix(-1 -1.22465e-16 1.22465e-16 -1 2933 -42.25)" fill="#FFFFFF" fill-opacity="0.2" style="mix-blend-mode:normal;"/>
</g>
<g id="Ellipse 2" style="mix-blend-mode:normal;" figma:type="ellipse">
<use xlink:href="#path2_stroke" transform="matrix(-1 -1.22465e-16 1.22465e-16 -1 2942.5 -32.75)" fill="#FFFFFF" fill-opacity="0.2" style="mix-blend-mode:normal;"/>
</g>
</g>
<g id="Group" style="mix-blend-mode:normal;" figma:type="group">
<g id="Ellipse" style="mix-blend-mode:normal;" figma:type="ellipse">
<use xlink:href="#path0_fill" transform="matrix(-1 -1.22465e-16 1.22465e-16 -1 2846 179.25)" fill="#FFFFFF" fill-opacity="0.2" style="mix-blend-mode:normal;"/>
</g>
<g id="Ellipse 2" style="mix-blend-mode:normal;" figma:type="ellipse">
<use xlink:href="#path2_stroke" transform="matrix(-1 -1.22465e-16 1.22465e-16 -1 2855.5 188.75)" fill="#FFFFFF" fill-opacity="0.2" style="mix-blend-mode:normal;"/>
</g>
</g>
<g id="Group" style="mix-blend-mode:normal;" figma:type="group">
<g id="Ellipse" style="mix-blend-mode:normal;" figma:type="ellipse">
<use xlink:href="#path0_fill" transform="matrix(-1 -1.22465e-16 1.22465e-16 -1 2814.5 23.5)" fill="#FFFFFF" fill-opacity="0.2" style="mix-blend-mode:normal;"/>
</g>
<g id="Ellipse 2" style="mix-blend-mode:normal;" figma:type="ellipse">
<use xlink:href="#path2_stroke" transform="matrix(-1 -1.22465e-16 1.22465e-16 -1 2824 33)" fill="#FFFFFF" fill-opacity="0.2" style="mix-blend-mode:normal;"/>
</g>
</g>
<g id="Group" style="mix-blend-mode:normal;" figma:type="group">
<g id="Ellipse" style="mix-blend-mode:normal;" figma:type="ellipse">
<use xlink:href="#path0_fill" transform="matrix(-1 -1.22465e-16 1.22465e-16 -1 2847 -135.25)" fill="#FFFFFF" fill-opacity="0.2" style="mix-blend-mode:normal;"/>
</g>
<g id="Ellipse 2" style="mix-blend-mode:normal;" figma:type="ellipse">
<use xlink:href="#path2_stroke" transform="matrix(-1 -1.22465e-16 1.22465e-16 -1 2856.5 -125.75)" fill="#FFFFFF" fill-opacity="0.2" style="mix-blend-mode:normal;"/>
</g>
</g>
<g id="Group" style="mix-blend-mode:normal;" figma:type="group">
<g id="Ellipse" style="mix-blend-mode:normal;" figma:type="ellipse">
<use xlink:href="#path0_fill" transform="matrix(-1 -1.22465e-16 1.22465e-16 -1 3143.5 199.75)" fill="#FFFFFF" fill-opacity="0.2" style="mix-blend-mode:normal;"/>
</g>
<g id="Ellipse 2" style="mix-blend-mode:normal;" figma:type="ellipse">
<use xlink:href="#path2_stroke" transform="matrix(-1 -1.22465e-16 1.22465e-16 -1 3153 209.25)" fill="#FFFFFF" fill-opacity="0.2" style="mix-blend-mode:normal;"/>
</g>
</g>
<g id="Group" style="mix-blend-mode:normal;" figma:type="group">
<g id="Ellipse" style="mix-blend-mode:normal;" figma:type="ellipse">
<use xlink:href="#path0_fill" transform="matrix(-1 -1.22465e-16 1.22465e-16 -1 2994.75 190.25)" fill="#FFFFFF" fill-opacity="0.2" style="mix-blend-mode:normal;"/>
</g>
<g id="Ellipse 2" style="mix-blend-mode:normal;" figma:type="ellipse">
<use xlink:href="#path2_stroke" transform="matrix(-1 -1.22465e-16 1.22465e-16 -1 3004.25 199.75)" fill="#FFFFFF" fill-opacity="0.2" style="mix-blend-mode:normal;"/>
</g>
</g>
<g id="Line 2" style="mix-blend-mode:normal;" figma:type="line">
<use xlink:href="#path3_stroke" transform="matrix(-0.996136 -0.0878271 0.0878271 -0.996136 3112 188.75)" fill="#FFFFFF" fill-opacity="0.2" style="mix-blend-mode:normal;"/>
</g>
<g id="Line 2" style="mix-blend-mode:normal;" figma:type="line">
<use xlink:href="#path4_stroke" transform="matrix(0.994829 0.101559 -0.101559 0.994829 2855.5 168.25)" fill="#FFFFFF" fill-opacity="0.2" style="mix-blend-mode:normal;"/>
</g>
<g id="Line 2" style="mix-blend-mode:normal;" figma:type="line">
<use xlink:href="#path5_stroke" transform="matrix(0.483328 0.87544 -0.87544 0.483328 2933 93.25)" fill="#FFFFFF" fill-opacity="0.2" style="mix-blend-mode:normal;"/>
</g>
<g id="Line 2" style="mix-blend-mode:normal;" figma:type="line">
<use xlink:href="#path6_stroke" transform="matrix(-0.656035 0.754731 -0.754731 -0.656035 2904.5 87.75)" fill="#FFFFFF" fill-opacity="0.2" style="mix-blend-mode:normal;"/>
</g>
<g id="Line 2" style="mix-blend-mode:normal;" figma:type="line">
<use xlink:href="#path7_stroke" transform="matrix(0.171703 0.985149 -0.985149 0.171703 2809 33)" fill="#FFFFFF" fill-opacity="0.2" style="mix-blend-mode:normal;"/>
</g>
<g id="Line 2" style="mix-blend-mode:normal;" figma:type="line">
<use xlink:href="#path8_stroke" transform="matrix(-0.361913 0.932212 -0.932212 -0.361913 2910.38 -38.75)" fill="#FFFFFF" fill-opacity="0.2" style="mix-blend-mode:normal;"/>
</g>
<g id="Line 2" style="mix-blend-mode:normal;" figma:type="line">
<use xlink:href="#path9_stroke" transform="matrix(-0.861806 0.507239 -0.507239 -0.861806 2904.38 -48.75)" fill="#FFFFFF" fill-opacity="0.2" style="mix-blend-mode:normal;"/>
</g>
<g id="Line 2" style="mix-blend-mode:normal;" figma:type="line">
<use xlink:href="#path10_stroke" transform="matrix(-0.331784 -0.943356 0.943356 -0.331784 2911 61.75)" fill="#FFFFFF" fill-opacity="0.2" style="mix-blend-mode:normal;"/>
</g>
<g id="Line 2" style="mix-blend-mode:normal;" figma:type="line">
<use xlink:href="#path11_stroke" transform="matrix(0.20274 -0.979233 0.979233 0.20274 2809 -8)" fill="#FFFFFF" fill-opacity="0.2" style="mix-blend-mode:normal;"/>
</g>
<g id="Line 2" style="mix-blend-mode:normal;" figma:type="line">
<use xlink:href="#path12_stroke" transform="matrix(-5.26784e-15 1 -1 -5.26784e-15 2921 -33.25)" fill="#FFFFFF" fill-opacity="0.2" style="mix-blend-mode:normal;"/>
</g>
</g>
<g id="config_right" style="mix-blend-mode:normal;" figma:type="group">
<g id="Group" style="mix-blend-mode:normal;" figma:type="group">
<g id="Ellipse" style="mix-blend-mode:normal;" figma:type="ellipse">
<use xlink:href="#path0_fill" transform="matrix(1 5.34378e-24 -5.34378e-24 1 3599 -261.5)" fill="#FFFFFF" fill-opacity="0.2" style="mix-blend-mode:normal;"/>
</g>
<g id="Ellipse 2" style="mix-blend-mode:normal;" figma:type="ellipse">
<use xlink:href="#path2_stroke" transform="matrix(1 5.34378e-24 -5.34378e-24 1 3589.5 -271)" fill="#FFFFFF" fill-opacity="0.2" style="mix-blend-mode:normal;"/>
</g>
</g>
<g id="Group" style="mix-blend-mode:normal;" figma:type="group">
<g id="Ellipse" style="mix-blend-mode:normal;" figma:type="ellipse">
<use xlink:href="#path0_fill" transform="matrix(1 5.34378e-24 -5.34378e-24 1 3598 -132.5)" fill="#FFFFFF" fill-opacity="0.2" style="mix-blend-mode:normal;"/>
</g>
<g id="Ellipse 2" style="mix-blend-mode:normal;" figma:type="ellipse">
<use xlink:href="#path2_stroke" transform="matrix(1 5.34378e-24 -5.34378e-24 1 3588.5 -142)" fill="#FFFFFF" fill-opacity="0.2" style="mix-blend-mode:normal;"/>
</g>
</g>
<g id="Group" style="mix-blend-mode:normal;" figma:type="group">
<g id="Ellipse" style="mix-blend-mode:normal;" figma:type="ellipse">
<use xlink:href="#path0_fill" transform="matrix(1 5.34378e-24 -5.34378e-24 1 3685 -354)" fill="#FFFFFF" fill-opacity="0.2" style="mix-blend-mode:normal;"/>
</g>
<g id="Ellipse 2" style="mix-blend-mode:normal;" figma:type="ellipse">
<use xlink:href="#path2_stroke" transform="matrix(1 5.34378e-24 -5.34378e-24 1 3675.5 -363.5)" fill="#FFFFFF" fill-opacity="0.2" style="mix-blend-mode:normal;"/>
</g>
</g>
<g id="Group" style="mix-blend-mode:normal;" figma:type="group">
<g id="Ellipse" style="mix-blend-mode:normal;" figma:type="ellipse">
<use xlink:href="#path0_fill" transform="matrix(1 5.34378e-24 -5.34378e-24 1 3716.5 -198.25)" fill="#FFFFFF" fill-opacity="0.2" style="mix-blend-mode:normal;"/>
</g>
<g id="Ellipse 2" style="mix-blend-mode:normal;" figma:type="ellipse">
<use xlink:href="#path2_stroke" transform="matrix(1 5.34378e-24 -5.34378e-24 1 3707 -207.75)" fill="#FFFFFF" fill-opacity="0.2" style="mix-blend-mode:normal;"/>
</g>
</g>
<g id="Group" style="mix-blend-mode:normal;" figma:type="group">
<g id="Ellipse" style="mix-blend-mode:normal;" figma:type="ellipse">
<use xlink:href="#path0_fill" transform="matrix(1 5.34378e-24 -5.34378e-24 1 3684 -39.5)" fill="#FFFFFF" fill-opacity="0.2" style="mix-blend-mode:normal;"/>
</g>
<g id="Ellipse 2" style="mix-blend-mode:normal;" figma:type="ellipse">
<use xlink:href="#path2_stroke" transform="matrix(1 5.34378e-24 -5.34378e-24 1 3674.5 -49)" fill="#FFFFFF" fill-opacity="0.2" style="mix-blend-mode:normal;"/>
</g>
</g>
<g id="Group" style="mix-blend-mode:normal;" figma:type="group">
<g id="Ellipse" style="mix-blend-mode:normal;" figma:type="ellipse">
<use xlink:href="#path0_fill" transform="matrix(1 5.34378e-24 -5.34378e-24 1 3387.5 -374.5)" fill="#FFFFFF" fill-opacity="0.2" style="mix-blend-mode:normal;"/>
</g>
<g id="Ellipse 2" style="mix-blend-mode:normal;" figma:type="ellipse">
<use xlink:href="#path2_stroke" transform="matrix(1 5.34378e-24 -5.34378e-24 1 3378 -384)" fill="#FFFFFF" fill-opacity="0.2" style="mix-blend-mode:normal;"/>
</g>
</g>
<g id="Group" style="mix-blend-mode:normal;" figma:type="group">
<g id="Ellipse" style="mix-blend-mode:normal;" figma:type="ellipse">
<use xlink:href="#path0_fill" transform="matrix(1 5.34378e-24 -5.34378e-24 1 3536.25 -365)" fill="#FFFFFF" fill-opacity="0.2" style="mix-blend-mode:normal;"/>
</g>
<g id="Ellipse 2" style="mix-blend-mode:normal;" figma:type="ellipse">
<use xlink:href="#path2_stroke" transform="matrix(1 5.34378e-24 -5.34378e-24 1 3526.75 -374.5)" fill="#FFFFFF" fill-opacity="0.2" style="mix-blend-mode:normal;"/>
</g>
</g>
<g id="Line 2" style="mix-blend-mode:normal;" figma:type="line">
<use xlink:href="#path3_stroke" transform="matrix(0.996136 0.0878271 -0.0878271 0.996136 3419 -363.5)" fill="#FFFFFF" fill-opacity="0.2" style="mix-blend-mode:normal;"/>
</g>
<g id="Line 2" style="mix-blend-mode:normal;" figma:type="line">
<use xlink:href="#path4_stroke" transform="matrix(-0.994829 -0.101559 0.101559 -0.994829 3675.5 -343)" fill="#FFFFFF" fill-opacity="0.2" style="mix-blend-mode:normal;"/>
</g>
<g id="Line 2" style="mix-blend-mode:normal;" figma:type="line">
<use xlink:href="#path5_stroke" transform="matrix(-0.483328 -0.87544 0.87544 -0.483328 3598 -268)" fill="#FFFFFF" fill-opacity="0.2" style="mix-blend-mode:normal;"/>
</g>
<g id="Line 2" style="mix-blend-mode:normal;" figma:type="line">
<use xlink:href="#path6_stroke" transform="matrix(0.656035 -0.754731 0.754731 0.656035 3626.5 -262.5)" fill="#FFFFFF" fill-opacity="0.2" style="mix-blend-mode:normal;"/>
</g>
<g id="Line 2" style="mix-blend-mode:normal;" figma:type="line">
<use xlink:href="#path7_stroke" transform="matrix(-0.171703 -0.985149 0.985149 -0.171703 3722 -207.75)" fill="#FFFFFF" fill-opacity="0.2" style="mix-blend-mode:normal;"/>
</g>
<g id="Line 2" style="mix-blend-mode:normal;" figma:type="line">
<use xlink:href="#path8_stroke" transform="matrix(0.361913 -0.932212 0.932212 0.361913 3620.62 -136)" fill="#FFFFFF" fill-opacity="0.2" style="mix-blend-mode:normal;"/>
</g>
<g id="Line 2" style="mix-blend-mode:normal;" figma:type="line">
<use xlink:href="#path9_stroke" transform="matrix(0.861806 -0.507239 0.507239 0.861806 3626.62 -126)" fill="#FFFFFF" fill-opacity="0.2" style="mix-blend-mode:normal;"/>
</g>
<g id="Line 2" style="mix-blend-mode:normal;" figma:type="line">
<use xlink:href="#path10_stroke" transform="matrix(0.331784 0.943356 -0.943356 0.331784 3620 -236.5)" fill="#FFFFFF" fill-opacity="0.2" style="mix-blend-mode:normal;"/>
</g>
<g id="Line 2" style="mix-blend-mode:normal;" figma:type="line">
<use xlink:href="#path11_stroke" transform="matrix(-0.20274 0.979233 -0.979233 -0.20274 3722 -166.75)" fill="#FFFFFF" fill-opacity="0.2" style="mix-blend-mode:normal;"/>
</g>
<g id="Line 2" style="mix-blend-mode:normal;" figma:type="line">
<use xlink:href="#path12_stroke" transform="matrix(5.14537e-15 -1 1 5.14537e-15 3610 -141.5)" fill="#FFFFFF" fill-opacity="0.2" style="mix-blend-mode:normal;"/>
</g>
</g>
<g id="Q_v" style="mix-blend-mode:normal;" filter="url(#filter0_d)" figma:type="group">
<g id="qvp" style="mix-blend-mode:normal;" figma:type="text">
<use xlink:href="#path13_fill" transform="translate(3014.5 -334)" fill="#FFFFFF" style="mix-blend-mode:normal;"/>
</g>
<g id="Investing in the backbone of the 3rd industrial revolution" style="mix-blend-mode:normal;" figma:type="text">
<use xlink:href="#path14_fill" transform="translate(2915.5 -7.5)" fill="#FFFFFF" style="mix-blend-mode:normal;"/>
</g>
</g>
</g>
</g>
<defs>
<filter id="filter0_d" filterUnits="userSpaceOnUse" x="2981.32" y="-217.143" width="587.54" height="301.393" color-interpolation-filters="sRGB">
<feFlood flood-opacity="0" result="BackgroundImageFix"/>
<desc>type="dropShadow" x="6" y="6" size="6" spread="0" color="0,0,0,0.25" blend="normal"</desc>
<feColorMatrix in="SourceAlpha" type="matrix" values="0 0 0 0 0 0 0 0 0 0 0 0 0 0 0 0 0 0 255 0"/>
<feOffset dx="6" dy="6"/>
<feGaussianBlur stdDeviation="3"/>
<feColorMatrix type="matrix" values="0 0 0 0 0 0 0 0 0 0 0 0 0 0 0 0 0 0 0.25 0"/>
<feBlend mode="normal" in2="BackgroundImageFix" result="effect1_dropShadow"/>
<feBlend mode="normal" in="SourceGraphic" in2="effect1_dropShadow" result="shape"/>
</filter>
<path id="path0_fill" d="
M 22 11
C 22 17.0751 17.0751 22 11 22
C 4.92487 22 0 17.0751 0 11
C 0 4.92487 4.92487 0 11 0
C 17.0751 0 22 4.92487 22 11
Z"/>
<path id="path1_fill" d="
M 41 20.5
C 41 31.8218 31.8218 41 20.5 41
C 9.17816 41 0 31.8218 0 20.5
C 0 9.17816 9.17816 0 20.5 0
C 31.8218 0 41 9.17816 41 20.5
Z"/>
<path id="path2_stroke" d="
M 20.5 41
C 31.8218 41 41 31.8218 41 20.5
C 41 9.17816 31.8218 0 20.5 0
C 9.17816 0 0 9.17816 0 20.5
C 0 31.8218 9.17816 41 20.5 41
Z
M 20.5 38
C 10.835 38 3 30.165 3 20.5
C 3 10.835 10.835 3 20.5 3
C 30.165 3 38 10.835 38 20.5
C 38 30.165 30.165 38 20.5 38
Z"/>
<path id="path3_stroke" d="
M 1.5 -3
L 0 -3
L 0 0
L 1.5 0
L 1.5 -3
Z
M 106.667 0
L 108.167 0
L 108.167 -3
L 106.667 -3
L 106.667 0
Z
M 1.5 0
L 106.667 0
L 106.667 -3
L 1.5 -3
L 1.5 0
Z"/>
<path id="path4_stroke" d="
M 1.5 -3
L 0 -3
L 0 0
L 1.5 0
L 1.5 -3
Z
M 106.811 0
L 108.311 0
L 108.311 -3
L 106.811 -3
L 106.811 0
Z
M 1.5 0
L 106.811 0
L 106.811 -3
L 1.5 -3
L 1.5 0
Z"/>
<path id="path5_stroke" d="
M 1.5 -3
L 0 -3
L 0 0
L 1.5 0
L 1.5 -3
Z
M 80.7444 0
L 82.2444 0
L 82.2444 -3
L 80.7444 -3
L 80.7444 0
Z
M 1.5 0
L 80.7444 0
L 80.7444 -3
L 1.5 -3
L 1.5 0
Z"/>
<path id="path6_stroke" d="
M 1.5 -3
L 0 -3
L 0 0
L 1.5 0
L 1.5 -3
Z
M 84.6235 0
L 86.1235 0
L 86.1235 -3
L 84.6235 -3
L 84.6235 0
Z
M 1.5 0
L 84.6235 0
L 84.6235 -3
L 1.5 -3
L 1.5 0
Z"/>
<path id="path7_stroke" d="
M 1.5 -3
L 0 -3
L 0 0
L 1.5 0
L 1.5 -3
Z
M 114.98 0
L 116.48 0
L 116.48 -3
L 114.98 -3
L 114.98 0
Z
M 1.5 0
L 114.98 0
L 114.98 -3
L 1.5 -3
L 1.5 0
Z"/>
<path id="path8_stroke" d="
M 1.5 -3
L 0 -3
L 0 0
L 1.5 0
L 1.5 -3
Z
M 201.244 0
L 202.744 0
L 202.744 -3
L 201.244 -3
L 201.244 0
Z
M 1.5 0
L 201.244 0
L 201.244 -3
L 1.5 -3
L 1.5 0
Z"/>
<path id="path9_stroke" d="
M 1.5 -3
L 0 -3
L 0 0
L 1.5 0
L 1.5 -3
Z
M 97.5658 0
L 99.0658 0
L 99.0658 -3
L 97.5658 -3
L 97.5658 0
Z
M 1.5 0
L 97.5658 0
L 97.5658 -3
L 1.5 -3
L 1.5 0
Z"/>
<path id="path10_stroke" d="
M 1.5 -3
L 0 -3
L 0 0
L 1.5 0
L 1.5 -3
Z
M 200.439 0
L 201.939 0
L 201.939 -3
L 200.439 -3
L 200.439 0
Z
M 1.5 0
L 200.439 0
L 200.439 -3
L 1.5 -3
L 1.5 0
Z"/>
<path id="path11_stroke" d="
M 1.5 -3
L 0 -3
L 0 0
L 1.5 0
L 1.5 -3
Z
M 121.811 0
L 123.311 0
L 123.311 -3
L 121.811 -3
L 121.811 0
Z
M 1.5 0
L 121.811 0
L 121.811 -3
L 1.5 -3
L 1.5 0
Z"/>
<path id="path12_stroke" d="
M 1.5 -3
L 0 -3
L 0 0
L 1.5 0
L 1.5 -3
Z
M 87.5 0
L 89 0
L 89 -3
L 87.5 -3
L 87.5 0
Z
M 1.5 0
L 87.5 0
L 87.5 -3
L 1.5 -3
L 1.5 0
Z"/>
<path id="path13_fill" d="
M 179.319 116.857
L 179.319 246.13
C 179.319 251.664 179.644 255.692 180.295 258.215
C 180.946 260.819 182.208 263.016 184.08 264.807
C 186.358 267.004 190.59 268.632 196.775 269.689
L 196.775 272.131
L 142.82 272.131
L 142.82 269.689
C 147.703 269.038 151.202 268.143 153.318 267.004
C 155.434 265.865 157.143 263.871 158.445 261.022
C 159.34 259.151 159.991 256.302 160.398 252.478
C 160.805 248.653 161.008 243.2 161.008 236.12
L 161.008 212.438
C 157.59 216.67 154.294 219.763 151.121 221.716
C 144.936 225.703 137.489 227.697 128.782 227.697
C 116.412 227.697 105.629 223.791 96.4331 215.979
C 85.1213 206.213 79.4653 192.541 79.4653 174.963
C 79.4653 158.28 84.2668 144.934 93.8696 134.924
C 103.554 124.914 116.493 119.909 132.688 119.909
C 139.361 119.909 145.139 120.967 150.022 123.083
L 156.37 125.891
C 157.916 126.542 159.381 126.867 160.764 126.867
C 164.996 126.867 168.699 123.531 171.873 116.857
L 179.319 116.857
Z
M 161.008 175.451
C 161.008 166.662 160.52 158.646 159.543 151.403
C 158.567 144.079 157.306 138.749 155.759 135.412
C 153.806 131.343 150.999 128.21 147.336 126.013
C 143.674 123.734 139.443 122.595 134.641 122.595
C 125.201 122.595 117.389 126.826 111.204 135.29
C 107.867 139.847 105.263 145.422 103.391 152.014
C 101.519 158.524 100.583 165.441 100.583 172.766
C 100.583 180.415 101.641 187.699 103.757 194.616
C 105.873 201.452 108.884 207.312 112.791 212.194
C 115.883 216.182 119.26 219.234 122.922 221.35
C 126.666 223.384 130.491 224.401 134.397 224.401
C 139.117 224.401 143.471 222.977 147.458 220.129
C 151.528 217.199 154.579 213.374 156.614 208.654
C 159.543 201.9 161.008 190.832 161.008 175.451
Z
M 196.775 121.74
L 244.016 121.74
L 244.016 124.304
C 240.435 125.036 237.994 125.85 236.692 126.745
C 234.088 128.373 232.786 130.977 232.786 134.558
C 232.786 136.755 233.193 139.318 234.006 142.248
C 234.82 145.178 236.326 149.45 238.523 155.065
L 258.298 205.236
L 278.196 152.99
C 281.125 145.259 282.59 139.522 282.59 135.778
C 282.59 131.709 281.329 128.739 278.806 126.867
C 277.504 125.891 275.103 125.036 271.604 124.304
L 271.604 121.74
L 305.295 121.74
L 305.295 124.304
C 300.738 125.443 297.076 127.478 294.309 130.407
C 290.81 134.069 286.781 141.76 282.224 153.479
L 254.026 225.5
L 247.434 225.5
L 216.794 149.816
C 212.074 138.179 208.697 131.14 206.663 128.698
C 205.523 127.396 204.262 126.46 202.878 125.891
C 201.495 125.24 199.46 124.711 196.775 124.304
L 196.775 121.74
Z
M 342.527 215.246
L 342.649 237.707
L 342.649 246.13
C 342.649 251.664 342.974 255.692 343.625 258.215
C 344.277 260.819 345.538 263.016 347.41 264.807
C 349.688 267.004 353.879 268.632 359.983 269.689
L 359.983 272.131
L 306.15 272.131
L 306.15 269.689
C 311.033 269.038 314.532 268.143 316.648 267.004
C 318.764 265.865 320.473 263.871 321.775 261.022
C 322.67 259.151 323.28 256.302 323.606 252.478
C 324.013 248.653 324.216 243.2 324.216 236.12
L 324.216 151.77
C 324.216 142.574 322.751 136.022 319.822 132.116
C 316.973 128.21 312.131 126.257 305.295 126.257
L 305.295 123.205
L 340.818 118.2
C 341.713 122.106 342.161 125.687 342.161 128.942
L 342.161 131.262
C 348.183 127.193 353.839 124.304 359.128 122.595
C 364.418 120.804 370.155 119.909 376.34 119.909
C 388.71 119.909 399.29 123.612 408.079 131.018
C 413.612 135.738 417.885 141.638 420.896 148.718
C 423.907 155.798 425.413 163.61 425.413 172.155
C 425.413 181.026 423.785 189.286 420.53 196.936
C 417.356 204.585 412.799 210.892 406.858 215.856
C 397.581 223.75 386.554 227.697 373.777 227.697
C 367.673 227.697 362.384 226.802 357.908 225.012
C 353.513 223.221 348.386 219.966 342.527 215.246
Z
M 342.527 174.719
C 342.527 185.949 343.015 194.413 343.992 200.109
C 344.968 205.806 346.718 210.404 349.241 213.903
C 351.519 216.996 354.49 219.478 358.152 221.35
C 361.895 223.221 365.68 224.157 369.504 224.157
C 378.131 224.157 385.658 220.088 392.087 211.95
C 395.994 207.067 399.005 201.289 401.121 194.616
C 403.236 187.943 404.294 180.985 404.294 173.742
C 404.294 166.743 403.277 159.908 401.243 153.234
C 399.29 146.48 396.523 140.702 392.942 135.9
C 386.838 127.6 379.392 123.449 370.603 123.449
C 366.29 123.449 362.221 124.507 358.396 126.623
C 354.571 128.739 351.519 131.628 349.241 135.29
C 346.718 139.196 344.968 144.079 343.992 149.938
C 343.015 155.716 342.527 163.977 342.527 174.719
Z"/>
<path id="path14_fill" d="
M 65.825 38.31
L 65.825 13.46
L 68.275 13.46
L 68.275 38.31
L 65.825 38.31
Z
M 89.345 38.31
L 86.965 38.31
L 86.965 28.125
C 86.965 25.955 86.6383 24.38 85.985 23.4
C 85.355 22.42 84.375 21.93 83.045 21.93
C 82.345 21.93 81.645 22.0583 80.945 22.315
C 80.245 22.5717 79.5917 22.9333 78.985 23.4
C 78.4017 23.8667 77.8767 24.4267 77.41 25.08
C 76.9433 25.71 76.605 26.3983 76.395 27.145
L 76.395 38.31
L 74.015 38.31
L 74.015 20.075
L 76.185 20.075
L 76.185 24.205
C 76.9317 22.875 77.9933 21.8017 79.37 20.985
C 80.77 20.1683 82.2867 19.76 83.92 19.76
C 84.9233 19.76 85.775 19.9467 86.475 20.32
C 87.175 20.6933 87.735 21.2183 88.155 21.895
C 88.575 22.5717 88.8783 23.4 89.065 24.38
C 89.2517 25.36 89.345 26.445 89.345 27.635
L 89.345 38.31
Z
M 99.88 38.31
L 92.46 20.075
L 94.91 20.075
L 101.175 36.105
L 107.475 20.075
L 109.785 20.075
L 102.365 38.31
L 99.88 38.31
Z
M 120.95 38.66
C 119.62 38.66 118.395 38.415 117.275 37.925
C 116.178 37.4117 115.222 36.7233 114.405 35.86
C 113.588 34.9733 112.947 33.9583 112.48 32.815
C 112.037 31.6717 111.815 30.4467 111.815 29.14
C 111.815 27.8567 112.037 26.655 112.48 25.535
C 112.947 24.3917 113.577 23.4 114.37 22.56
C 115.187 21.6967 116.155 21.02 117.275 20.53
C 118.395 20.0167 119.608 19.76 120.915 19.76
C 122.245 19.76 123.458 20.0167 124.555 20.53
C 125.675 21.02 126.632 21.6967 127.425 22.56
C 128.218 23.4233 128.837 24.415 129.28 25.535
C 129.723 26.655 129.945 27.845 129.945 29.105
C 129.945 29.2917 129.945 29.4783 129.945 29.665
C 129.945 29.8517 129.933 29.98 129.91 30.05
L 114.3 30.05
C 114.37 31.03 114.592 31.94 114.965 32.78
C 115.362 33.5967 115.863 34.3083 116.47 34.915
C 117.077 35.5217 117.765 36 118.535 36.35
C 119.328 36.6767 120.168 36.84 121.055 36.84
C 121.638 36.84 122.222 36.7583 122.805 36.595
C 123.388 36.4317 123.925 36.21 124.415 35.93
C 124.905 35.65 125.348 35.3117 125.745 34.915
C 126.142 34.495 126.445 34.04 126.655 33.55
L 128.72 34.11
C 128.44 34.7867 128.043 35.405 127.53 35.965
C 127.017 36.5017 126.422 36.98 125.745 37.4
C 125.068 37.7967 124.322 38.1 123.505 38.31
C 122.688 38.5433 121.837 38.66 120.95 38.66
Z
M 127.67 28.23
C 127.6 27.25 127.367 26.3633 126.97 25.57
C 126.597 24.7533 126.107 24.0533 125.5 23.47
C 124.917 22.8867 124.228 22.4317 123.435 22.105
C 122.665 21.7783 121.837 21.615 120.95 21.615
C 120.063 21.615 119.223 21.7783 118.43 22.105
C 117.637 22.4317 116.937 22.8867 116.33 23.47
C 115.747 24.0533 115.268 24.7533 114.895 25.57
C 114.545 26.3867 114.335 27.2733 114.265 28.23
L 127.67 28.23
Z
M 139.675 38.66
C 138.252 38.66 136.863 38.4267 135.51 37.96
C 134.157 37.4933 132.99 36.8167 132.01 35.93
L 133.095 34.32
C 134.122 35.16 135.16 35.79 136.21 36.21
C 137.283 36.63 138.427 36.84 139.64 36.84
C 141.11 36.84 142.277 36.5483 143.14 35.965
C 144.027 35.3583 144.47 34.5067 144.47 33.41
C 144.47 32.8967 144.353 32.4767 144.12 32.15
C 143.887 31.8 143.537 31.4967 143.07 31.24
C 142.627 30.9833 142.055 30.7617 141.355 30.575
C 140.678 30.365 139.885 30.155 138.975 29.945
C 137.925 29.6883 137.015 29.4317 136.245 29.175
C 135.475 28.9183 134.833 28.6267 134.32 28.3
C 133.83 27.9733 133.457 27.5767 133.2 27.11
C 132.967 26.62 132.85 26.0133 132.85 25.29
C 132.85 24.38 133.025 23.575 133.375 22.875
C 133.748 22.175 134.238 21.6033 134.845 21.16
C 135.475 20.6933 136.198 20.3433 137.015 20.11
C 137.855 19.8767 138.742 19.76 139.675 19.76
C 141.075 19.76 142.347 19.9933 143.49 20.46
C 144.633 20.9033 145.555 21.4983 146.255 22.245
L 145.1 23.645
C 144.423 22.945 143.595 22.42 142.615 22.07
C 141.658 21.72 140.655 21.545 139.605 21.545
C 138.975 21.545 138.392 21.615 137.855 21.755
C 137.318 21.8717 136.84 22.07 136.42 22.35
C 136.023 22.63 135.708 22.9917 135.475 23.435
C 135.242 23.855 135.125 24.3567 135.125 24.94
C 135.125 25.43 135.207 25.8267 135.37 26.13
C 135.533 26.4333 135.802 26.7017 136.175 26.935
C 136.548 27.145 137.015 27.3433 137.575 27.53
C 138.158 27.6933 138.858 27.8683 139.675 28.055
C 140.842 28.335 141.868 28.615 142.755 28.895
C 143.642 29.175 144.377 29.5017 144.96 29.875
C 145.567 30.2483 146.022 30.7033 146.325 31.24
C 146.628 31.7767 146.78 32.43 146.78 33.2
C 146.78 34.88 146.138 36.21 144.855 37.19
C 143.572 38.17 141.845 38.66 139.675 38.66
Z
M 159.415 37.435
C 159.275 37.505 159.065 37.5983 158.785 37.715
C 158.528 37.8317 158.225 37.9483 157.875 38.065
C 157.525 38.1817 157.128 38.2867 156.685 38.38
C 156.242 38.4733 155.775 38.52 155.285 38.52
C 154.772 38.52 154.282 38.45 153.815 38.31
C 153.348 38.17 152.94 37.96 152.59 37.68
C 152.24 37.3767 151.96 37.0033 151.75 36.56
C 151.54 36.1167 151.435 35.6033 151.435 35.02
L 151.435 21.965
L 148.915 21.965
L 148.915 20.075
L 151.435 20.075
L 151.435 13.915
L 153.815 13.915
L 153.815 20.075
L 158.015 20.075
L 158.015 21.965
L 153.815 21.965
L 153.815 34.355
C 153.862 35.0317 154.095 35.5333 154.515 35.86
C 154.958 36.1633 155.46 36.315 156.02 36.315
C 156.697 36.315 157.292 36.21 157.805 36
C 158.318 35.7667 158.645 35.6033 158.785 35.51
L 159.415 37.435
Z
M 162.39 38.31
L 162.39 20.075
L 164.77 20.075
L 164.77 38.31
L 162.39 38.31
Z
M 162.39 16.26
L 162.39 12.76
L 164.77 12.76
L 164.77 16.26
L 162.39 16.26
Z
M 185.35 38.31
L 182.97 38.31
L 182.97 28.125
C 182.97 25.955 182.643 24.38 181.99 23.4
C 181.36 22.42 180.38 21.93 179.05 21.93
C 178.35 21.93 177.65 22.0583 176.95 22.315
C 176.25 22.5717 175.597 22.9333 174.99 23.4
C 174.407 23.8667 173.882 24.4267 173.415 25.08
C 172.948 25.71 172.61 26.3983 172.4 27.145
L 172.4 38.31
L 170.02 38.31
L 170.02 20.075
L 172.19 20.075
L 172.19 24.205
C 172.937 22.875 173.998 21.8017 175.375 20.985
C 176.775 20.1683 178.292 19.76 179.925 19.76
C 180.928 19.76 181.78 19.9467 182.48 20.32
C 183.18 20.6933 183.74 21.2183 184.16 21.895
C 184.58 22.5717 184.883 23.4 185.07 24.38
C 185.257 25.36 185.35 26.445 185.35 27.635
L 185.35 38.31
Z
M 197.74 38.555
C 196.48 38.555 195.325 38.2983 194.275 37.785
C 193.248 37.2483 192.35 36.5483 191.58 35.685
C 190.833 34.8217 190.25 33.83 189.83 32.71
C 189.41 31.59 189.2 30.435 189.2 29.245
C 189.2 27.985 189.398 26.7833 189.795 25.64
C 190.215 24.4733 190.798 23.4583 191.545 22.595
C 192.292 21.7317 193.178 21.0433 194.205 20.53
C 195.255 20.0167 196.41 19.76 197.67 19.76
C 199.233 19.76 200.587 20.1567 201.73 20.95
C 202.873 21.72 203.853 22.7 204.67 23.89
L 204.67 20.075
L 206.805 20.075
L 206.805 38.38
C 206.805 39.64 206.56 40.7483 206.07 41.705
C 205.603 42.685 204.962 43.5017 204.145 44.155
C 203.352 44.8083 202.407 45.2983 201.31 45.625
C 200.237 45.9517 199.093 46.115 197.88 46.115
C 195.78 46.115 194.088 45.7417 192.805 44.995
C 191.522 44.2483 190.483 43.245 189.69 41.985
L 191.16 40.83
C 191.883 41.9967 192.84 42.8483 194.03 43.385
C 195.22 43.945 196.503 44.225 197.88 44.225
C 198.767 44.225 199.607 44.0967 200.4 43.84
C 201.193 43.6067 201.882 43.245 202.465 42.755
C 203.072 42.2883 203.55 41.6817 203.9 40.935
C 204.25 40.2117 204.425 39.36 204.425 38.38
L 204.425 34.775
C 203.725 35.9417 202.768 36.8633 201.555 37.54
C 200.342 38.2167 199.07 38.555 197.74 38.555
Z
M 198.405 36.56
C 199.105 36.56 199.793 36.4317 200.47 36.175
C 201.147 35.9183 201.753 35.58 202.29 35.16
C 202.85 34.7167 203.317 34.2267 203.69 33.69
C 204.063 33.1533 204.308 32.605 204.425 32.045
L 204.425 26.41
C 204.168 25.7567 203.818 25.15 203.375 24.59
C 202.932 24.03 202.43 23.5517 201.87 23.155
C 201.31 22.7583 200.703 22.4433 200.05 22.21
C 199.42 21.9767 198.778 21.86 198.125 21.86
C 197.098 21.86 196.177 22.0817 195.36 22.525
C 194.567 22.945 193.89 23.505 193.33 24.205
C 192.77 24.905 192.338 25.6983 192.035 26.585
C 191.755 27.4717 191.615 28.37 191.615 29.28
C 191.615 30.26 191.79 31.1933 192.14 32.08
C 192.49 32.9667 192.968 33.7483 193.575 34.425
C 194.205 35.0783 194.928 35.6033 195.745 36
C 196.562 36.3733 197.448 36.56 198.405 36.56
Z
M 220.98 38.31
L 220.98 20.075
L 223.36 20.075
L 223.36 38.31
L 220.98 38.31
Z
M 220.98 16.26
L 220.98 12.76
L 223.36 12.76
L 223.36 16.26
L 220.98 16.26
Z
M 243.94 38.31
L 241.56 38.31
L 241.56 28.125
C 241.56 25.955 241.233 24.38 240.58 23.4
C 239.95 22.42 238.97 21.93 237.64 21.93
C 236.94 21.93 236.24 22.0583 235.54 22.315
C 234.84 22.5717 234.187 22.9333 233.58 23.4
C 232.997 23.8667 232.472 24.4267 232.005 25.08
C 231.538 25.71 231.2 26.3983 230.99 27.145
L 230.99 38.31
L 228.61 38.31
L 228.61 20.075
L 230.78 20.075
L 230.78 24.205
C 231.527 22.875 232.588 21.8017 233.965 20.985
C 235.365 20.1683 236.882 19.76 238.515 19.76
C 239.518 19.76 240.37 19.9467 241.07 20.32
C 241.77 20.6933 242.33 21.2183 242.75 21.895
C 243.17 22.5717 243.473 23.4 243.66 24.38
C 243.847 25.36 243.94 26.445 243.94 27.635
L 243.94 38.31
Z
M 266.69 37.435
C 266.55 37.505 266.34 37.5983 266.06 37.715
C 265.803 37.8317 265.5 37.9483 265.15 38.065
C 264.8 38.1817 264.403 38.2867 263.96 38.38
C 263.517 38.4733 263.05 38.52 262.56 38.52
C 262.047 38.52 261.557 38.45 261.09 38.31
C 260.623 38.17 260.215 37.96 259.865 37.68
C 259.515 37.3767 259.235 37.0033 259.025 36.56
C 258.815 36.1167 258.71 35.6033 258.71 35.02
L 258.71 21.965
L 256.19 21.965
L 256.19 20.075
L 258.71 20.075
L 258.71 13.915
L 261.09 13.915
L 261.09 20.075
L 265.29 20.075
L 265.29 21.965
L 261.09 21.965
L 261.09 34.355
C 261.137 35.0317 261.37 35.5333 261.79 35.86
C 262.233 36.1633 262.735 36.315 263.295 36.315
C 263.972 36.315 264.567 36.21 265.08 36
C 265.593 35.7667 265.92 35.6033 266.06 35.51
L 266.69 37.435
Z
M 284.995 38.31
L 282.615 38.31
L 282.615 28.125
C 282.615 26.0483 282.253 24.4967 281.53 23.47
C 280.83 22.4433 279.792 21.93 278.415 21.93
C 277.738 21.93 277.062 22.07 276.385 22.35
C 275.732 22.6067 275.113 22.9683 274.53 23.435
C 273.947 23.9017 273.433 24.45 272.99 25.08
C 272.57 25.71 272.255 26.3983 272.045 27.145
L 272.045 38.31
L 269.665 38.31
L 269.665 12.76
L 272.045 12.76
L 272.045 24.205
C 272.768 22.8283 273.772 21.7433 275.055 20.95
C 276.338 20.1567 277.727 19.76 279.22 19.76
C 280.27 19.76 281.157 19.9583 281.88 20.355
C 282.603 20.7283 283.198 21.265 283.665 21.965
C 284.132 22.6417 284.47 23.47 284.68 24.45
C 284.89 25.4067 284.995 26.4683 284.995 27.635
L 284.995 38.31
Z
M 297.945 38.66
C 296.615 38.66 295.39 38.415 294.27 37.925
C 293.173 37.4117 292.217 36.7233 291.4 35.86
C 290.583 34.9733 289.942 33.9583 289.475 32.815
C 289.032 31.6717 288.81 30.4467 288.81 29.14
C 288.81 27.8567 289.032 26.655 289.475 25.535
C 289.942 24.3917 290.572 23.4 291.365 22.56
C 292.182 21.6967 293.15 21.02 294.27 20.53
C 295.39 20.0167 296.603 19.76 297.91 19.76
C 299.24 19.76 300.453 20.0167 301.55 20.53
C 302.67 21.02 303.627 21.6967 304.42 22.56
C 305.213 23.4233 305.832 24.415 306.275 25.535
C 306.718 26.655 306.94 27.845 306.94 29.105
C 306.94 29.2917 306.94 29.4783 306.94 29.665
C 306.94 29.8517 306.928 29.98 306.905 30.05
L 291.295 30.05
C 291.365 31.03 291.587 31.94 291.96 32.78
C 292.357 33.5967 292.858 34.3083 293.465 34.915
C 294.072 35.5217 294.76 36 295.53 36.35
C 296.323 36.6767 297.163 36.84 298.05 36.84
C 298.633 36.84 299.217 36.7583 299.8 36.595
C 300.383 36.4317 300.92 36.21 301.41 35.93
C 301.9 35.65 302.343 35.3117 302.74 34.915
C 303.137 34.495 303.44 34.04 303.65 33.55
L 305.715 34.11
C 305.435 34.7867 305.038 35.405 304.525 35.965
C 304.012 36.5017 303.417 36.98 302.74 37.4
C 302.063 37.7967 301.317 38.1 300.5 38.31
C 299.683 38.5433 298.832 38.66 297.945 38.66
Z
M 304.665 28.23
C 304.595 27.25 304.362 26.3633 303.965 25.57
C 303.592 24.7533 303.102 24.0533 302.495 23.47
C 301.912 22.8867 301.223 22.4317 300.43 22.105
C 299.66 21.7783 298.832 21.615 297.945 21.615
C 297.058 21.615 296.218 21.7783 295.425 22.105
C 294.632 22.4317 293.932 22.8867 293.325 23.47
C 292.742 24.0533 292.263 24.7533 291.89 25.57
C 291.54 26.3867 291.33 27.2733 291.26 28.23
L 304.665 28.23
Z
M 328.465 38.66
C 327.018 38.66 325.688 38.2983 324.475 37.575
C 323.285 36.8517 322.352 35.9183 321.675 34.775
L 321.675 38.31
L 319.54 38.31
L 319.54 12.76
L 321.92 12.76
L 321.92 23.89
C 322.737 22.6533 323.717 21.6617 324.86 20.915
C 326.003 20.145 327.333 19.76 328.85 19.76
C 330.133 19.76 331.277 20.0283 332.28 20.565
C 333.307 21.1017 334.17 21.825 334.87 22.735
C 335.593 23.6217 336.142 24.6367 336.515 25.78
C 336.912 26.9 337.11 28.055 337.11 29.245
C 337.11 30.5283 336.888 31.7417 336.445 32.885
C 336.002 34.0283 335.395 35.0317 334.625 35.895
C 333.855 36.735 332.933 37.4117 331.86 37.925
C 330.81 38.415 329.678 38.66 328.465 38.66
Z
M 327.905 36.56
C 328.908 36.56 329.818 36.3617 330.635 35.965
C 331.475 35.545 332.187 34.9967 332.77 34.32
C 333.377 33.62 333.843 32.8383 334.17 31.975
C 334.52 31.0883 334.695 30.1783 334.695 29.245
C 334.695 28.2883 334.532 27.3667 334.205 26.48
C 333.902 25.5933 333.458 24.8117 332.875 24.135
C 332.315 23.435 331.627 22.8867 330.81 22.49
C 330.017 22.07 329.142 21.86 328.185 21.86
C 327.462 21.86 326.785 21.9883 326.155 22.245
C 325.525 22.4783 324.942 22.805 324.405 23.225
C 323.868 23.645 323.39 24.135 322.97 24.695
C 322.55 25.2317 322.2 25.8033 321.92 26.41
L 321.92 32.08
C 322.013 32.71 322.258 33.305 322.655 33.865
C 323.075 34.4017 323.565 34.8683 324.125 35.265
C 324.708 35.6617 325.327 35.9767 325.98 36.21
C 326.657 36.4433 327.298 36.56 327.905 36.56
Z
M 345.72 38.66
C 344.857 38.66 344.052 38.52 343.305 38.24
C 342.582 37.9367 341.94 37.5283 341.38 37.015
C 340.843 36.5017 340.423 35.9067 340.12 35.23
C 339.817 34.53 339.665 33.7833 339.665 32.99
C 339.665 32.1967 339.852 31.4617 340.225 30.785
C 340.598 30.1083 341.123 29.525 341.8 29.035
C 342.477 28.545 343.282 28.1717 344.215 27.915
C 345.148 27.635 346.175 27.495 347.295 27.495
C 348.228 27.495 349.173 27.5767 350.13 27.74
C 351.087 27.9033 351.938 28.1367 352.685 28.44
L 352.685 26.795
C 352.685 25.185 352.23 23.9133 351.32 22.98
C 350.41 22.0233 349.15 21.545 347.54 21.545
C 346.607 21.545 345.65 21.7317 344.67 22.105
C 343.69 22.4783 342.698 23.015 341.695 23.715
L 340.855 22.14
C 343.212 20.5533 345.498 19.76 347.715 19.76
C 350.002 19.76 351.798 20.4017 353.105 21.685
C 354.412 22.9683 355.065 24.7417 355.065 27.005
L 355.065 35.23
C 355.065 35.8833 355.357 36.21 355.94 36.21
L 355.94 38.31
C 355.543 38.38 355.24 38.415 355.03 38.415
C 354.423 38.415 353.945 38.2633 353.595 37.96
C 353.268 37.6567 353.093 37.2367 353.07 36.7
L 353 35.265
C 352.16 36.3617 351.098 37.2017 349.815 37.785
C 348.555 38.3683 347.19 38.66 345.72 38.66
Z
M 346.28 36.84
C 347.517 36.84 348.648 36.6067 349.675 36.14
C 350.725 35.6733 351.518 35.055 352.055 34.285
C 352.265 34.075 352.417 33.8533 352.51 33.62
C 352.627 33.3633 352.685 33.13 352.685 32.92
L 352.685 29.945
C 351.892 29.6417 351.063 29.4083 350.2 29.245
C 349.36 29.0817 348.497 29 347.61 29
C 345.93 29 344.565 29.35 343.515 30.05
C 342.465 30.75 341.94 31.6717 341.94 32.815
C 341.94 33.375 342.045 33.9 342.255 34.39
C 342.488 34.88 342.792 35.3117 343.165 35.685
C 343.562 36.035 344.028 36.315 344.565 36.525
C 345.102 36.735 345.673 36.84 346.28 36.84
Z
M 358.95 29.14
C 358.95 27.8567 359.172 26.6433 359.615 25.5
C 360.058 24.3567 360.677 23.365 361.47 22.525
C 362.287 21.6617 363.255 20.985 364.375 20.495
C 365.495 20.005 366.732 19.76 368.085 19.76
C 369.812 19.76 371.317 20.1567 372.6 20.95
C 373.883 21.72 374.852 22.77 375.505 24.1
L 373.195 24.835
C 372.682 23.9017 371.958 23.1783 371.025 22.665
C 370.115 22.1283 369.1 21.86 367.98 21.86
C 367.047 21.86 366.172 22.0467 365.355 22.42
C 364.562 22.7933 363.862 23.3067 363.255 23.96
C 362.672 24.59 362.205 25.3483 361.855 26.235
C 361.528 27.1217 361.365 28.09 361.365 29.14
C 361.365 30.1667 361.54 31.135 361.89 32.045
C 362.24 32.955 362.718 33.7483 363.325 34.425
C 363.932 35.0783 364.632 35.6033 365.425 36
C 366.242 36.3733 367.105 36.56 368.015 36.56
C 368.598 36.56 369.17 36.4783 369.73 36.315
C 370.313 36.1517 370.85 35.93 371.34 35.65
C 371.83 35.3467 372.25 35.0083 372.6 34.635
C 372.95 34.2617 373.195 33.865 373.335 33.445
L 375.68 34.145
C 375.423 34.7983 375.05 35.405 374.56 35.965
C 374.07 36.5017 373.487 36.98 372.81 37.4
C 372.157 37.7967 371.422 38.1 370.605 38.31
C 369.812 38.5433 368.983 38.66 368.12 38.66
C 366.79 38.66 365.565 38.415 364.445 37.925
C 363.325 37.4117 362.357 36.7233 361.54 35.86
C 360.723 34.9733 360.082 33.9583 359.615 32.815
C 359.172 31.6717 358.95 30.4467 358.95 29.14
Z
M 392.445 38.31
L 385.725 28.965
L 381.805 32.605
L 381.805 38.31
L 379.425 38.31
L 379.425 12.76
L 381.805 12.76
L 381.805 30.12
L 392.06 20.11
L 394.755 20.11
L 387.3 27.565
L 395.035 38.31
L 392.445 38.31
Z
M 406.9 38.66
C 405.453 38.66 404.123 38.2983 402.91 37.575
C 401.72 36.8517 400.787 35.9183 400.11 34.775
L 400.11 38.31
L 397.975 38.31
L 397.975 12.76
L 400.355 12.76
L 400.355 23.89
C 401.172 22.6533 402.152 21.6617 403.295 20.915
C 404.438 20.145 405.768 19.76 407.285 19.76
C 408.568 19.76 409.712 20.0283 410.715 20.565
C 411.742 21.1017 412.605 21.825 413.305 22.735
C 414.028 23.6217 414.577 24.6367 414.95 25.78
C 415.347 26.9 415.545 28.055 415.545 29.245
C 415.545 30.5283 415.323 31.7417 414.88 32.885
C 414.437 34.0283 413.83 35.0317 413.06 35.895
C 412.29 36.735 411.368 37.4117 410.295 37.925
C 409.245 38.415 408.113 38.66 406.9 38.66
Z
M 406.34 36.56
C 407.343 36.56 408.253 36.3617 409.07 35.965
C 409.91 35.545 410.622 34.9967 411.205 34.32
C 411.812 33.62 412.278 32.8383 412.605 31.975
C 412.955 31.0883 413.13 30.1783 413.13 29.245
C 413.13 28.2883 412.967 27.3667 412.64 26.48
C 412.337 25.5933 411.893 24.8117 411.31 24.135
C 410.75 23.435 410.062 22.8867 409.245 22.49
C 408.452 22.07 407.577 21.86 406.62 21.86
C 405.897 21.86 405.22 21.9883 404.59 22.245
C 403.96 22.4783 403.377 22.805 402.84 23.225
C 402.303 23.645 401.825 24.135 401.405 24.695
C 400.985 25.2317 400.635 25.8033 400.355 26.41
L 400.355 32.08
C 400.448 32.71 400.693 33.305 401.09 33.865
C 401.51 34.4017 402 34.8683 402.56 35.265
C 403.143 35.6617 403.762 35.9767 404.415 36.21
C 405.092 36.4433 405.733 36.56 406.34 36.56
Z
M 427.34 38.66
C 426.01 38.66 424.797 38.415 423.7 37.925
C 422.603 37.4117 421.647 36.7233 420.83 35.86
C 420.037 34.9967 419.418 33.9933 418.975 32.85
C 418.532 31.7067 418.31 30.505 418.31 29.245
C 418.31 27.9617 418.532 26.7483 418.975 25.605
C 419.442 24.4617 420.072 23.4583 420.865 22.595
C 421.682 21.7317 422.638 21.0433 423.735 20.53
C 424.832 20.0167 426.033 19.76 427.34 19.76
C 428.647 19.76 429.848 20.0167 430.945 20.53
C 432.065 21.0433 433.022 21.7317 433.815 22.595
C 434.632 23.4583 435.262 24.4617 435.705 25.605
C 436.172 26.7483 436.405 27.9617 436.405 29.245
C 436.405 30.505 436.183 31.7067 435.74 32.85
C 435.297 33.9933 434.667 34.9967 433.85 35.86
C 433.057 36.7233 432.1 37.4117 430.98 37.925
C 429.883 38.415 428.67 38.66 427.34 38.66
Z
M 420.725 29.28
C 420.725 30.3067 420.9 31.2633 421.25 32.15
C 421.6 33.0133 422.067 33.7833 422.65 34.46
C 423.257 35.1133 423.957 35.6267 424.75 36
C 425.567 36.3733 426.43 36.56 427.34 36.56
C 428.25 36.56 429.102 36.3733 429.895 36
C 430.712 35.6033 431.423 35.0783 432.03 34.425
C 432.637 33.7483 433.115 32.9667 433.465 32.08
C 433.815 31.1933 433.99 30.2367 433.99 29.21
C 433.99 28.2067 433.815 27.2617 433.465 26.375
C 433.115 25.465 432.637 24.6833 432.03 24.03
C 431.423 23.3533 430.712 22.8283 429.895 22.455
C 429.102 22.0583 428.25 21.86 427.34 21.86
C 426.43 21.86 425.578 22.0583 424.785 22.455
C 423.992 22.8283 423.292 23.3533 422.685 24.03
C 422.078 24.7067 421.6 25.5 421.25 26.41
C 420.9 27.2967 420.725 28.2533 420.725 29.28
Z
M 455.725 38.31
L 453.345 38.31
L 453.345 28.125
C 453.345 25.955 453.018 24.38 452.365 23.4
C 451.735 22.42 450.755 21.93 449.425 21.93
C 448.725 21.93 448.025 22.0583 447.325 22.315
C 446.625 22.5717 445.972 22.9333 445.365 23.4
C 444.782 23.8667 444.257 24.4267 443.79 25.08
C 443.323 25.71 442.985 26.3983 442.775 27.145
L 442.775 38.31
L 440.395 38.31
L 440.395 20.075
L 442.565 20.075
L 442.565 24.205
C 443.312 22.875 444.373 21.8017 445.75 20.985
C 447.15 20.1683 448.667 19.76 450.3 19.76
C 451.303 19.76 452.155 19.9467 452.855 20.32
C 453.555 20.6933 454.115 21.2183 454.535 21.895
C 454.955 22.5717 455.258 23.4 455.445 24.38
C 455.632 25.36 455.725 26.445 455.725 27.635
L 455.725 38.31
Z
M 468.675 38.66
C 467.345 38.66 466.12 38.415 465 37.925
C 463.903 37.4117 462.947 36.7233 462.13 35.86
C 461.313 34.9733 460.672 33.9583 460.205 32.815
C 459.762 31.6717 459.54 30.4467 459.54 29.14
C 459.54 27.8567 459.762 26.655 460.205 25.535
C 460.672 24.3917 461.302 23.4 462.095 22.56
C 462.912 21.6967 463.88 21.02 465 20.53
C 466.12 20.0167 467.333 19.76 468.64 19.76
C 469.97 19.76 471.183 20.0167 472.28 20.53
C 473.4 21.02 474.357 21.6967 475.15 22.56
C 475.943 23.4233 476.562 24.415 477.005 25.535
C 477.448 26.655 477.67 27.845 477.67 29.105
C 477.67 29.2917 477.67 29.4783 477.67 29.665
C 477.67 29.8517 477.658 29.98 477.635 30.05
L 462.025 30.05
C 462.095 31.03 462.317 31.94 462.69 32.78
C 463.087 33.5967 463.588 34.3083 464.195 34.915
C 464.802 35.5217 465.49 36 466.26 36.35
C 467.053 36.6767 467.893 36.84 468.78 36.84
C 469.363 36.84 469.947 36.7583 470.53 36.595
C 471.113 36.4317 471.65 36.21 472.14 35.93
C 472.63 35.65 473.073 35.3117 473.47 34.915
C 473.867 34.495 474.17 34.04 474.38 33.55
L 476.445 34.11
C 476.165 34.7867 475.768 35.405 475.255 35.965
C 474.742 36.5017 474.147 36.98 473.47 37.4
C 472.793 37.7967 472.047 38.1 471.23 38.31
C 470.413 38.5433 469.562 38.66 468.675 38.66
Z
M 475.395 28.23
C 475.325 27.25 475.092 26.3633 474.695 25.57
C 474.322 24.7533 473.832 24.0533 473.225 23.47
C 472.642 22.8867 471.953 22.4317 471.16 22.105
C 470.39 21.7783 469.562 21.615 468.675 21.615
C 467.788 21.615 466.948 21.7783 466.155 22.105
C 465.362 22.4317 464.662 22.8867 464.055 23.47
C 463.472 24.0533 462.993 24.7533 462.62 25.57
C 462.27 26.3867 462.06 27.2733 461.99 28.23
L 475.395 28.23
Z
M 498.04 38.66
C 496.71 38.66 495.497 38.415 494.4 37.925
C 493.303 37.4117 492.347 36.7233 491.53 35.86
C 490.737 34.9967 490.118 33.9933 489.675 32.85
C 489.232 31.7067 489.01 30.505 489.01 29.245
C 489.01 27.9617 489.232 26.7483 489.675 25.605
C 490.142 24.4617 490.772 23.4583 491.565 22.595
C 492.382 21.7317 493.338 21.0433 494.435 20.53
C 495.532 20.0167 496.733 19.76 498.04 19.76
C 499.347 19.76 500.548 20.0167 501.645 20.53
C 502.765 21.0433 503.722 21.7317 504.515 22.595
C 505.332 23.4583 505.962 24.4617 506.405 25.605
C 506.872 26.7483 507.105 27.9617 507.105 29.245
C 507.105 30.505 506.883 31.7067 506.44 32.85
C 505.997 33.9933 505.367 34.9967 504.55 35.86
C 503.757 36.7233 502.8 37.4117 501.68 37.925
C 500.583 38.415 499.37 38.66 498.04 38.66
Z
M 491.425 29.28
C 491.425 30.3067 491.6 31.2633 491.95 32.15
C 492.3 33.0133 492.767 33.7833 493.35 34.46
C 493.957 35.1133 494.657 35.6267 495.45 36
C 496.267 36.3733 497.13 36.56 498.04 36.56
C 498.95 36.56 499.802 36.3733 500.595 36
C 501.412 35.6033 502.123 35.0783 502.73 34.425
C 503.337 33.7483 503.815 32.9667 504.165 32.08
C 504.515 31.1933 504.69 30.2367 504.69 29.21
C 504.69 28.2067 504.515 27.2617 504.165 26.375
C 503.815 25.465 503.337 24.6833 502.73 24.03
C 502.123 23.3533 501.412 22.8283 500.595 22.455
C 499.802 22.0583 498.95 21.86 498.04 21.86
C 497.13 21.86 496.278 22.0583 495.485 22.455
C 494.692 22.8283 493.992 23.3533 493.385 24.03
C 492.778 24.7067 492.3 25.5 491.95 26.41
C 491.6 27.2967 491.425 28.2533 491.425 29.28
Z
M 511.97 38.31
L 511.97 21.965
L 509.45 21.965
L 509.45 20.075
L 511.97 20.075
L 511.97 19.585
C 511.97 17.345 512.448 15.595 513.405 14.335
C 514.362 13.0517 515.668 12.41 517.325 12.41
C 518.048 12.41 518.748 12.515 519.425 12.725
C 520.102 12.935 520.685 13.215 521.175 13.565
L 520.44 15.28
C 520.113 15.0233 519.705 14.825 519.215 14.685
C 518.748 14.545 518.27 14.475 517.78 14.475
C 516.66 14.475 515.808 14.9067 515.225 15.77
C 514.642 16.6333 514.35 17.8817 514.35 19.515
L 514.35 20.075
L 519.39 20.075
L 519.39 21.965
L 514.35 21.965
L 514.35 38.31
L 511.97 38.31
Z
M 540.32 37.435
C 540.18 37.505 539.97 37.5983 539.69 37.715
C 539.433 37.8317 539.13 37.9483 538.78 38.065
C 538.43 38.1817 538.033 38.2867 537.59 38.38
C 537.147 38.4733 536.68 38.52 536.19 38.52
C 535.677 38.52 535.187 38.45 534.72 38.31
C 534.253 38.17 533.845 37.96 533.495 37.68
C 533.145 37.3767 532.865 37.0033 532.655 36.56
C 532.445 36.1167 532.34 35.6033 532.34 35.02
L 532.34 21.965
L 529.82 21.965
L 529.82 20.075
L 532.34 20.075
L 532.34 13.915
L 534.72 13.915
L 534.72 20.075
L 538.92 20.075
L 538.92 21.965
L 534.72 21.965
L 534.72 34.355
C 534.767 35.0317 535 35.5333 535.42 35.86
C 535.863 36.1633 536.365 36.315 536.925 36.315
C 537.602 36.315 538.197 36.21 538.71 36
C 539.223 35.7667 539.55 35.6033 539.69 35.51
L 540.32 37.435
Z
M 558.625 38.31
L 556.245 38.31
L 556.245 28.125
C 556.245 26.0483 555.883 24.4967 555.16 23.47
C 554.46 22.4433 553.422 21.93 552.045 21.93
C 551.368 21.93 550.692 22.07 550.015 22.35
C 549.362 22.6067 548.743 22.9683 548.16 23.435
C 547.577 23.9017 547.063 24.45 546.62 25.08
C 546.2 25.71 545.885 26.3983 545.675 27.145
L 545.675 38.31
L 543.295 38.31
L 543.295 12.76
L 545.675 12.76
L 545.675 24.205
C 546.398 22.8283 547.402 21.7433 548.685 20.95
C 549.968 20.1567 551.357 19.76 552.85 19.76
C 553.9 19.76 554.787 19.9583 555.51 20.355
C 556.233 20.7283 556.828 21.265 557.295 21.965
C 557.762 22.6417 558.1 23.47 558.31 24.45
C 558.52 25.4067 558.625 26.4683 558.625 27.635
L 558.625 38.31
Z
M 571.575 38.66
C 570.245 38.66 569.02 38.415 567.9 37.925
C 566.803 37.4117 565.847 36.7233 565.03 35.86
C 564.213 34.9733 563.572 33.9583 563.105 32.815
C 562.662 31.6717 562.44 30.4467 562.44 29.14
C 562.44 27.8567 562.662 26.655 563.105 25.535
C 563.572 24.3917 564.202 23.4 564.995 22.56
C 565.812 21.6967 566.78 21.02 567.9 20.53
C 569.02 20.0167 570.233 19.76 571.54 19.76
C 572.87 19.76 574.083 20.0167 575.18 20.53
C 576.3 21.02 577.257 21.6967 578.05 22.56
C 578.843 23.4233 579.462 24.415 579.905 25.535
C 580.348 26.655 580.57 27.845 580.57 29.105
C 580.57 29.2917 580.57 29.4783 580.57 29.665
C 580.57 29.8517 580.558 29.98 580.535 30.05
L 564.925 30.05
C 564.995 31.03 565.217 31.94 565.59 32.78
C 565.987 33.5967 566.488 34.3083 567.095 34.915
C 567.702 35.5217 568.39 36 569.16 36.35
C 569.953 36.6767 570.793 36.84 571.68 36.84
C 572.263 36.84 572.847 36.7583 573.43 36.595
C 574.013 36.4317 574.55 36.21 575.04 35.93
C 575.53 35.65 575.973 35.3117 576.37 34.915
C 576.767 34.495 577.07 34.04 577.28 33.55
L 579.345 34.11
C 579.065 34.7867 578.668 35.405 578.155 35.965
C 577.642 36.5017 577.047 36.98 576.37 37.4
C 575.693 37.7967 574.947 38.1 574.13 38.31
C 573.313 38.5433 572.462 38.66 571.575 38.66
Z
M 578.295 28.23
C 578.225 27.25 577.992 26.3633 577.595 25.57
C 577.222 24.7533 576.732 24.0533 576.125 23.47
C 575.542 22.8867 574.853 22.4317 574.06 22.105
C 573.29 21.7783 572.462 21.615 571.575 21.615
C 570.688 21.615 569.848 21.7783 569.055 22.105
C 568.262 22.4317 567.562 22.8867 566.955 23.47
C 566.372 24.0533 565.893 24.7533 565.52 25.57
C 565.17 26.3867 564.96 27.2733 564.89 28.23
L 578.295 28.23
Z
M 602.55 30.05
C 604.09 30.3067 605.315 31.0067 606.225 32.15
C 607.158 33.2933 607.625 34.705 607.625 36.385
C 607.625 37.435 607.427 38.3917 607.03 39.255
C 606.657 40.1417 606.108 40.8883 605.385 41.495
C 604.685 42.125 603.833 42.6033 602.83 42.93
C 601.85 43.28 600.753 43.455 599.54 43.455
C 597.767 43.455 596.215 43.0933 594.885 42.37
C 593.555 41.67 592.552 40.69 591.875 39.43
L 593.52 37.925
C 594.01 38.9517 594.757 39.7683 595.76 40.375
C 596.763 40.9817 598.023 41.285 599.54 41.285
C 601.29 41.285 602.667 40.8533 603.67 39.99
C 604.673 39.15 605.175 37.9367 605.175 36.35
C 605.175 34.74 604.65 33.4683 603.6 32.535
C 602.55 31.6017 601.033 31.135 599.05 31.135
L 598.175 31.135
L 598.175 29.105
L 599.12 29.105
C 600.917 29.105 602.293 28.6967 603.25 27.88
C 604.207 27.04 604.685 25.955 604.685 24.625
C 604.685 23.925 604.557 23.3067 604.3 22.77
C 604.043 22.2333 603.682 21.79 603.215 21.44
C 602.772 21.0667 602.235 20.7867 601.605 20.6
C 600.998 20.4133 600.333 20.32 599.61 20.32
C 598.28 20.32 597.102 20.6233 596.075 21.23
C 595.072 21.8133 594.313 22.63 593.8 23.68
L 592.26 22.21
C 592.54 21.6033 592.937 21.055 593.45 20.565
C 593.963 20.0517 594.547 19.62 595.2 19.27
C 595.853 18.92 596.577 18.6517 597.37 18.465
C 598.163 18.255 598.98 18.15 599.82 18.15
C 600.893 18.15 601.873 18.3017 602.76 18.605
C 603.67 18.9083 604.452 19.34 605.105 19.9
C 605.758 20.4367 606.26 21.09 606.61 21.86
C 606.983 22.63 607.17 23.4817 607.17 24.415
C 607.17 25.115 607.065 25.7917 606.855 26.445
C 606.645 27.075 606.342 27.6467 605.945 28.16
C 605.548 28.65 605.058 29.07 604.475 29.42
C 603.915 29.7467 603.273 29.9567 602.55 30.05
Z
M 620.96 22.175
C 619.35 22.2217 617.95 22.665 616.76 23.505
C 615.57 24.345 614.73 25.5 614.24 26.97
L 614.24 38.31
L 611.86 38.31
L 611.86 20.075
L 614.1 20.075
L 614.1 24.45
C 614.777 23.05 615.687 21.9533 616.83 21.16
C 617.973 20.3667 619.198 19.97 620.505 19.97
C 620.692 19.97 620.843 19.9817 620.96 20.005
L 620.96 22.175
Z
M 631.635 38.66
C 630.375 38.66 629.208 38.4033 628.135 37.89
C 627.062 37.3533 626.14 36.6533 625.37 35.79
C 624.6 34.9267 623.993 33.935 623.55 32.815
C 623.13 31.6717 622.92 30.4817 622.92 29.245
C 622.92 27.9617 623.13 26.7483 623.55 25.605
C 623.97 24.4383 624.542 23.4233 625.265 22.56
C 626.012 21.6967 626.887 21.02 627.89 20.53
C 628.917 20.0167 630.037 19.76 631.25 19.76
C 632.79 19.76 634.155 20.1683 635.345 20.985
C 636.535 21.7783 637.468 22.7467 638.145 23.89
L 638.145 12.76
L 640.525 12.76
L 640.525 35.23
C 640.525 35.8833 640.805 36.21 641.365 36.21
L 641.365 38.31
C 641.015 38.38 640.735 38.415 640.525 38.415
C 639.965 38.415 639.475 38.24 639.055 37.89
C 638.635 37.5167 638.425 37.0733 638.425 36.56
L 638.425 34.775
C 637.702 35.965 636.722 36.91 635.485 37.61
C 634.248 38.31 632.965 38.66 631.635 38.66
Z
M 632.16 36.56
C 632.743 36.56 633.362 36.4433 634.015 36.21
C 634.692 35.9767 635.322 35.6617 635.905 35.265
C 636.488 34.845 636.978 34.3667 637.375 33.83
C 637.795 33.27 638.052 32.675 638.145 32.045
L 638.145 26.41
C 637.912 25.78 637.573 25.1967 637.13 24.66
C 636.687 24.1 636.173 23.61 635.59 23.19
C 635.03 22.77 634.423 22.4433 633.77 22.21
C 633.117 21.9767 632.475 21.86 631.845 21.86
C 630.865 21.86 629.978 22.07 629.185 22.49
C 628.392 22.91 627.703 23.47 627.12 24.17
C 626.56 24.8467 626.128 25.6283 625.825 26.515
C 625.522 27.4017 625.37 28.3117 625.37 29.245
C 625.37 30.225 625.545 31.1583 625.895 32.045
C 626.245 32.9317 626.723 33.7133 627.33 34.39
C 627.937 35.0433 628.648 35.5683 629.465 35.965
C 630.305 36.3617 631.203 36.56 632.16 36.56
Z
M 195.622 79.4
L 195.622 61.165
L 198.002 61.165
L 198.002 79.4
L 195.622 79.4
Z
M 195.622 57.35
L 195.622 53.85
L 198.002 53.85
L 198.002 57.35
L 195.622 57.35
Z
M 218.582 79.4
L 216.202 79.4
L 216.202 69.215
C 216.202 67.045 215.876 65.47 215.222 64.49
C 214.592 63.51 213.612 63.02 212.282 63.02
C 211.582 63.02 210.882 63.1483 210.182 63.405
C 209.482 63.6617 208.829 64.0233 208.222 64.49
C 207.639 64.9567 207.114 65.5167 206.647 66.17
C 206.181 66.8 205.842 67.4883 205.632 68.235
L 205.632 79.4
L 203.252 79.4
L 203.252 61.165
L 205.422 61.165
L 205.422 65.295
C 206.169 63.965 207.231 62.8917 208.607 62.075
C 210.007 61.2583 211.524 60.85 213.157 60.85
C 214.161 60.85 215.012 61.0367 215.712 61.41
C 216.412 61.7833 216.972 62.3083 217.392 62.985
C 217.812 63.6617 218.116 64.49 218.302 65.47
C 218.489 66.45 218.582 67.535 218.582 68.725
L 218.582 79.4
Z
M 231.147 79.75
C 229.887 79.75 228.721 79.4933 227.647 78.98
C 226.574 78.4433 225.652 77.7433 224.882 76.88
C 224.112 76.0167 223.506 75.025 223.062 73.905
C 222.642 72.7617 222.432 71.5717 222.432 70.335
C 222.432 69.0517 222.642 67.8383 223.062 66.695
C 223.482 65.5283 224.054 64.5133 224.777 63.65
C 225.524 62.7867 226.399 62.11 227.402 61.62
C 228.429 61.1067 229.549 60.85 230.762 60.85
C 232.302 60.85 233.667 61.2583 234.857 62.075
C 236.047 62.8683 236.981 63.8367 237.657 64.98
L 237.657 53.85
L 240.037 53.85
L 240.037 76.32
C 240.037 76.9733 240.317 77.3 240.877 77.3
L 240.877 79.4
C 240.527 79.47 240.247 79.505 240.037 79.505
C 239.477 79.505 238.987 79.33 238.567 78.98
C 238.147 78.6067 237.937 78.1633 237.937 77.65
L 237.937 75.865
C 237.214 77.055 236.234 78 234.997 78.7
C 233.761 79.4 232.477 79.75 231.147 79.75
Z
M 231.672 77.65
C 232.256 77.65 232.874 77.5333 233.527 77.3
C 234.204 77.0667 234.834 76.7517 235.417 76.355
C 236.001 75.935 236.491 75.4567 236.887 74.92
C 237.307 74.36 237.564 73.765 237.657 73.135
L 237.657 67.5
C 237.424 66.87 237.086 66.2867 236.642 65.75
C 236.199 65.19 235.686 64.7 235.102 64.28
C 234.542 63.86 233.936 63.5333 233.282 63.3
C 232.629 63.0667 231.987 62.95 231.357 62.95
C 230.377 62.95 229.491 63.16 228.697 63.58
C 227.904 64 227.216 64.56 226.632 65.26
C 226.072 65.9367 225.641 66.7183 225.337 67.605
C 225.034 68.4917 224.882 69.4017 224.882 70.335
C 224.882 71.315 225.057 72.2483 225.407 73.135
C 225.757 74.0217 226.236 74.8033 226.842 75.48
C 227.449 76.1333 228.161 76.6583 228.977 77.055
C 229.817 77.4517 230.716 77.65 231.672 77.65
Z
M 251.132 79.75
C 249.149 79.75 247.667 79.0967 246.687 77.79
C 245.731 76.46 245.252 74.4883 245.252 71.875
L 245.252 61.165
L 247.632 61.165
L 247.632 71.455
C 247.632 75.585 249.044 77.65 251.867 77.65
C 252.567 77.65 253.256 77.5333 253.932 77.3
C 254.609 77.0667 255.227 76.7283 255.787 76.285
C 256.371 75.8417 256.884 75.3167 257.327 74.71
C 257.794 74.1033 258.167 73.415 258.447 72.645
L 258.447 61.165
L 260.827 61.165
L 260.827 76.32
C 260.827 76.9733 261.107 77.3 261.667 77.3
L 261.667 79.4
C 261.387 79.4467 261.154 79.47 260.967 79.47
C 260.804 79.47 260.687 79.47 260.617 79.47
C 260.057 79.4467 259.602 79.2483 259.252 78.875
C 258.902 78.5017 258.727 78 258.727 77.37
L 258.727 75.27
C 257.934 76.6933 256.849 77.8017 255.472 78.595
C 254.119 79.365 252.672 79.75 251.132 79.75
Z
M 272.272 79.75
C 270.849 79.75 269.461 79.5167 268.107 79.05
C 266.754 78.5833 265.587 77.9067 264.607 77.02
L 265.692 75.41
C 266.719 76.25 267.757 76.88 268.807 77.3
C 269.881 77.72 271.024 77.93 272.237 77.93
C 273.707 77.93 274.874 77.6383 275.737 77.055
C 276.624 76.4483 277.067 75.5967 277.067 74.5
C 277.067 73.9867 276.951 73.5667 276.717 73.24
C 276.484 72.89 276.134 72.5867 275.667 72.33
C 275.224 72.0733 274.652 71.8517 273.952 71.665
C 273.276 71.455 272.482 71.245 271.572 71.035
C 270.522 70.7783 269.612 70.5217 268.842 70.265
C 268.072 70.0083 267.431 69.7167 266.917 69.39
C 266.427 69.0633 266.054 68.6667 265.797 68.2
C 265.564 67.71 265.447 67.1033 265.447 66.38
C 265.447 65.47 265.622 64.665 265.972 63.965
C 266.346 63.265 266.836 62.6933 267.442 62.25
C 268.072 61.7833 268.796 61.4333 269.612 61.2
C 270.452 60.9667 271.339 60.85 272.272 60.85
C 273.672 60.85 274.944 61.0833 276.087 61.55
C 277.231 61.9933 278.152 62.5883 278.852 63.335
L 277.697 64.735
C 277.021 64.035 276.192 63.51 275.212 63.16
C 274.256 62.81 273.252 62.635 272.202 62.635
C 271.572 62.635 270.989 62.705 270.452 62.845
C 269.916 62.9617 269.437 63.16 269.017 63.44
C 268.621 63.72 268.306 64.0817 268.072 64.525
C 267.839 64.945 267.722 65.4467 267.722 66.03
C 267.722 66.52 267.804 66.9167 267.967 67.22
C 268.131 67.5233 268.399 67.7917 268.772 68.025
C 269.146 68.235 269.612 68.4333 270.172 68.62
C 270.756 68.7833 271.456 68.9583 272.272 69.145
C 273.439 69.425 274.466 69.705 275.352 69.985
C 276.239 70.265 276.974 70.5917 277.557 70.965
C 278.164 71.3383 278.619 71.7933 278.922 72.33
C 279.226 72.8667 279.377 73.52 279.377 74.29
C 279.377 75.97 278.736 77.3 277.452 78.28
C 276.169 79.26 274.442 79.75 272.272 79.75
Z
M 292.012 78.525
C 291.872 78.595 291.662 78.6883 291.382 78.805
C 291.126 78.9217 290.822 79.0383 290.472 79.155
C 290.122 79.2717 289.726 79.3767 289.282 79.47
C 288.839 79.5633 288.372 79.61 287.882 79.61
C 287.369 79.61 286.879 79.54 286.412 79.4
C 285.946 79.26 285.537 79.05 285.187 78.77
C 284.837 78.4667 284.557 78.0933 284.347 77.65
C 284.137 77.2067 284.032 76.6933 284.032 76.11
L 284.032 63.055
L 281.512 63.055
L 281.512 61.165
L 284.032 61.165
L 284.032 55.005
L 286.412 55.005
L 286.412 61.165
L 290.612 61.165
L 290.612 63.055
L 286.412 63.055
L 286.412 75.445
C 286.459 76.1217 286.692 76.6233 287.112 76.95
C 287.556 77.2533 288.057 77.405 288.617 77.405
C 289.294 77.405 289.889 77.3 290.402 77.09
C 290.916 76.8567 291.242 76.6933 291.382 76.6
L 292.012 78.525
Z
M 304.087 63.265
C 302.477 63.3117 301.077 63.755 299.887 64.595
C 298.697 65.435 297.857 66.59 297.367 68.06
L 297.367 79.4
L 294.987 79.4
L 294.987 61.165
L 297.227 61.165
L 297.227 65.54
C 297.904 64.14 298.814 63.0433 299.957 62.25
C 301.101 61.4567 302.326 61.06 303.632 61.06
C 303.819 61.06 303.971 61.0717 304.087 61.095
L 304.087 63.265
Z
M 307.272 79.4
L 307.272 61.165
L 309.652 61.165
L 309.652 79.4
L 307.272 79.4
Z
M 307.272 57.35
L 307.272 53.85
L 309.652 53.85
L 309.652 57.35
L 307.272 57.35
Z
M 319.487 79.75
C 318.624 79.75 317.819 79.61 317.072 79.33
C 316.349 79.0267 315.707 78.6183 315.147 78.105
C 314.611 77.5917 314.191 76.9967 313.887 76.32
C 313.584 75.62 313.432 74.8733 313.432 74.08
C 313.432 73.2867 313.619 72.5517 313.992 71.875
C 314.366 71.1983 314.891 70.615 315.567 70.125
C 316.244 69.635 317.049 69.2617 317.982 69.005
C 318.916 68.725 319.942 68.585 321.062 68.585
C 321.996 68.585 322.941 68.6667 323.897 68.83
C 324.854 68.9933 325.706 69.2267 326.452 69.53
L 326.452 67.885
C 326.452 66.275 325.997 65.0033 325.087 64.07
C 324.177 63.1133 322.917 62.635 321.307 62.635
C 320.374 62.635 319.417 62.8217 318.437 63.195
C 317.457 63.5683 316.466 64.105 315.462 64.805
L 314.622 63.23
C 316.979 61.6433 319.266 60.85 321.482 60.85
C 323.769 60.85 325.566 61.4917 326.872 62.775
C 328.179 64.0583 328.832 65.8317 328.832 68.095
L 328.832 76.32
C 328.832 76.9733 329.124 77.3 329.707 77.3
L 329.707 79.4
C 329.311 79.47 329.007 79.505 328.797 79.505
C 328.191 79.505 327.712 79.3533 327.362 79.05
C 327.036 78.7467 326.861 78.3267 326.837 77.79
L 326.767 76.355
C 325.927 77.4517 324.866 78.2917 323.582 78.875
C 322.322 79.4583 320.957 79.75 319.487 79.75
Z
M 320.047 77.93
C 321.284 77.93 322.416 77.6967 323.442 77.23
C 324.492 76.7633 325.286 76.145 325.822 75.375
C 326.032 75.165 326.184 74.9433 326.277 74.71
C 326.394 74.4533 326.452 74.22 326.452 74.01
L 326.452 71.035
C 325.659 70.7317 324.831 70.4983 323.967 70.335
C 323.127 70.1717 322.264 70.09 321.377 70.09
C 319.697 70.09 318.332 70.44 317.282 71.14
C 316.232 71.84 315.707 72.7617 315.707 73.905
C 315.707 74.465 315.812 74.99 316.022 75.48
C 316.256 75.97 316.559 76.4017 316.932 76.775
C 317.329 77.125 317.796 77.405 318.332 77.615
C 318.869 77.825 319.441 77.93 320.047 77.93
Z
M 334.082 53.85
L 336.462 53.85
L 336.462 75.27
C 336.462 75.9467 336.649 76.4833 337.022 76.88
C 337.396 77.2533 337.921 77.44 338.597 77.44
C 338.854 77.44 339.157 77.405 339.507 77.335
C 339.857 77.265 340.184 77.1717 340.487 77.055
L 340.907 78.98
C 340.464 79.1667 339.916 79.3183 339.262 79.435
C 338.632 79.5517 338.084 79.61 337.617 79.61
C 336.521 79.61 335.657 79.3067 335.027 78.7
C 334.397 78.07 334.082 77.195 334.082 76.075
L 334.082 53.85
Z
M 361.522 63.265
C 359.912 63.3117 358.512 63.755 357.322 64.595
C 356.132 65.435 355.292 66.59 354.802 68.06
L 354.802 79.4
L 352.422 79.4
L 352.422 61.165
L 354.662 61.165
L 354.662 65.54
C 355.339 64.14 356.249 63.0433 357.392 62.25
C 358.536 61.4567 359.761 61.06 361.067 61.06
C 361.254 61.06 361.406 61.0717 361.522 61.095
L 361.522 63.265
Z
M 372.582 79.75
C 371.252 79.75 370.027 79.505 368.907 79.015
C 367.811 78.5017 366.854 77.8133 366.037 76.95
C 365.221 76.0633 364.579 75.0483 364.112 73.905
C 363.669 72.7617 363.447 71.5367 363.447 70.23
C 363.447 68.9467 363.669 67.745 364.112 66.625
C 364.579 65.4817 365.209 64.49 366.002 63.65
C 366.819 62.7867 367.787 62.11 368.907 61.62
C 370.027 61.1067 371.241 60.85 372.547 60.85
C 373.877 60.85 375.091 61.1067 376.187 61.62
C 377.307 62.11 378.264 62.7867 379.057 63.65
C 379.851 64.5133 380.469 65.505 380.912 66.625
C 381.356 67.745 381.577 68.935 381.577 70.195
C 381.577 70.3817 381.577 70.5683 381.577 70.755
C 381.577 70.9417 381.566 71.07 381.542 71.14
L 365.932 71.14
C 366.002 72.12 366.224 73.03 366.597 73.87
C 366.994 74.6867 367.496 75.3983 368.102 76.005
C 368.709 76.6117 369.397 77.09 370.167 77.44
C 370.961 77.7667 371.801 77.93 372.687 77.93
C 373.271 77.93 373.854 77.8483 374.437 77.685
C 375.021 77.5217 375.557 77.3 376.047 77.02
C 376.537 76.74 376.981 76.4017 377.377 76.005
C 377.774 75.585 378.077 75.13 378.287 74.64
L 380.352 75.2
C 380.072 75.8767 379.676 76.495 379.162 77.055
C 378.649 77.5917 378.054 78.07 377.377 78.49
C 376.701 78.8867 375.954 79.19 375.137 79.4
C 374.321 79.6333 373.469 79.75 372.582 79.75
Z
M 379.302 69.32
C 379.232 68.34 378.999 67.4533 378.602 66.66
C 378.229 65.8433 377.739 65.1433 377.132 64.56
C 376.549 63.9767 375.861 63.5217 375.067 63.195
C 374.297 62.8683 373.469 62.705 372.582 62.705
C 371.696 62.705 370.856 62.8683 370.062 63.195
C 369.269 63.5217 368.569 63.9767 367.962 64.56
C 367.379 65.1433 366.901 65.8433 366.527 66.66
C 366.177 67.4767 365.967 68.3633 365.897 69.32
L 379.302 69.32
Z
M 390.712 79.4
L 383.292 61.165
L 385.742 61.165
L 392.007 77.195
L 398.307 61.165
L 400.617 61.165
L 393.197 79.4
L 390.712 79.4
Z
M 411.677 79.75
C 410.347 79.75 409.134 79.505 408.037 79.015
C 406.941 78.5017 405.984 77.8133 405.167 76.95
C 404.374 76.0867 403.756 75.0833 403.312 73.94
C 402.869 72.7967 402.647 71.595 402.647 70.335
C 402.647 69.0517 402.869 67.8383 403.312 66.695
C 403.779 65.5517 404.409 64.5483 405.202 63.685
C 406.019 62.8217 406.976 62.1333 408.072 61.62
C 409.169 61.1067 410.371 60.85 411.677 60.85
C 412.984 60.85 414.186 61.1067 415.282 61.62
C 416.402 62.1333 417.359 62.8217 418.152 63.685
C 418.969 64.5483 419.599 65.5517 420.042 66.695
C 420.509 67.8383 420.742 69.0517 420.742 70.335
C 420.742 71.595 420.521 72.7967 420.077 73.94
C 419.634 75.0833 419.004 76.0867 418.187 76.95
C 417.394 77.8133 416.437 78.5017 415.317 79.015
C 414.221 79.505 413.007 79.75 411.677 79.75
Z
M 405.062 70.37
C 405.062 71.3967 405.237 72.3533 405.587 73.24
C 405.937 74.1033 406.404 74.8733 406.987 75.55
C 407.594 76.2033 408.294 76.7167 409.087 77.09
C 409.904 77.4633 410.767 77.65 411.677 77.65
C 412.587 77.65 413.439 77.4633 414.232 77.09
C 415.049 76.6933 415.761 76.1683 416.367 75.515
C 416.974 74.8383 417.452 74.0567 417.802 73.17
C 418.152 72.2833 418.327 71.3267 418.327 70.3
C 418.327 69.2967 418.152 68.3517 417.802 67.465
C 417.452 66.555 416.974 65.7733 416.367 65.12
C 415.761 64.4433 415.049 63.9183 414.232 63.545
C 413.439 63.1483 412.587 62.95 411.677 62.95
C 410.767 62.95 409.916 63.1483 409.122 63.545
C 408.329 63.9183 407.629 64.4433 407.022 65.12
C 406.416 65.7967 405.937 66.59 405.587 67.5
C 405.237 68.3867 405.062 69.3433 405.062 70.37
Z
M 424.837 53.85
L 427.217 53.85
L 427.217 75.27
C 427.217 75.9467 427.404 76.4833 427.777 76.88
C 428.151 77.2533 428.676 77.44 429.352 77.44
C 429.609 77.44 429.912 77.405 430.262 77.335
C 430.612 77.265 430.939 77.1717 431.242 77.055
L 431.662 78.98
C 431.219 79.1667 430.671 79.3183 430.017 79.435
C 429.387 79.5517 428.839 79.61 428.372 79.61
C 427.276 79.61 426.412 79.3067 425.782 78.7
C 425.152 78.07 424.837 77.195 424.837 76.075
L 424.837 53.85
Z
M 439.957 79.75
C 437.974 79.75 436.492 79.0967 435.512 77.79
C 434.556 76.46 434.077 74.4883 434.077 71.875
L 434.077 61.165
L 436.457 61.165
L 436.457 71.455
C 436.457 75.585 437.869 77.65 440.692 77.65
C 441.392 77.65 442.081 77.5333 442.757 77.3
C 443.434 77.0667 444.052 76.7283 444.612 76.285
C 445.196 75.8417 445.709 75.3167 446.152 74.71
C 446.619 74.1033 446.992 73.415 447.272 72.645
L 447.272 61.165
L 449.652 61.165
L 449.652 76.32
C 449.652 76.9733 449.932 77.3 450.492 77.3
L 450.492 79.4
C 450.212 79.4467 449.979 79.47 449.792 79.47
C 449.629 79.47 449.512 79.47 449.442 79.47
C 448.882 79.4467 448.427 79.2483 448.077 78.875
C 447.727 78.5017 447.552 78 447.552 77.37
L 447.552 75.27
C 446.759 76.6933 445.674 77.8017 444.297 78.595
C 442.944 79.365 441.497 79.75 439.957 79.75
Z
M 463.792 78.525
C 463.652 78.595 463.442 78.6883 463.162 78.805
C 462.906 78.9217 462.602 79.0383 462.252 79.155
C 461.902 79.2717 461.506 79.3767 461.062 79.47
C 460.619 79.5633 460.152 79.61 459.662 79.61
C 459.149 79.61 458.659 79.54 458.192 79.4
C 457.726 79.26 457.317 79.05 456.967 78.77
C 456.617 78.4667 456.337 78.0933 456.127 77.65
C 455.917 77.2067 455.812 76.6933 455.812 76.11
L 455.812 63.055
L 453.292 63.055
L 453.292 61.165
L 455.812 61.165
L 455.812 55.005
L 458.192 55.005
L 458.192 61.165
L 462.392 61.165
L 462.392 63.055
L 458.192 63.055
L 458.192 75.445
C 458.239 76.1217 458.472 76.6233 458.892 76.95
C 459.336 77.2533 459.837 77.405 460.397 77.405
C 461.074 77.405 461.669 77.3 462.182 77.09
C 462.696 76.8567 463.022 76.6933 463.162 76.6
L 463.792 78.525
Z
M 466.767 79.4
L 466.767 61.165
L 469.147 61.165
L 469.147 79.4
L 466.767 79.4
Z
M 466.767 57.35
L 466.767 53.85
L 469.147 53.85
L 469.147 57.35
L 466.767 57.35
Z
M 482.167 79.75
C 480.837 79.75 479.624 79.505 478.527 79.015
C 477.431 78.5017 476.474 77.8133 475.657 76.95
C 474.864 76.0867 474.246 75.0833 473.802 73.94
C 473.359 72.7967 473.137 71.595 473.137 70.335
C 473.137 69.0517 473.359 67.8383 473.802 66.695
C 474.269 65.5517 474.899 64.5483 475.692 63.685
C 476.509 62.8217 477.466 62.1333 478.562 61.62
C 479.659 61.1067 480.861 60.85 482.167 60.85
C 483.474 60.85 484.676 61.1067 485.772 61.62
C 486.892 62.1333 487.849 62.8217 488.642 63.685
C 489.459 64.5483 490.089 65.5517 490.532 66.695
C 490.999 67.8383 491.232 69.0517 491.232 70.335
C 491.232 71.595 491.011 72.7967 490.567 73.94
C 490.124 75.0833 489.494 76.0867 488.677 76.95
C 487.884 77.8133 486.927 78.5017 485.807 79.015
C 484.711 79.505 483.497 79.75 482.167 79.75
Z
M 475.552 70.37
C 475.552 71.3967 475.727 72.3533 476.077 73.24
C 476.427 74.1033 476.894 74.8733 477.477 75.55
C 478.084 76.2033 478.784 76.7167 479.577 77.09
C 480.394 77.4633 481.257 77.65 482.167 77.65
C 483.077 77.65 483.929 77.4633 484.722 77.09
C 485.539 76.6933 486.251 76.1683 486.857 75.515
C 487.464 74.8383 487.942 74.0567 488.292 73.17
C 488.642 72.2833 488.817 71.3267 488.817 70.3
C 488.817 69.2967 488.642 68.3517 488.292 67.465
C 487.942 66.555 487.464 65.7733 486.857 65.12
C 486.251 64.4433 485.539 63.9183 484.722 63.545
C 483.929 63.1483 483.077 62.95 482.167 62.95
C 481.257 62.95 480.406 63.1483 479.612 63.545
C 478.819 63.9183 478.119 64.4433 477.512 65.12
C 476.906 65.7967 476.427 66.59 476.077 67.5
C 475.727 68.3867 475.552 69.3433 475.552 70.37
Z
M 510.552 79.4
L 508.172 79.4
L 508.172 69.215
C 508.172 67.045 507.846 65.47 507.192 64.49
C 506.562 63.51 505.582 63.02 504.252 63.02
C 503.552 63.02 502.852 63.1483 502.152 63.405
C 501.452 63.6617 500.799 64.0233 500.192 64.49
C 499.609 64.9567 499.084 65.5167 498.617 66.17
C 498.151 66.8 497.812 67.4883 497.602 68.235
L 497.602 79.4
L 495.222 79.4
L 495.222 61.165
L 497.392 61.165
L 497.392 65.295
C 498.139 63.965 499.201 62.8917 500.577 62.075
C 501.977 61.2583 503.494 60.85 505.127 60.85
C 506.131 60.85 506.982 61.0367 507.682 61.41
C 508.382 61.7833 508.942 62.3083 509.362 62.985
C 509.782 63.6617 510.086 64.49 510.272 65.47
C 510.459 66.45 510.552 67.535 510.552 68.725
L 510.552 79.4
Z"/>
</defs>
</svg>
