<svg width="215" height="23" version="2.0" xmlns="http://www.w3.org/2000/svg" xmlns:xlink="http://www.w3.org/1999/xlink" xmlns:figma="http://www.figma.com/figma/ns">
<title>q venture partners</title>
<desc>Created using Figma (9000)</desc>
<g id="Canvas" transform="translate(-2787 472)" figma:type="canvas">
<g id="q venture partners" style="mix-blend-mode:normal;" figma:type="text">
<use xlink:href="#path0_fill" transform="translate(2785 -508)" fill="#FFFFFF" style="mix-blend-mode:normal;"/>
</g>
</g>
<defs>
<path id="path0_fill" d="
M 14.5195 39.4629
L 14.5195 54.9756
C 14.5195 55.6396 14.5586 56.123 14.6367 56.4258
C 14.7148 56.7383 14.8662 57.002 15.0908 57.2168
C 15.3643 57.4805 15.8721 57.6758 16.6143 57.8027
L 16.6143 58.0957
L 10.1396 58.0957
L 10.1396 57.8027
C 10.7256 57.7246 11.1455 57.6172 11.3994 57.4805
C 11.6533 57.3438 11.8584 57.1045 12.0146 56.7627
C 12.1221 56.5381 12.2002 56.1963 12.249 55.7373
C 12.2979 55.2783 12.3223 54.624 12.3223 53.7744
L 12.3223 50.9326
C 11.9121 51.4404 11.5166 51.8115 11.1357 52.0459
C 10.3936 52.5244 9.5 52.7637 8.45508 52.7637
C 6.9707 52.7637 5.67676 52.2949 4.57324 51.3574
C 3.21582 50.1855 2.53711 48.5449 2.53711 46.4355
C 2.53711 44.4336 3.11328 42.832 4.26563 41.6309
C 5.42773 40.4297 6.98047 39.8291 8.92383 39.8291
C 9.72461 39.8291 10.418 39.9561 11.0039 40.21
L 11.7656 40.5469
C 11.9512 40.625 12.127 40.6641 12.293 40.6641
C 12.8008 40.6641 13.2451 40.2637 13.626 39.4629
L 14.5195 39.4629
Z
M 12.3223 46.4941
C 12.3223 45.4395 12.2637 44.4775 12.1465 43.6084
C 12.0293 42.7295 11.8779 42.0898 11.6924 41.6895
C 11.458 41.2012 11.1211 40.8252 10.6816 40.5615
C 10.2422 40.2881 9.73438 40.1514 9.1582 40.1514
C 8.02539 40.1514 7.08789 40.6592 6.3457 41.6748
C 5.94531 42.2217 5.63281 42.8906 5.4082 43.6816
C 5.18359 44.4629 5.07129 45.293 5.07129 46.1719
C 5.07129 47.0898 5.19824 47.9639 5.45215 48.7939
C 5.70605 49.6143 6.06738 50.3174 6.53613 50.9033
C 6.90723 51.3818 7.3125 51.748 7.75195 52.002
C 8.20117 52.2461 8.66016 52.3682 9.12891 52.3682
C 9.69531 52.3682 10.2178 52.1973 10.6963 51.8555
C 11.1846 51.5039 11.5508 51.0449 11.7949 50.4785
C 12.1465 49.668 12.3223 48.3398 12.3223 46.4941
Z
M 24.1143 40.0488
L 29.7832 40.0488
L 29.7832 40.3564
C 29.3535 40.4443 29.0605 40.542 28.9043 40.6494
C 28.5918 40.8447 28.4355 41.1572 28.4355 41.5869
C 28.4355 41.8506 28.4844 42.1582 28.582 42.5098
C 28.6797 42.8613 28.8604 43.374 29.124 44.0479
L 31.4971 50.0684
L 33.8848 43.7988
C 34.2363 42.8711 34.4121 42.1826 34.4121 41.7334
C 34.4121 41.2451 34.2607 40.8887 33.958 40.6641
C 33.8018 40.5469 33.5137 40.4443 33.0938 40.3564
L 33.0938 40.0488
L 37.1367 40.0488
L 37.1367 40.3564
C 36.5898 40.4932 36.1504 40.7373 35.8184 41.0889
C 35.3984 41.5283 34.915 42.4512 34.3682 43.8574
L 30.9844 52.5
L 30.1934 52.5
L 26.5166 43.418
C 25.9502 42.0215 25.5449 41.1768 25.3008 40.8838
C 25.1641 40.7275 25.0127 40.6152 24.8467 40.5469
C 24.6807 40.4688 24.4365 40.4053 24.1143 40.3564
L 24.1143 40.0488
Z
M 40.2275 44.5312
C 40.1885 45.0098 40.1689 45.3564 40.1689 45.5713
C 40.1689 46.4209 40.291 47.251 40.5352 48.0615
C 40.7891 48.8721 41.1309 49.5459 41.5605 50.083
C 42 50.6299 42.542 51.0596 43.1865 51.3721
C 43.8408 51.6846 44.5244 51.8408 45.2373 51.8408
C 45.7646 51.8408 46.2627 51.7529 46.7314 51.5771
C 47.21 51.4014 47.6055 51.1572 47.918 50.8447
C 48.2695 50.5029 48.5723 49.9561 48.8262 49.2041
L 49.1191 49.3066
C 48.8652 50.4492 48.3184 51.3135 47.4785 51.8994
C 46.6484 52.4756 45.54 52.7637 44.1533 52.7637
C 42.9521 52.7637 41.9219 52.5732 41.0625 52.1924
C 40.2031 51.8115 39.4756 51.2256 38.8799 50.4346
C 38.0498 49.3311 37.6348 47.9736 37.6348 46.3623
C 37.6348 44.165 38.4209 42.4414 39.9932 41.1914
C 41.1357 40.2832 42.4395 39.8291 43.9043 39.8291
C 44.6855 39.8291 45.4082 39.9707 46.0723 40.2539
C 46.7363 40.5273 47.2979 40.9277 47.7568 41.4551
C 48.4697 42.2754 48.8262 43.3008 48.8262 44.5312
L 40.2275 44.5312
Z
M 46.6436 43.96
C 46.5752 42.9834 46.3945 42.2314 46.1016 41.7041
C 45.8379 41.2256 45.4863 40.8496 45.0469 40.5762
C 44.6074 40.293 44.1387 40.1514 43.6406 40.1514
C 42.8008 40.1514 42.0635 40.5127 41.4287 41.2354
C 40.8037 41.958 40.4326 42.8662 40.3154 43.96
L 46.6436 43.96
Z
M 54.8174 39.7998
C 54.9541 40.3662 55.0225 40.8936 55.0225 41.3818
L 55.0225 41.6162
C 56.2334 40.4248 57.6738 39.8291 59.3438 39.8291
C 60.5938 39.8291 61.5996 40.1221 62.3613 40.708
C 63.1133 41.2842 63.4893 42.1045 63.4893 43.1689
L 63.4893 49.3799
C 63.4893 50.0439 63.5283 50.5322 63.6064 50.8447
C 63.6846 51.1475 63.8359 51.4014 64.0605 51.6064
C 64.334 51.8701 64.8369 52.0703 65.5693 52.207
L 65.5693 52.5
L 59.1094 52.5
L 59.1094 52.207
C 59.6953 52.1289 60.1152 52.0215 60.3691 51.8848
C 60.623 51.7383 60.8281 51.4941 60.9844 51.1523
C 61.0918 50.9277 61.165 50.5908 61.2041 50.1416
C 61.2529 49.6826 61.2773 49.0283 61.2773 48.1787
L 61.2773 45.0732
C 61.2773 44.0088 61.2383 43.2275 61.1602 42.7295
C 61.0918 42.2314 60.9551 41.8311 60.75 41.5283
C 60.5254 41.1865 60.2031 40.9229 59.7832 40.7373
C 59.3633 40.542 58.8994 40.4443 58.3916 40.4443
C 57.8447 40.4443 57.332 40.5518 56.8535 40.7666
C 56.3848 40.9814 56.0137 41.2744 55.7402 41.6455
C 55.4473 42.0361 55.252 42.4805 55.1543 42.9785
C 55.0664 43.4668 55.0225 44.2822 55.0225 45.4248
L 55.0225 48.2959
L 55.0371 49.3799
C 55.0371 50.0439 55.0762 50.5322 55.1543 50.8447
C 55.2324 51.1475 55.3838 51.4014 55.6084 51.6064
C 55.8818 51.8701 56.3848 52.0703 57.1172 52.207
L 57.1172 52.5
L 50.6572 52.5
L 50.6572 52.207
C 51.2432 52.1289 51.6631 52.0215 51.917 51.8848
C 52.1709 51.7383 52.376 51.4941 52.5322 51.1523
C 52.6396 50.9277 52.7129 50.5908 52.752 50.1416
C 52.8008 49.6826 52.8252 49.0234 52.8252 48.1641
L 52.8252 44.5459
C 52.8252 43.54 52.8008 42.8369 52.752 42.4365
C 52.7031 42.0264 52.5957 41.6943 52.4297 41.4404
C 52.2637 41.167 52.0635 40.9717 51.8291 40.8545
C 51.5947 40.7275 51.2578 40.6494 50.8184 40.6201
L 50.8184 40.3271
L 54.8174 39.7998
Z
M 70.0518 40.0488
L 73.7871 40.0488
L 73.7871 40.6055
L 70.0518 40.6055
L 70.0518 49.1309
C 70.0518 50.1562 70.2275 50.8887 70.5791 51.3281
C 70.7646 51.5723 71.0088 51.7627 71.3115 51.8994
C 71.6143 52.0361 71.9414 52.1045 72.293 52.1045
C 72.7324 52.1045 73.0986 52.0166 73.3916 51.8408
C 73.6846 51.6553 74.0068 51.3232 74.3584 50.8447
L 74.5781 51.0352
C 74.2559 51.6211 73.8018 52.0557 73.2158 52.3389
C 72.6396 52.6221 71.917 52.7637 71.0479 52.7637
C 69.8955 52.7637 69.0557 52.5391 68.5283 52.0898
C 68.2451 51.8555 68.0596 51.5771 67.9717 51.2549
C 67.8838 50.9229 67.8398 50.332 67.8398 49.4824
L 67.8398 40.6055
L 66.2725 40.6055
L 66.2725 40.3711
C 66.9072 40.166 67.4932 39.7705 68.0303 39.1846
C 68.3525 38.8232 68.6113 38.4668 68.8066 38.1152
C 69.002 37.7539 69.1875 37.29 69.3633 36.7236
L 69.5098 36.2402
L 70.0518 36.2402
L 70.0518 40.0488
Z
M 84.5977 52.749
C 84.4707 52.1631 84.4072 51.5625 84.4072 50.9473
C 83.1865 52.1582 81.7412 52.7637 80.0713 52.7637
C 78.8506 52.7637 77.8691 52.4658 77.127 51.8701
C 76.4043 51.2842 76.043 50.4541 76.043 49.3799
L 76.043 44.2822
L 76.0283 43.1689
C 76.0283 42.5049 75.9893 42.0215 75.9111 41.7188
C 75.833 41.416 75.6865 41.1572 75.4717 40.9424
C 75.1885 40.6787 74.6807 40.4834 73.9482 40.3564
L 73.9482 40.0488
L 78.2402 40.0488
L 78.2402 47.4756
C 78.2402 48.5205 78.2744 49.2969 78.3428 49.8047
C 78.4209 50.3027 78.5576 50.7129 78.7529 51.0352
C 78.9678 51.3672 79.2754 51.6309 79.6758 51.8262
C 80.0762 52.0117 80.5254 52.1045 81.0234 52.1045
C 81.5703 52.1045 82.083 51.9971 82.5615 51.7822
C 83.04 51.5674 83.416 51.2744 83.6895 50.9033
C 83.9727 50.5225 84.1582 50.083 84.2461 49.585
C 84.3438 49.0869 84.3926 48.2666 84.3926 47.124
L 84.3926 44.2529
L 84.3779 43.1689
C 84.3779 42.5049 84.3389 42.0215 84.2607 41.7188
C 84.1924 41.416 84.0459 41.1572 83.8213 40.9424
C 83.5479 40.6787 83.04 40.4834 82.2979 40.3564
L 82.2979 40.0488
L 86.5898 40.0488
L 86.5898 48.0029
C 86.5898 49.0088 86.6143 49.7168 86.6631 50.127
C 86.7217 50.5273 86.8291 50.8545 86.9854 51.1084
C 87.1611 51.3818 87.3662 51.582 87.6006 51.709
C 87.835 51.8262 88.1719 51.8994 88.6113 51.9287
L 88.6113 52.2217
L 84.5977 52.749
Z
M 93.5771 42.085
C 93.9287 41.4697 94.3242 41.0059 94.7637 40.6934
C 95.5742 40.1172 96.4971 39.8291 97.5322 39.8291
C 98.167 39.8291 98.6504 39.9707 98.9824 40.2539
C 99.2852 40.5078 99.4365 40.8203 99.4365 41.1914
C 99.4365 41.4648 99.3438 41.6895 99.1582 41.8652
C 98.9824 42.041 98.7529 42.1289 98.4697 42.1289
C 98.1377 42.1289 97.8496 41.9922 97.6055 41.7188
L 97.1514 41.2207
C 96.79 40.8398 96.3652 40.6494 95.877 40.6494
C 95.2129 40.6494 94.6953 41.0791 94.3242 41.9385
C 93.9531 42.7979 93.7676 43.9941 93.7676 45.5273
L 93.7676 48.2666
L 93.7822 49.3799
C 93.7822 50.0439 93.8213 50.5322 93.8994 50.8447
C 93.9775 51.1475 94.1289 51.4014 94.3535 51.6064
C 94.627 51.8701 95.1299 52.0703 95.8623 52.207
L 95.8623 52.5
L 89.4023 52.5
L 89.4023 52.207
C 89.9883 52.1289 90.4082 52.0215 90.6621 51.8848
C 90.916 51.7383 91.1211 51.4941 91.2773 51.1523
C 91.3848 50.9277 91.458 50.5908 91.4971 50.1416
C 91.5459 49.6826 91.5703 49.0234 91.5703 48.1641
L 91.5703 44.5459
C 91.5703 43.54 91.5459 42.8369 91.4971 42.4365
C 91.4482 42.0264 91.3408 41.6943 91.1748 41.4404
C 91.0088 41.167 90.8086 40.9717 90.5742 40.8545
C 90.3398 40.7275 90.0029 40.6494 89.5635 40.6201
L 89.5635 40.3271
L 93.3281 39.7998
C 93.4941 40.6885 93.5771 41.4502 93.5771 42.085
Z
M 102.923 44.5312
C 102.884 45.0098 102.864 45.3564 102.864 45.5713
C 102.864 46.4209 102.986 47.251 103.23 48.0615
C 103.484 48.8721 103.826 49.5459 104.256 50.083
C 104.695 50.6299 105.237 51.0596 105.882 51.3721
C 106.536 51.6846 107.22 51.8408 107.933 51.8408
C 108.46 51.8408 108.958 51.7529 109.427 51.5771
C 109.905 51.4014 110.301 51.1572 110.613 50.8447
C 110.965 50.5029 111.268 49.9561 111.521 49.2041
L 111.814 49.3066
C 111.561 50.4492 111.014 51.3135 110.174 51.8994
C 109.344 52.4756 108.235 52.7637 106.849 52.7637
C 105.647 52.7637 104.617 52.5732 103.758 52.1924
C 102.898 51.8115 102.171 51.2256 101.575 50.4346
C 100.745 49.3311 100.33 47.9736 100.33 46.3623
C 100.33 44.165 101.116 42.4414 102.688 41.1914
C 103.831 40.2832 105.135 39.8291 106.6 39.8291
C 107.381 39.8291 108.104 39.9707 108.768 40.2539
C 109.432 40.5273 109.993 40.9277 110.452 41.4551
C 111.165 42.2754 111.521 43.3008 111.521 44.5312
L 102.923 44.5312
Z
M 109.339 43.96
C 109.271 42.9834 109.09 42.2314 108.797 41.7041
C 108.533 41.2256 108.182 40.8496 107.742 40.5762
C 107.303 40.293 106.834 40.1514 106.336 40.1514
C 105.496 40.1514 104.759 40.5127 104.124 41.2354
C 103.499 41.958 103.128 42.8662 103.011 43.96
L 109.339 43.96
Z
M 125.32 51.2695
L 125.335 53.9648
L 125.335 54.9756
C 125.335 55.6396 125.374 56.123 125.452 56.4258
C 125.53 56.7383 125.682 57.002 125.906 57.2168
C 126.18 57.4805 126.683 57.6758 127.415 57.8027
L 127.415 58.0957
L 120.955 58.0957
L 120.955 57.8027
C 121.541 57.7246 121.961 57.6172 122.215 57.4805
C 122.469 57.3438 122.674 57.1045 122.83 56.7627
C 122.938 56.5381 123.011 56.1963 123.05 55.7373
C 123.099 55.2783 123.123 54.624 123.123 53.7744
L 123.123 43.6523
C 123.123 42.5488 122.947 41.7627 122.596 41.2939
C 122.254 40.8252 121.673 40.5908 120.853 40.5908
L 120.853 40.2246
L 125.115 39.624
C 125.223 40.0928 125.276 40.5225 125.276 40.9131
L 125.276 41.1914
C 125.999 40.7031 126.678 40.3564 127.313 40.1514
C 127.947 39.9365 128.636 39.8291 129.378 39.8291
C 130.862 39.8291 132.132 40.2734 133.187 41.1621
C 133.851 41.7285 134.363 42.4365 134.725 43.2861
C 135.086 44.1357 135.267 45.0732 135.267 46.0986
C 135.267 47.1631 135.071 48.1543 134.681 49.0723
C 134.3 49.9902 133.753 50.7471 133.04 51.3428
C 131.927 52.29 130.604 52.7637 129.07 52.7637
C 128.338 52.7637 127.703 52.6562 127.166 52.4414
C 126.639 52.2266 126.023 51.8359 125.32 51.2695
Z
M 125.32 46.4062
C 125.32 47.7539 125.379 48.7695 125.496 49.4531
C 125.613 50.1367 125.823 50.6885 126.126 51.1084
C 126.399 51.4795 126.756 51.7773 127.195 52.002
C 127.645 52.2266 128.099 52.3389 128.558 52.3389
C 129.593 52.3389 130.496 51.8506 131.268 50.874
C 131.736 50.2881 132.098 49.5947 132.352 48.7939
C 132.605 47.9932 132.732 47.1582 132.732 46.2891
C 132.732 45.4492 132.61 44.6289 132.366 43.8281
C 132.132 43.0176 131.8 42.3242 131.37 41.748
C 130.638 40.752 129.744 40.2539 128.689 40.2539
C 128.172 40.2539 127.684 40.3809 127.225 40.6348
C 126.766 40.8887 126.399 41.2354 126.126 41.6748
C 125.823 42.1436 125.613 42.7295 125.496 43.4326
C 125.379 44.126 125.32 45.1172 125.32 46.4062
Z
M 149.095 51.0791
L 149.344 51.2256
C 148.992 52.251 148.187 52.7637 146.927 52.7637
C 146.233 52.7637 145.657 52.5928 145.198 52.251
C 144.896 52.0264 144.583 51.6357 144.261 51.0791
C 143.606 51.665 143.113 52.0508 142.781 52.2363
C 142.146 52.5879 141.409 52.7637 140.569 52.7637
C 139.495 52.7637 138.641 52.5049 138.006 51.9873
C 137.381 51.4697 137.068 50.7715 137.068 49.8926
C 137.068 49.082 137.327 48.4033 137.845 47.8564
C 138.138 47.5537 138.475 47.3145 138.855 47.1387
C 139.236 46.9531 139.788 46.7676 140.511 46.582
C 141.36 46.3672 141.985 46.1865 142.386 46.04
C 142.796 45.8936 143.138 45.7178 143.411 45.5127
C 143.724 45.2881 143.938 45.0244 144.056 44.7217
C 144.173 44.4189 144.231 43.999 144.231 43.4619
C 144.231 42.3193 144.017 41.4844 143.587 40.957
C 143.392 40.7129 143.138 40.5176 142.825 40.3711
C 142.522 40.2246 142.205 40.1514 141.873 40.1514
C 141.473 40.1514 141.116 40.2539 140.804 40.459
C 140.491 40.6641 140.257 40.9473 140.101 41.3086
L 139.734 42.1582
C 139.539 42.6172 139.188 42.8467 138.68 42.8467
C 138.348 42.8467 138.069 42.7393 137.845 42.5244
C 137.62 42.2998 137.508 42.0215 137.508 41.6895
C 137.508 41.1914 137.859 40.7715 138.562 40.4297
C 138.943 40.2539 139.412 40.1123 139.969 40.0049
C 140.535 39.8877 141.087 39.8291 141.624 39.8291
C 142.229 39.8291 142.859 39.9072 143.514 40.0635
C 144.168 40.2197 144.715 40.4199 145.154 40.6641
C 145.789 41.0254 146.185 41.4941 146.341 42.0703
C 146.419 42.3633 146.458 42.8564 146.458 43.5498
L 146.458 48.9697
C 146.458 49.8877 146.497 50.5127 146.575 50.8447
C 146.741 51.5381 147.142 51.8848 147.776 51.8848
C 148.079 51.8848 148.313 51.8311 148.479 51.7236
C 148.655 51.6162 148.86 51.4014 149.095 51.0791
Z
M 144.261 45.3076
C 143.733 45.7471 143.152 46.1328 142.518 46.4648
C 141.805 46.8457 141.312 47.1338 141.038 47.3291
C 140.765 47.5244 140.516 47.7588 140.291 48.0322
C 139.832 48.5986 139.603 49.2578 139.603 50.0098
C 139.603 50.6543 139.778 51.1865 140.13 51.6064
C 140.491 52.0264 140.945 52.2363 141.492 52.2363
C 141.971 52.2363 142.42 52.0898 142.84 51.7969
C 143.27 51.4941 143.592 51.0938 143.807 50.5957
C 144.109 49.9414 144.261 48.9941 144.261 47.7539
L 144.261 45.3076
Z
M 153.548 42.085
C 153.899 41.4697 154.295 41.0059 154.734 40.6934
C 155.545 40.1172 156.468 39.8291 157.503 39.8291
C 158.138 39.8291 158.621 39.9707 158.953 40.2539
C 159.256 40.5078 159.407 40.8203 159.407 41.1914
C 159.407 41.4648 159.314 41.6895 159.129 41.8652
C 158.953 42.041 158.724 42.1289 158.44 42.1289
C 158.108 42.1289 157.82 41.9922 157.576 41.7188
L 157.122 41.2207
C 156.761 40.8398 156.336 40.6494 155.848 40.6494
C 155.184 40.6494 154.666 41.0791 154.295 41.9385
C 153.924 42.7979 153.738 43.9941 153.738 45.5273
L 153.738 48.2666
L 153.753 49.3799
C 153.753 50.0439 153.792 50.5322 153.87 50.8447
C 153.948 51.1475 154.1 51.4014 154.324 51.6064
C 154.598 51.8701 155.101 52.0703 155.833 52.207
L 155.833 52.5
L 149.373 52.5
L 149.373 52.207
C 149.959 52.1289 150.379 52.0215 150.633 51.8848
C 150.887 51.7383 151.092 51.4941 151.248 51.1523
C 151.355 50.9277 151.429 50.5908 151.468 50.1416
C 151.517 49.6826 151.541 49.0234 151.541 48.1641
L 151.541 44.5459
C 151.541 43.54 151.517 42.8369 151.468 42.4365
C 151.419 42.0264 151.312 41.6943 151.146 41.4404
C 150.979 41.167 150.779 40.9717 150.545 40.8545
C 150.311 40.7275 149.974 40.6494 149.534 40.6201
L 149.534 40.3271
L 153.299 39.7998
C 153.465 40.6885 153.548 41.4502 153.548 42.085
Z
M 163.582 40.0488
L 167.317 40.0488
L 167.317 40.6055
L 163.582 40.6055
L 163.582 49.1309
C 163.582 50.1562 163.758 50.8887 164.109 51.3281
C 164.295 51.5723 164.539 51.7627 164.842 51.8994
C 165.145 52.0361 165.472 52.1045 165.823 52.1045
C 166.263 52.1045 166.629 52.0166 166.922 51.8408
C 167.215 51.6553 167.537 51.3232 167.889 50.8447
L 168.108 51.0352
C 167.786 51.6211 167.332 52.0557 166.746 52.3389
C 166.17 52.6221 165.447 52.7637 164.578 52.7637
C 163.426 52.7637 162.586 52.5391 162.059 52.0898
C 161.775 51.8555 161.59 51.5771 161.502 51.2549
C 161.414 50.9229 161.37 50.332 161.37 49.4824
L 161.37 40.6055
L 159.803 40.6055
L 159.803 40.3711
C 160.438 40.166 161.023 39.7705 161.561 39.1846
C 161.883 38.8232 162.142 38.4668 162.337 38.1152
C 162.532 37.7539 162.718 37.29 162.894 36.7236
L 163.04 36.2402
L 163.582 36.2402
L 163.582 40.0488
Z
M 171.741 39.7998
C 171.878 40.3662 171.946 40.8936 171.946 41.3818
L 171.946 41.6162
C 173.157 40.4248 174.598 39.8291 176.268 39.8291
C 177.518 39.8291 178.523 40.1221 179.285 40.708
C 180.037 41.2842 180.413 42.1045 180.413 43.1689
L 180.413 49.3799
C 180.413 50.0439 180.452 50.5322 180.53 50.8447
C 180.608 51.1475 180.76 51.4014 180.984 51.6064
C 181.258 51.8701 181.761 52.0703 182.493 52.207
L 182.493 52.5
L 176.033 52.5
L 176.033 52.207
C 176.619 52.1289 177.039 52.0215 177.293 51.8848
C 177.547 51.7383 177.752 51.4941 177.908 51.1523
C 178.016 50.9277 178.089 50.5908 178.128 50.1416
C 178.177 49.6826 178.201 49.0283 178.201 48.1787
L 178.201 45.0732
C 178.201 44.0088 178.162 43.2275 178.084 42.7295
C 178.016 42.2314 177.879 41.8311 177.674 41.5283
C 177.449 41.1865 177.127 40.9229 176.707 40.7373
C 176.287 40.542 175.823 40.4443 175.315 40.4443
C 174.769 40.4443 174.256 40.5518 173.777 40.7666
C 173.309 40.9814 172.938 41.2744 172.664 41.6455
C 172.371 42.0361 172.176 42.4805 172.078 42.9785
C 171.99 43.4668 171.946 44.2822 171.946 45.4248
L 171.946 48.2959
L 171.961 49.3799
C 171.961 50.0439 172 50.5322 172.078 50.8447
C 172.156 51.1475 172.308 51.4014 172.532 51.6064
C 172.806 51.8701 173.309 52.0703 174.041 52.207
L 174.041 52.5
L 167.581 52.5
L 167.581 52.207
C 168.167 52.1289 168.587 52.0215 168.841 51.8848
C 169.095 51.7383 169.3 51.4941 169.456 51.1523
C 169.563 50.9277 169.637 50.5908 169.676 50.1416
C 169.725 49.6826 169.749 49.0234 169.749 48.1641
L 169.749 44.5459
C 169.749 43.54 169.725 42.8369 169.676 42.4365
C 169.627 42.0264 169.52 41.6943 169.354 41.4404
C 169.188 41.167 168.987 40.9717 168.753 40.8545
C 168.519 40.7275 168.182 40.6494 167.742 40.6201
L 167.742 40.3271
L 171.741 39.7998
Z
M 186.287 44.5312
C 186.248 45.0098 186.229 45.3564 186.229 45.5713
C 186.229 46.4209 186.351 47.251 186.595 48.0615
C 186.849 48.8721 187.19 49.5459 187.62 50.083
C 188.06 50.6299 188.602 51.0596 189.246 51.3721
C 189.9 51.6846 190.584 51.8408 191.297 51.8408
C 191.824 51.8408 192.322 51.7529 192.791 51.5771
C 193.27 51.4014 193.665 51.1572 193.978 50.8447
C 194.329 50.5029 194.632 49.9561 194.886 49.2041
L 195.179 49.3066
C 194.925 50.4492 194.378 51.3135 193.538 51.8994
C 192.708 52.4756 191.6 52.7637 190.213 52.7637
C 189.012 52.7637 187.981 52.5732 187.122 52.1924
C 186.263 51.8115 185.535 51.2256 184.939 50.4346
C 184.109 49.3311 183.694 47.9736 183.694 46.3623
C 183.694 44.165 184.48 42.4414 186.053 41.1914
C 187.195 40.2832 188.499 39.8291 189.964 39.8291
C 190.745 39.8291 191.468 39.9707 192.132 40.2539
C 192.796 40.5273 193.357 40.9277 193.816 41.4551
C 194.529 42.2754 194.886 43.3008 194.886 44.5312
L 186.287 44.5312
Z
M 192.703 43.96
C 192.635 42.9834 192.454 42.2314 192.161 41.7041
C 191.897 41.2256 191.546 40.8496 191.106 40.5762
C 190.667 40.293 190.198 40.1514 189.7 40.1514
C 188.86 40.1514 188.123 40.5127 187.488 41.2354
C 186.863 41.958 186.492 42.8662 186.375 43.96
L 192.703 43.96
Z
M 200.892 42.085
C 201.243 41.4697 201.639 41.0059 202.078 40.6934
C 202.889 40.1172 203.812 39.8291 204.847 39.8291
C 205.481 39.8291 205.965 39.9707 206.297 40.2539
C 206.6 40.5078 206.751 40.8203 206.751 41.1914
C 206.751 41.4648 206.658 41.6895 206.473 41.8652
C 206.297 42.041 206.067 42.1289 205.784 42.1289
C 205.452 42.1289 205.164 41.9922 204.92 41.7188
L 204.466 41.2207
C 204.104 40.8398 203.68 40.6494 203.191 40.6494
C 202.527 40.6494 202.01 41.0791 201.639 41.9385
C 201.268 42.7979 201.082 43.9941 201.082 45.5273
L 201.082 48.2666
L 201.097 49.3799
C 201.097 50.0439 201.136 50.5322 201.214 50.8447
C 201.292 51.1475 201.443 51.4014 201.668 51.6064
C 201.941 51.8701 202.444 52.0703 203.177 52.207
L 203.177 52.5
L 196.717 52.5
L 196.717 52.207
C 197.303 52.1289 197.723 52.0215 197.977 51.8848
C 198.23 51.7383 198.436 51.4941 198.592 51.1523
C 198.699 50.9277 198.772 50.5908 198.812 50.1416
C 198.86 49.6826 198.885 49.0234 198.885 48.1641
L 198.885 44.5459
C 198.885 43.54 198.86 42.8369 198.812 42.4365
C 198.763 42.0264 198.655 41.6943 198.489 41.4404
C 198.323 41.167 198.123 40.9717 197.889 40.8545
C 197.654 40.7275 197.317 40.6494 196.878 40.6201
L 196.878 40.3271
L 200.643 39.7998
C 200.809 40.6885 200.892 41.4502 200.892 42.085
Z
M 208.157 52.5
L 208.157 48.3545
L 208.392 48.3545
C 208.665 49.3701 209.007 50.1807 209.417 50.7861
C 210.169 51.8896 211.048 52.4414 212.054 52.4414
C 212.669 52.4414 213.201 52.2559 213.65 51.8848
C 214.139 51.4746 214.383 50.8936 214.383 50.1416
C 214.383 49.5264 214.207 48.9893 213.855 48.5303
C 213.66 48.2861 213.411 48.0615 213.108 47.8564
C 212.815 47.6514 212.317 47.3633 211.614 46.9922
C 210.384 46.3379 209.563 45.791 209.153 45.3516
C 208.567 44.7266 208.274 44.0039 208.274 43.1836
C 208.274 42.3047 208.567 41.5479 209.153 40.9131
C 209.827 40.1904 210.721 39.8291 211.834 39.8291
C 212.332 39.8291 212.796 39.917 213.226 40.0928
L 213.724 40.3125
C 213.88 40.3711 214.017 40.4004 214.134 40.4004
C 214.319 40.4004 214.495 40.2539 214.661 39.9609
L 214.954 39.9609
L 215.115 43.2861
L 214.808 43.2861
C 214.7 42.8174 214.583 42.4414 214.456 42.1582
C 214.339 41.875 214.168 41.6016 213.943 41.3379
C 213.641 40.9668 213.289 40.6787 212.889 40.4736
C 212.488 40.2588 212.093 40.1514 211.702 40.1514
C 211.155 40.1514 210.687 40.3516 210.296 40.752
C 209.915 41.1426 209.725 41.626 209.725 42.2021
C 209.725 42.6807 209.896 43.1152 210.237 43.5059
C 210.589 43.8867 211.126 44.2383 211.849 44.5605
L 213.401 45.2637
C 214.329 45.6836 215.022 46.2061 215.481 46.8311
C 215.94 47.4561 216.17 48.1934 216.17 49.043
C 216.17 50.0684 215.838 50.918 215.174 51.5918
C 214.412 52.373 213.436 52.7637 212.244 52.7637
C 211.6 52.7637 210.945 52.6367 210.281 52.3828
C 209.852 52.2168 209.593 52.124 209.505 52.1045
C 209.417 52.0752 209.305 52.0605 209.168 52.0605
C 208.826 52.0605 208.567 52.207 208.392 52.5
L 208.157 52.5
Z"/>
</defs>
</svg>
