<svg width="520" height="520" version="2.0" xmlns="http://www.w3.org/2000/svg" xmlns:xlink="http://www.w3.org/1999/xlink" xmlns:figma="http://www.figma.com/figma/ns">
<title>Group2</title>
<desc>Created using Figma (9000)</desc>
<g id="Canvas" transform="translate(-4033 -1841)" figma:type="canvas">
<g id="Group2" style="mix-blend-mode:normal;" figma:type="group">
<g id="Rectangle" style="mix-blend-mode:normal;" filter="url(#filter0_d)" figma:type="vector">
<use xlink:href="#path0_fill" transform="matrix(1 0 0 1 4033 1841)" fill="url(#paint0_linear)" style="mix-blend-mode:normal;"/>
</g>
<g id="qvp" style="mix-blend-mode:normal;" figma:type="text">
<use xlink:href="#path1_fill" transform="translate(4033 1928)" fill="#FFFFFF" style="mix-blend-mode:normal;"/>
</g>
</g>
</g>
<defs>
<filter id="filter0_d" filterUnits="userSpaceOnUse" x="4033" y="1841" width="520" height="520" color-interpolation-filters="sRGB">
<feFlood flood-opacity="0" result="BackgroundImageFix"/>
<desc>type="dropShadow" x="10" y="10" size="10" spread="0" color="0,0,0,0.25" blend="normal"</desc>
<feColorMatrix in="SourceAlpha" type="matrix" values="0 0 0 0 0 0 0 0 0 0 0 0 0 0 0 0 0 0 255 0"/>
<feOffset dx="10" dy="10"/>
<feGaussianBlur stdDeviation="5"/>
<feColorMatrix type="matrix" values="0 0 0 0 0 0 0 0 0 0 0 0 0 0 0 0 0 0 0.25 0"/>
<feBlend mode="normal" in2="BackgroundImageFix" result="effect1_dropShadow"/>
<feBlend mode="normal" in="SourceGraphic" in2="effect1_dropShadow" result="shape"/>
</filter>
<linearGradient id="paint0_linear" x1="0" y1="0" x2="1" y2="0" gradientUnits="userSpaceOnUse" gradientTransform="matrix(500 -500 194.939 371.476 -97.4696 314.262)">
<stop offset="0" stop-color="#1A0E29" figma:i="c"/>
<stop offset="0.15" stop-color="#1A0E29" figma:i="a"/>
<stop offset="0.627778" stop-color="#702446" figma:i="c"/>
<stop offset="0.75" stop-color="#86294D" figma:i="c"/>
<stop offset="0.955556" stop-color="#AB335A" figma:i="c"/>
<stop offset="1" stop-color="#B3355D"/>
</linearGradient>
<path id="path0_fill" d="
M 0 0
L 500 0
L 500 500
L 0 500
L 0 0
Z"/>
<path id="path1_fill" d="
M 176.819 116.857
L 176.819 246.13
C 176.819 251.664 177.144 255.692 177.795 258.215
C 178.446 260.819 179.708 263.016 181.58 264.807
C 183.858 267.004 188.09 268.632 194.275 269.689
L 194.275 272.131
L 140.32 272.131
L 140.32 269.689
C 145.203 269.038 148.702 268.143 150.818 267.004
C 152.934 265.865 154.643 263.871 155.945 261.022
C 156.84 259.151 157.491 256.302 157.898 252.478
C 158.305 248.653 158.508 243.2 158.508 236.12
L 158.508 212.438
C 155.09 216.67 151.794 219.763 148.621 221.716
C 142.436 225.703 134.989 227.697 126.282 227.697
C 113.912 227.697 103.129 223.791 93.9331 215.979
C 82.6213 206.213 76.9653 192.541 76.9653 174.963
C 76.9653 158.28 81.7668 144.934 91.3696 134.924
C 101.054 124.914 113.993 119.909 130.188 119.909
C 136.861 119.909 142.639 120.967 147.522 123.083
L 153.87 125.891
C 155.416 126.542 156.881 126.867 158.264 126.867
C 162.496 126.867 166.199 123.531 169.373 116.857
L 176.819 116.857
Z
M 158.508 175.451
C 158.508 166.662 158.02 158.646 157.043 151.403
C 156.067 144.079 154.806 138.749 153.259 135.412
C 151.306 131.343 148.499 128.21 144.836 126.013
C 141.174 123.734 136.943 122.595 132.141 122.595
C 122.701 122.595 114.889 126.826 108.704 135.29
C 105.367 139.847 102.763 145.422 100.891 152.014
C 99.0194 158.524 98.0835 165.441 98.0835 172.766
C 98.0835 180.415 99.1414 187.699 101.257 194.616
C 103.373 201.452 106.384 207.312 110.291 212.194
C 113.383 216.182 116.76 219.234 120.422 221.35
C 124.166 223.384 127.991 224.401 131.897 224.401
C 136.617 224.401 140.971 222.977 144.958 220.129
C 149.028 217.199 152.079 213.374 154.114 208.654
C 157.043 201.9 158.508 190.832 158.508 175.451
Z
M 194.275 121.74
L 241.516 121.74
L 241.516 124.304
C 237.935 125.036 235.494 125.85 234.192 126.745
C 231.588 128.373 230.286 130.977 230.286 134.558
C 230.286 136.755 230.693 139.318 231.506 142.248
C 232.32 145.178 233.826 149.45 236.023 155.065
L 255.798 205.236
L 275.696 152.99
C 278.625 145.259 280.09 139.522 280.09 135.778
C 280.09 131.709 278.829 128.739 276.306 126.867
C 275.004 125.891 272.603 125.036 269.104 124.304
L 269.104 121.74
L 302.795 121.74
L 302.795 124.304
C 298.238 125.443 294.576 127.478 291.809 130.407
C 288.31 134.069 284.281 141.76 279.724 153.479
L 251.526 225.5
L 244.934 225.5
L 214.294 149.816
C 209.574 138.179 206.197 131.14 204.163 128.698
C 203.023 127.396 201.762 126.46 200.378 125.891
C 198.995 125.24 196.96 124.711 194.275 124.304
L 194.275 121.74
Z
M 340.027 215.246
L 340.149 237.707
L 340.149 246.13
C 340.149 251.664 340.474 255.692 341.125 258.215
C 341.777 260.819 343.038 263.016 344.91 264.807
C 347.188 267.004 351.379 268.632 357.483 269.689
L 357.483 272.131
L 303.65 272.131
L 303.65 269.689
C 308.533 269.038 312.032 268.143 314.148 267.004
C 316.264 265.865 317.973 263.871 319.275 261.022
C 320.17 259.151 320.78 256.302 321.106 252.478
C 321.513 248.653 321.716 243.2 321.716 236.12
L 321.716 151.77
C 321.716 142.574 320.251 136.022 317.322 132.116
C 314.473 128.21 309.631 126.257 302.795 126.257
L 302.795 123.205
L 338.318 118.2
C 339.213 122.106 339.661 125.687 339.661 128.942
L 339.661 131.262
C 345.683 127.193 351.339 124.304 356.628 122.595
C 361.918 120.804 367.655 119.909 373.84 119.909
C 386.21 119.909 396.79 123.612 405.579 131.018
C 411.112 135.738 415.385 141.638 418.396 148.718
C 421.407 155.798 422.913 163.61 422.913 172.155
C 422.913 181.026 421.285 189.286 418.03 196.936
C 414.856 204.585 410.299 210.892 404.358 215.856
C 395.081 223.75 384.054 227.697 371.277 227.697
C 365.173 227.697 359.884 226.802 355.408 225.012
C 351.013 223.221 345.886 219.966 340.027 215.246
Z
M 340.027 174.719
C 340.027 185.949 340.515 194.413 341.492 200.109
C 342.468 205.806 344.218 210.404 346.741 213.903
C 349.019 216.996 351.99 219.478 355.652 221.35
C 359.395 223.221 363.18 224.157 367.004 224.157
C 375.631 224.157 383.158 220.088 389.587 211.95
C 393.494 207.067 396.505 201.289 398.621 194.616
C 400.736 187.943 401.794 180.985 401.794 173.742
C 401.794 166.743 400.777 159.908 398.743 153.234
C 396.79 146.48 394.023 140.702 390.442 135.9
C 384.338 127.6 376.892 123.449 368.103 123.449
C 363.79 123.449 359.721 124.507 355.896 126.623
C 352.071 128.739 349.019 131.628 346.741 135.29
C 344.218 139.196 342.468 144.079 341.492 149.938
C 340.515 155.716 340.027 163.977 340.027 174.719
Z"/>
</defs>
</svg>
