<svg width="965" height="594" version="2.0" xmlns="http://www.w3.org/2000/svg" xmlns:xlink="http://www.w3.org/1999/xlink" xmlns:figma="http://www.figma.com/figma/ns">
<title>Group</title>
<desc>Created using Figma (9000)</desc>
<g id="Canvas" transform="translate(-2783 384)" figma:type="canvas">
<g id="Group" style="mix-blend-mode:normal;" figma:type="group">
<g id="config_left" style="mix-blend-mode:normal;" figma:type="group">
<g id="Group" style="mix-blend-mode:normal;" figma:type="group">
<g id="Ellipse" style="mix-blend-mode:normal;" figma:type="ellipse">
<use xlink:href="#path0_fill" transform="matrix(-1 -1.22465e-16 1.22465e-16 -1 2932 86.75)" fill="#FFFFFF" fill-opacity="0.2" style="mix-blend-mode:normal;"/>
</g>
<g id="Ellipse 2" style="mix-blend-mode:normal;" figma:type="ellipse">
<use xlink:href="#path2_stroke" transform="matrix(-1 -1.22465e-16 1.22465e-16 -1 2941.5 96.25)" fill="#FFFFFF" fill-opacity="0.2" style="mix-blend-mode:normal;"/>
</g>
</g>
<g id="Group" style="mix-blend-mode:normal;" figma:type="group">
<g id="Ellipse" style="mix-blend-mode:normal;" figma:type="ellipse">
<use xlink:href="#path0_fill" transform="matrix(-1 -1.22465e-16 1.22465e-16 -1 2933 -42.25)" fill="#FFFFFF" fill-opacity="0.2" style="mix-blend-mode:normal;"/>
</g>
<g id="Ellipse 2" style="mix-blend-mode:normal;" figma:type="ellipse">
<use xlink:href="#path2_stroke" transform="matrix(-1 -1.22465e-16 1.22465e-16 -1 2942.5 -32.75)" fill="#FFFFFF" fill-opacity="0.2" style="mix-blend-mode:normal;"/>
</g>
</g>
<g id="Group" style="mix-blend-mode:normal;" figma:type="group">
<g id="Ellipse" style="mix-blend-mode:normal;" figma:type="ellipse">
<use xlink:href="#path0_fill" transform="matrix(-1 -1.22465e-16 1.22465e-16 -1 2846 179.25)" fill="#FFFFFF" fill-opacity="0.2" style="mix-blend-mode:normal;"/>
</g>
<g id="Ellipse 2" style="mix-blend-mode:normal;" figma:type="ellipse">
<use xlink:href="#path2_stroke" transform="matrix(-1 -1.22465e-16 1.22465e-16 -1 2855.5 188.75)" fill="#FFFFFF" fill-opacity="0.2" style="mix-blend-mode:normal;"/>
</g>
</g>
<g id="Group" style="mix-blend-mode:normal;" figma:type="group">
<g id="Ellipse" style="mix-blend-mode:normal;" figma:type="ellipse">
<use xlink:href="#path0_fill" transform="matrix(-1 -1.22465e-16 1.22465e-16 -1 2814.5 23.5)" fill="#FFFFFF" fill-opacity="0.2" style="mix-blend-mode:normal;"/>
</g>
<g id="Ellipse 2" style="mix-blend-mode:normal;" figma:type="ellipse">
<use xlink:href="#path2_stroke" transform="matrix(-1 -1.22465e-16 1.22465e-16 -1 2824 33)" fill="#FFFFFF" fill-opacity="0.2" style="mix-blend-mode:normal;"/>
</g>
</g>
<g id="Group" style="mix-blend-mode:normal;" figma:type="group">
<g id="Ellipse" style="mix-blend-mode:normal;" figma:type="ellipse">
<use xlink:href="#path0_fill" transform="matrix(-1 -1.22465e-16 1.22465e-16 -1 2847 -135.25)" fill="#FFFFFF" fill-opacity="0.2" style="mix-blend-mode:normal;"/>
</g>
<g id="Ellipse 2" style="mix-blend-mode:normal;" figma:type="ellipse">
<use xlink:href="#path2_stroke" transform="matrix(-1 -1.22465e-16 1.22465e-16 -1 2856.5 -125.75)" fill="#FFFFFF" fill-opacity="0.2" style="mix-blend-mode:normal;"/>
</g>
</g>
<g id="Group" style="mix-blend-mode:normal;" figma:type="group">
<g id="Ellipse" style="mix-blend-mode:normal;" figma:type="ellipse">
<use xlink:href="#path0_fill" transform="matrix(-1 -1.22465e-16 1.22465e-16 -1 3143.5 199.75)" fill="#FFFFFF" fill-opacity="0.2" style="mix-blend-mode:normal;"/>
</g>
<g id="Ellipse 2" style="mix-blend-mode:normal;" figma:type="ellipse">
<use xlink:href="#path2_stroke" transform="matrix(-1 -1.22465e-16 1.22465e-16 -1 3153 209.25)" fill="#FFFFFF" fill-opacity="0.2" style="mix-blend-mode:normal;"/>
</g>
</g>
<g id="Group" style="mix-blend-mode:normal;" figma:type="group">
<g id="Ellipse" style="mix-blend-mode:normal;" figma:type="ellipse">
<use xlink:href="#path0_fill" transform="matrix(-1 -1.22465e-16 1.22465e-16 -1 2994.75 190.25)" fill="#FFFFFF" fill-opacity="0.2" style="mix-blend-mode:normal;"/>
</g>
<g id="Ellipse 2" style="mix-blend-mode:normal;" figma:type="ellipse">
<use xlink:href="#path2_stroke" transform="matrix(-1 -1.22465e-16 1.22465e-16 -1 3004.25 199.75)" fill="#FFFFFF" fill-opacity="0.2" style="mix-blend-mode:normal;"/>
</g>
</g>
<g id="Line 2" style="mix-blend-mode:normal;" figma:type="line">
<use xlink:href="#path3_stroke" transform="matrix(-0.996136 -0.0878271 0.0878271 -0.996136 3112 188.75)" fill="#FFFFFF" fill-opacity="0.2" style="mix-blend-mode:normal;"/>
</g>
<g id="Line 2" style="mix-blend-mode:normal;" figma:type="line">
<use xlink:href="#path4_stroke" transform="matrix(0.994829 0.101559 -0.101559 0.994829 2855.5 168.25)" fill="#FFFFFF" fill-opacity="0.2" style="mix-blend-mode:normal;"/>
</g>
<g id="Line 2" style="mix-blend-mode:normal;" figma:type="line">
<use xlink:href="#path5_stroke" transform="matrix(0.483328 0.87544 -0.87544 0.483328 2933 93.25)" fill="#FFFFFF" fill-opacity="0.2" style="mix-blend-mode:normal;"/>
</g>
<g id="Line 2" style="mix-blend-mode:normal;" figma:type="line">
<use xlink:href="#path6_stroke" transform="matrix(-0.656035 0.754731 -0.754731 -0.656035 2904.5 87.75)" fill="#FFFFFF" fill-opacity="0.2" style="mix-blend-mode:normal;"/>
</g>
<g id="Line 2" style="mix-blend-mode:normal;" figma:type="line">
<use xlink:href="#path7_stroke" transform="matrix(0.171703 0.985149 -0.985149 0.171703 2809 33)" fill="#FFFFFF" fill-opacity="0.2" style="mix-blend-mode:normal;"/>
</g>
<g id="Line 2" style="mix-blend-mode:normal;" figma:type="line">
<use xlink:href="#path8_stroke" transform="matrix(-0.361913 0.932212 -0.932212 -0.361913 2910.38 -38.75)" fill="#FFFFFF" fill-opacity="0.2" style="mix-blend-mode:normal;"/>
</g>
<g id="Line 2" style="mix-blend-mode:normal;" figma:type="line">
<use xlink:href="#path9_stroke" transform="matrix(-0.861806 0.507239 -0.507239 -0.861806 2904.38 -48.75)" fill="#FFFFFF" fill-opacity="0.2" style="mix-blend-mode:normal;"/>
</g>
<g id="Line 2" style="mix-blend-mode:normal;" figma:type="line">
<use xlink:href="#path10_stroke" transform="matrix(-0.331784 -0.943356 0.943356 -0.331784 2911 61.75)" fill="#FFFFFF" fill-opacity="0.2" style="mix-blend-mode:normal;"/>
</g>
<g id="Line 2" style="mix-blend-mode:normal;" figma:type="line">
<use xlink:href="#path11_stroke" transform="matrix(0.20274 -0.979233 0.979233 0.20274 2809 -8)" fill="#FFFFFF" fill-opacity="0.2" style="mix-blend-mode:normal;"/>
</g>
<g id="Line 2" style="mix-blend-mode:normal;" figma:type="line">
<use xlink:href="#path12_stroke" transform="matrix(-5.26784e-15 1 -1 -5.26784e-15 2921 -33.25)" fill="#FFFFFF" fill-opacity="0.2" style="mix-blend-mode:normal;"/>
</g>
</g>
<g id="config_right" style="mix-blend-mode:normal;" figma:type="group">
<g id="Group" style="mix-blend-mode:normal;" figma:type="group">
<g id="Ellipse" style="mix-blend-mode:normal;" figma:type="ellipse">
<use xlink:href="#path0_fill" transform="matrix(1 5.34378e-24 -5.34378e-24 1 3599 -261.5)" fill="#FFFFFF" fill-opacity="0.2" style="mix-blend-mode:normal;"/>
</g>
<g id="Ellipse 2" style="mix-blend-mode:normal;" figma:type="ellipse">
<use xlink:href="#path2_stroke" transform="matrix(1 5.34378e-24 -5.34378e-24 1 3589.5 -271)" fill="#FFFFFF" fill-opacity="0.2" style="mix-blend-mode:normal;"/>
</g>
</g>
<g id="Group" style="mix-blend-mode:normal;" figma:type="group">
<g id="Ellipse" style="mix-blend-mode:normal;" figma:type="ellipse">
<use xlink:href="#path0_fill" transform="matrix(1 5.34378e-24 -5.34378e-24 1 3598 -132.5)" fill="#FFFFFF" fill-opacity="0.2" style="mix-blend-mode:normal;"/>
</g>
<g id="Ellipse 2" style="mix-blend-mode:normal;" figma:type="ellipse">
<use xlink:href="#path2_stroke" transform="matrix(1 5.34378e-24 -5.34378e-24 1 3588.5 -142)" fill="#FFFFFF" fill-opacity="0.2" style="mix-blend-mode:normal;"/>
</g>
</g>
<g id="Group" style="mix-blend-mode:normal;" figma:type="group">
<g id="Ellipse" style="mix-blend-mode:normal;" figma:type="ellipse">
<use xlink:href="#path0_fill" transform="matrix(1 5.34378e-24 -5.34378e-24 1 3685 -354)" fill="#FFFFFF" fill-opacity="0.2" style="mix-blend-mode:normal;"/>
</g>
<g id="Ellipse 2" style="mix-blend-mode:normal;" figma:type="ellipse">
<use xlink:href="#path2_stroke" transform="matrix(1 5.34378e-24 -5.34378e-24 1 3675.5 -363.5)" fill="#FFFFFF" fill-opacity="0.2" style="mix-blend-mode:normal;"/>
</g>
</g>
<g id="Group" style="mix-blend-mode:normal;" figma:type="group">
<g id="Ellipse" style="mix-blend-mode:normal;" figma:type="ellipse">
<use xlink:href="#path0_fill" transform="matrix(1 5.34378e-24 -5.34378e-24 1 3716.5 -198.25)" fill="#FFFFFF" fill-opacity="0.2" style="mix-blend-mode:normal;"/>
</g>
<g id="Ellipse 2" style="mix-blend-mode:normal;" figma:type="ellipse">
<use xlink:href="#path2_stroke" transform="matrix(1 5.34378e-24 -5.34378e-24 1 3707 -207.75)" fill="#FFFFFF" fill-opacity="0.2" style="mix-blend-mode:normal;"/>
</g>
</g>
<g id="Group" style="mix-blend-mode:normal;" figma:type="group">
<g id="Ellipse" style="mix-blend-mode:normal;" figma:type="ellipse">
<use xlink:href="#path0_fill" transform="matrix(1 5.34378e-24 -5.34378e-24 1 3684 -39.5)" fill="#FFFFFF" fill-opacity="0.2" style="mix-blend-mode:normal;"/>
</g>
<g id="Ellipse 2" style="mix-blend-mode:normal;" figma:type="ellipse">
<use xlink:href="#path2_stroke" transform="matrix(1 5.34378e-24 -5.34378e-24 1 3674.5 -49)" fill="#FFFFFF" fill-opacity="0.2" style="mix-blend-mode:normal;"/>
</g>
</g>
<g id="Group" style="mix-blend-mode:normal;" figma:type="group">
<g id="Ellipse" style="mix-blend-mode:normal;" figma:type="ellipse">
<use xlink:href="#path0_fill" transform="matrix(1 5.34378e-24 -5.34378e-24 1 3387.5 -374.5)" fill="#FFFFFF" fill-opacity="0.2" style="mix-blend-mode:normal;"/>
</g>
<g id="Ellipse 2" style="mix-blend-mode:normal;" figma:type="ellipse">
<use xlink:href="#path2_stroke" transform="matrix(1 5.34378e-24 -5.34378e-24 1 3378 -384)" fill="#FFFFFF" fill-opacity="0.2" style="mix-blend-mode:normal;"/>
</g>
</g>
<g id="Group" style="mix-blend-mode:normal;" figma:type="group">
<g id="Ellipse" style="mix-blend-mode:normal;" figma:type="ellipse">
<use xlink:href="#path0_fill" transform="matrix(1 5.34378e-24 -5.34378e-24 1 3536.25 -365)" fill="#FFFFFF" fill-opacity="0.2" style="mix-blend-mode:normal;"/>
</g>
<g id="Ellipse 2" style="mix-blend-mode:normal;" figma:type="ellipse">
<use xlink:href="#path2_stroke" transform="matrix(1 5.34378e-24 -5.34378e-24 1 3526.75 -374.5)" fill="#FFFFFF" fill-opacity="0.2" style="mix-blend-mode:normal;"/>
</g>
</g>
<g id="Line 2" style="mix-blend-mode:normal;" figma:type="line">
<use xlink:href="#path3_stroke" transform="matrix(0.996136 0.0878271 -0.0878271 0.996136 3419 -363.5)" fill="#FFFFFF" fill-opacity="0.2" style="mix-blend-mode:normal;"/>
</g>
<g id="Line 2" style="mix-blend-mode:normal;" figma:type="line">
<use xlink:href="#path4_stroke" transform="matrix(-0.994829 -0.101559 0.101559 -0.994829 3675.5 -343)" fill="#FFFFFF" fill-opacity="0.2" style="mix-blend-mode:normal;"/>
</g>
<g id="Line 2" style="mix-blend-mode:normal;" figma:type="line">
<use xlink:href="#path5_stroke" transform="matrix(-0.483328 -0.87544 0.87544 -0.483328 3598 -268)" fill="#FFFFFF" fill-opacity="0.2" style="mix-blend-mode:normal;"/>
</g>
<g id="Line 2" style="mix-blend-mode:normal;" figma:type="line">
<use xlink:href="#path6_stroke" transform="matrix(0.656035 -0.754731 0.754731 0.656035 3626.5 -262.5)" fill="#FFFFFF" fill-opacity="0.2" style="mix-blend-mode:normal;"/>
</g>
<g id="Line 2" style="mix-blend-mode:normal;" figma:type="line">
<use xlink:href="#path7_stroke" transform="matrix(-0.171703 -0.985149 0.985149 -0.171703 3722 -207.75)" fill="#FFFFFF" fill-opacity="0.2" style="mix-blend-mode:normal;"/>
</g>
<g id="Line 2" style="mix-blend-mode:normal;" figma:type="line">
<use xlink:href="#path8_stroke" transform="matrix(0.361913 -0.932212 0.932212 0.361913 3620.62 -136)" fill="#FFFFFF" fill-opacity="0.2" style="mix-blend-mode:normal;"/>
</g>
<g id="Line 2" style="mix-blend-mode:normal;" figma:type="line">
<use xlink:href="#path9_stroke" transform="matrix(0.861806 -0.507239 0.507239 0.861806 3626.62 -126)" fill="#FFFFFF" fill-opacity="0.2" style="mix-blend-mode:normal;"/>
</g>
<g id="Line 2" style="mix-blend-mode:normal;" figma:type="line">
<use xlink:href="#path10_stroke" transform="matrix(0.331784 0.943356 -0.943356 0.331784 3620 -236.5)" fill="#FFFFFF" fill-opacity="0.2" style="mix-blend-mode:normal;"/>
</g>
<g id="Line 2" style="mix-blend-mode:normal;" figma:type="line">
<use xlink:href="#path11_stroke" transform="matrix(-0.20274 0.979233 -0.979233 -0.20274 3722 -166.75)" fill="#FFFFFF" fill-opacity="0.2" style="mix-blend-mode:normal;"/>
</g>
<g id="Line 2" style="mix-blend-mode:normal;" figma:type="line">
<use xlink:href="#path12_stroke" transform="matrix(5.14537e-15 -1 1 5.14537e-15 3610 -141.5)" fill="#FFFFFF" fill-opacity="0.2" style="mix-blend-mode:normal;"/>
</g>
</g>
<g id="Q_v" style="mix-blend-mode:normal;" filter="url(#filter0_d)" figma:type="group">
<g id="qvp" style="mix-blend-mode:normal;" figma:type="text">
<use xlink:href="#path13_fill" transform="translate(3014.5 -334)" fill="#FFFFFF" style="mix-blend-mode:normal;"/>
</g>
<g id="Developing revolutionary ideas into industrial revolutions" style="mix-blend-mode:normal;" figma:type="text">
<use xlink:href="#path14_fill" transform="translate(2915.5 -7.5)" fill="#FFFFFF" style="mix-blend-mode:normal;"/>
</g>
</g>
</g>
</g>
<defs>
<filter id="filter0_d" filterUnits="userSpaceOnUse" x="2984.95" y="-217.143" width="580.855" height="301.393" color-interpolation-filters="sRGB">
<feFlood flood-opacity="0" result="BackgroundImageFix"/>
<desc>type="dropShadow" x="6" y="6" size="6" spread="0" color="0,0,0,0.25" blend="normal"</desc>
<feColorMatrix in="SourceAlpha" type="matrix" values="0 0 0 0 0 0 0 0 0 0 0 0 0 0 0 0 0 0 255 0"/>
<feOffset dx="6" dy="6"/>
<feGaussianBlur stdDeviation="3"/>
<feColorMatrix type="matrix" values="0 0 0 0 0 0 0 0 0 0 0 0 0 0 0 0 0 0 0.25 0"/>
<feBlend mode="normal" in2="BackgroundImageFix" result="effect1_dropShadow"/>
<feBlend mode="normal" in="SourceGraphic" in2="effect1_dropShadow" result="shape"/>
</filter>
<path id="path0_fill" d="
M 22 11
C 22 17.0751 17.0751 22 11 22
C 4.92487 22 0 17.0751 0 11
C 0 4.92487 4.92487 0 11 0
C 17.0751 0 22 4.92487 22 11
Z"/>
<path id="path1_fill" d="
M 41 20.5
C 41 31.8218 31.8218 41 20.5 41
C 9.17816 41 0 31.8218 0 20.5
C 0 9.17816 9.17816 0 20.5 0
C 31.8218 0 41 9.17816 41 20.5
Z"/>
<path id="path2_stroke" d="
M 20.5 41
C 31.8218 41 41 31.8218 41 20.5
C 41 9.17816 31.8218 0 20.5 0
C 9.17816 0 0 9.17816 0 20.5
C 0 31.8218 9.17816 41 20.5 41
Z
M 20.5 38
C 10.835 38 3 30.165 3 20.5
C 3 10.835 10.835 3 20.5 3
C 30.165 3 38 10.835 38 20.5
C 38 30.165 30.165 38 20.5 38
Z"/>
<path id="path3_stroke" d="
M 1.5 -3
L 0 -3
L 0 0
L 1.5 0
L 1.5 -3
Z
M 106.667 0
L 108.167 0
L 108.167 -3
L 106.667 -3
L 106.667 0
Z
M 1.5 0
L 106.667 0
L 106.667 -3
L 1.5 -3
L 1.5 0
Z"/>
<path id="path4_stroke" d="
M 1.5 -3
L 0 -3
L 0 0
L 1.5 0
L 1.5 -3
Z
M 106.811 0
L 108.311 0
L 108.311 -3
L 106.811 -3
L 106.811 0
Z
M 1.5 0
L 106.811 0
L 106.811 -3
L 1.5 -3
L 1.5 0
Z"/>
<path id="path5_stroke" d="
M 1.5 -3
L 0 -3
L 0 0
L 1.5 0
L 1.5 -3
Z
M 80.7444 0
L 82.2444 0
L 82.2444 -3
L 80.7444 -3
L 80.7444 0
Z
M 1.5 0
L 80.7444 0
L 80.7444 -3
L 1.5 -3
L 1.5 0
Z"/>
<path id="path6_stroke" d="
M 1.5 -3
L 0 -3
L 0 0
L 1.5 0
L 1.5 -3
Z
M 84.6235 0
L 86.1235 0
L 86.1235 -3
L 84.6235 -3
L 84.6235 0
Z
M 1.5 0
L 84.6235 0
L 84.6235 -3
L 1.5 -3
L 1.5 0
Z"/>
<path id="path7_stroke" d="
M 1.5 -3
L 0 -3
L 0 0
L 1.5 0
L 1.5 -3
Z
M 114.98 0
L 116.48 0
L 116.48 -3
L 114.98 -3
L 114.98 0
Z
M 1.5 0
L 114.98 0
L 114.98 -3
L 1.5 -3
L 1.5 0
Z"/>
<path id="path8_stroke" d="
M 1.5 -3
L 0 -3
L 0 0
L 1.5 0
L 1.5 -3
Z
M 201.244 0
L 202.744 0
L 202.744 -3
L 201.244 -3
L 201.244 0
Z
M 1.5 0
L 201.244 0
L 201.244 -3
L 1.5 -3
L 1.5 0
Z"/>
<path id="path9_stroke" d="
M 1.5 -3
L 0 -3
L 0 0
L 1.5 0
L 1.5 -3
Z
M 97.5658 0
L 99.0658 0
L 99.0658 -3
L 97.5658 -3
L 97.5658 0
Z
M 1.5 0
L 97.5658 0
L 97.5658 -3
L 1.5 -3
L 1.5 0
Z"/>
<path id="path10_stroke" d="
M 1.5 -3
L 0 -3
L 0 0
L 1.5 0
L 1.5 -3
Z
M 200.439 0
L 201.939 0
L 201.939 -3
L 200.439 -3
L 200.439 0
Z
M 1.5 0
L 200.439 0
L 200.439 -3
L 1.5 -3
L 1.5 0
Z"/>
<path id="path11_stroke" d="
M 1.5 -3
L 0 -3
L 0 0
L 1.5 0
L 1.5 -3
Z
M 121.811 0
L 123.311 0
L 123.311 -3
L 121.811 -3
L 121.811 0
Z
M 1.5 0
L 121.811 0
L 121.811 -3
L 1.5 -3
L 1.5 0
Z"/>
<path id="path12_stroke" d="
M 1.5 -3
L 0 -3
L 0 0
L 1.5 0
L 1.5 -3
Z
M 87.5 0
L 89 0
L 89 -3
L 87.5 -3
L 87.5 0
Z
M 1.5 0
L 87.5 0
L 87.5 -3
L 1.5 -3
L 1.5 0
Z"/>
<path id="path13_fill" d="
M 179.319 116.857
L 179.319 246.13
C 179.319 251.664 179.644 255.692 180.295 258.215
C 180.946 260.819 182.208 263.016 184.08 264.807
C 186.358 267.004 190.59 268.632 196.775 269.689
L 196.775 272.131
L 142.82 272.131
L 142.82 269.689
C 147.703 269.038 151.202 268.143 153.318 267.004
C 155.434 265.865 157.143 263.871 158.445 261.022
C 159.34 259.151 159.991 256.302 160.398 252.478
C 160.805 248.653 161.008 243.2 161.008 236.12
L 161.008 212.438
C 157.59 216.67 154.294 219.763 151.121 221.716
C 144.936 225.703 137.489 227.697 128.782 227.697
C 116.412 227.697 105.629 223.791 96.4331 215.979
C 85.1213 206.213 79.4653 192.541 79.4653 174.963
C 79.4653 158.28 84.2668 144.934 93.8696 134.924
C 103.554 124.914 116.493 119.909 132.688 119.909
C 139.361 119.909 145.139 120.967 150.022 123.083
L 156.37 125.891
C 157.916 126.542 159.381 126.867 160.764 126.867
C 164.996 126.867 168.699 123.531 171.873 116.857
L 179.319 116.857
Z
M 161.008 175.451
C 161.008 166.662 160.52 158.646 159.543 151.403
C 158.567 144.079 157.306 138.749 155.759 135.412
C 153.806 131.343 150.999 128.21 147.336 126.013
C 143.674 123.734 139.443 122.595 134.641 122.595
C 125.201 122.595 117.389 126.826 111.204 135.29
C 107.867 139.847 105.263 145.422 103.391 152.014
C 101.519 158.524 100.583 165.441 100.583 172.766
C 100.583 180.415 101.641 187.699 103.757 194.616
C 105.873 201.452 108.884 207.312 112.791 212.194
C 115.883 216.182 119.26 219.234 122.922 221.35
C 126.666 223.384 130.491 224.401 134.397 224.401
C 139.117 224.401 143.471 222.977 147.458 220.129
C 151.528 217.199 154.579 213.374 156.614 208.654
C 159.543 201.9 161.008 190.832 161.008 175.451
Z
M 196.775 121.74
L 244.016 121.74
L 244.016 124.304
C 240.435 125.036 237.994 125.85 236.692 126.745
C 234.088 128.373 232.786 130.977 232.786 134.558
C 232.786 136.755 233.193 139.318 234.006 142.248
C 234.82 145.178 236.326 149.45 238.523 155.065
L 258.298 205.236
L 278.196 152.99
C 281.125 145.259 282.59 139.522 282.59 135.778
C 282.59 131.709 281.329 128.739 278.806 126.867
C 277.504 125.891 275.103 125.036 271.604 124.304
L 271.604 121.74
L 305.295 121.74
L 305.295 124.304
C 300.738 125.443 297.076 127.478 294.309 130.407
C 290.81 134.069 286.781 141.76 282.224 153.479
L 254.026 225.5
L 247.434 225.5
L 216.794 149.816
C 212.074 138.179 208.697 131.14 206.663 128.698
C 205.523 127.396 204.262 126.46 202.878 125.891
C 201.495 125.24 199.46 124.711 196.775 124.304
L 196.775 121.74
Z
M 342.527 215.246
L 342.649 237.707
L 342.649 246.13
C 342.649 251.664 342.974 255.692 343.625 258.215
C 344.277 260.819 345.538 263.016 347.41 264.807
C 349.688 267.004 353.879 268.632 359.983 269.689
L 359.983 272.131
L 306.15 272.131
L 306.15 269.689
C 311.033 269.038 314.532 268.143 316.648 267.004
C 318.764 265.865 320.473 263.871 321.775 261.022
C 322.67 259.151 323.28 256.302 323.606 252.478
C 324.013 248.653 324.216 243.2 324.216 236.12
L 324.216 151.77
C 324.216 142.574 322.751 136.022 319.822 132.116
C 316.973 128.21 312.131 126.257 305.295 126.257
L 305.295 123.205
L 340.818 118.2
C 341.713 122.106 342.161 125.687 342.161 128.942
L 342.161 131.262
C 348.183 127.193 353.839 124.304 359.128 122.595
C 364.418 120.804 370.155 119.909 376.34 119.909
C 388.71 119.909 399.29 123.612 408.079 131.018
C 413.612 135.738 417.885 141.638 420.896 148.718
C 423.907 155.798 425.413 163.61 425.413 172.155
C 425.413 181.026 423.785 189.286 420.53 196.936
C 417.356 204.585 412.799 210.892 406.858 215.856
C 397.581 223.75 386.554 227.697 373.777 227.697
C 367.673 227.697 362.384 226.802 357.908 225.012
C 353.513 223.221 348.386 219.966 342.527 215.246
Z
M 342.527 174.719
C 342.527 185.949 343.015 194.413 343.992 200.109
C 344.968 205.806 346.718 210.404 349.241 213.903
C 351.519 216.996 354.49 219.478 358.152 221.35
C 361.895 223.221 365.68 224.157 369.504 224.157
C 378.131 224.157 385.658 220.088 392.087 211.95
C 395.994 207.067 399.005 201.289 401.121 194.616
C 403.236 187.943 404.294 180.985 404.294 173.742
C 404.294 166.743 403.277 159.908 401.243 153.234
C 399.29 146.48 396.523 140.702 392.942 135.9
C 386.838 127.6 379.392 123.449 370.603 123.449
C 366.29 123.449 362.221 124.507 358.396 126.623
C 354.571 128.739 351.519 131.628 349.241 135.29
C 346.718 139.196 344.968 144.079 343.992 149.938
C 343.015 155.716 342.527 163.977 342.527 174.719
Z"/>
<path id="path14_fill" d="
M 69.4475 38.31
L 69.4475 13.46
L 77.8825 13.46
C 79.8658 13.46 81.5925 13.7867 83.0625 14.44
C 84.5558 15.0933 85.7925 15.98 86.7725 17.1
C 87.7758 18.22 88.5225 19.5383 89.0125 21.055
C 89.5258 22.5483 89.7825 24.1467 89.7825 25.85
C 89.7825 27.74 89.5025 29.455 88.9425 30.995
C 88.3825 32.5117 87.5775 33.8183 86.5275 34.915
C 85.5008 35.9883 84.2525 36.8283 82.7825 37.435
C 81.3358 38.0183 79.7025 38.31 77.8825 38.31
L 69.4475 38.31
Z
M 87.3325 25.85
C 87.3325 24.3567 87.1225 22.9917 86.7025 21.755
C 86.2825 20.495 85.6642 19.41 84.8475 18.5
C 84.0542 17.59 83.0742 16.89 81.9075 16.4
C 80.7408 15.8867 79.3992 15.63 77.8825 15.63
L 71.8975 15.63
L 71.8975 36.14
L 77.8825 36.14
C 79.4225 36.14 80.7758 35.8833 81.9425 35.37
C 83.1325 34.8333 84.1242 34.11 84.9175 33.2
C 85.7108 32.2667 86.3058 31.1817 86.7025 29.945
C 87.1225 28.685 87.3325 27.32 87.3325 25.85
Z
M 101.857 38.66
C 100.527 38.66 99.3025 38.415 98.1825 37.925
C 97.0858 37.4117 96.1292 36.7233 95.3125 35.86
C 94.4958 34.9733 93.8542 33.9583 93.3875 32.815
C 92.9442 31.6717 92.7225 30.4467 92.7225 29.14
C 92.7225 27.8567 92.9442 26.655 93.3875 25.535
C 93.8542 24.3917 94.4842 23.4 95.2775 22.56
C 96.0942 21.6967 97.0625 21.02 98.1825 20.53
C 99.3025 20.0167 100.516 19.76 101.822 19.76
C 103.152 19.76 104.366 20.0167 105.462 20.53
C 106.582 21.02 107.539 21.6967 108.332 22.56
C 109.126 23.4233 109.744 24.415 110.187 25.535
C 110.631 26.655 110.852 27.845 110.852 29.105
C 110.852 29.2917 110.852 29.4783 110.852 29.665
C 110.852 29.8517 110.841 29.98 110.817 30.05
L 95.2075 30.05
C 95.2775 31.03 95.4992 31.94 95.8725 32.78
C 96.2692 33.5967 96.7708 34.3083 97.3775 34.915
C 97.9842 35.5217 98.6725 36 99.4425 36.35
C 100.236 36.6767 101.076 36.84 101.962 36.84
C 102.546 36.84 103.129 36.7583 103.712 36.595
C 104.296 36.4317 104.832 36.21 105.322 35.93
C 105.812 35.65 106.256 35.3117 106.652 34.915
C 107.049 34.495 107.352 34.04 107.562 33.55
L 109.627 34.11
C 109.347 34.7867 108.951 35.405 108.437 35.965
C 107.924 36.5017 107.329 36.98 106.652 37.4
C 105.976 37.7967 105.229 38.1 104.412 38.31
C 103.596 38.5433 102.744 38.66 101.857 38.66
Z
M 108.577 28.23
C 108.507 27.25 108.274 26.3633 107.877 25.57
C 107.504 24.7533 107.014 24.0533 106.407 23.47
C 105.824 22.8867 105.136 22.4317 104.342 22.105
C 103.572 21.7783 102.744 21.615 101.857 21.615
C 100.971 21.615 100.131 21.7783 99.3375 22.105
C 98.5442 22.4317 97.8442 22.8867 97.2375 23.47
C 96.6542 24.0533 96.1758 24.7533 95.8025 25.57
C 95.4525 26.3867 95.2425 27.2733 95.1725 28.23
L 108.577 28.23
Z
M 119.987 38.31
L 112.567 20.075
L 115.017 20.075
L 121.282 36.105
L 127.582 20.075
L 129.892 20.075
L 122.472 38.31
L 119.987 38.31
Z
M 141.057 38.66
C 139.727 38.66 138.502 38.415 137.382 37.925
C 136.286 37.4117 135.329 36.7233 134.512 35.86
C 133.696 34.9733 133.054 33.9583 132.587 32.815
C 132.144 31.6717 131.922 30.4467 131.922 29.14
C 131.922 27.8567 132.144 26.655 132.587 25.535
C 133.054 24.3917 133.684 23.4 134.477 22.56
C 135.294 21.6967 136.262 21.02 137.382 20.53
C 138.502 20.0167 139.716 19.76 141.022 19.76
C 142.352 19.76 143.566 20.0167 144.662 20.53
C 145.782 21.02 146.739 21.6967 147.532 22.56
C 148.326 23.4233 148.944 24.415 149.387 25.535
C 149.831 26.655 150.052 27.845 150.052 29.105
C 150.052 29.2917 150.052 29.4783 150.052 29.665
C 150.052 29.8517 150.041 29.98 150.017 30.05
L 134.407 30.05
C 134.477 31.03 134.699 31.94 135.072 32.78
C 135.469 33.5967 135.971 34.3083 136.577 34.915
C 137.184 35.5217 137.872 36 138.642 36.35
C 139.436 36.6767 140.276 36.84 141.162 36.84
C 141.746 36.84 142.329 36.7583 142.912 36.595
C 143.496 36.4317 144.032 36.21 144.522 35.93
C 145.012 35.65 145.456 35.3117 145.852 34.915
C 146.249 34.495 146.552 34.04 146.762 33.55
L 148.827 34.11
C 148.547 34.7867 148.151 35.405 147.637 35.965
C 147.124 36.5017 146.529 36.98 145.852 37.4
C 145.176 37.7967 144.429 38.1 143.612 38.31
C 142.796 38.5433 141.944 38.66 141.057 38.66
Z
M 147.777 28.23
C 147.707 27.25 147.474 26.3633 147.077 25.57
C 146.704 24.7533 146.214 24.0533 145.607 23.47
C 145.024 22.8867 144.336 22.4317 143.542 22.105
C 142.772 21.7783 141.944 21.615 141.057 21.615
C 140.171 21.615 139.331 21.7783 138.537 22.105
C 137.744 22.4317 137.044 22.8867 136.437 23.47
C 135.854 24.0533 135.376 24.7533 135.002 25.57
C 134.652 26.3867 134.442 27.2733 134.372 28.23
L 147.777 28.23
Z
M 153.832 12.76
L 156.212 12.76
L 156.212 34.18
C 156.212 34.8567 156.399 35.3933 156.772 35.79
C 157.146 36.1633 157.671 36.35 158.347 36.35
C 158.604 36.35 158.907 36.315 159.257 36.245
C 159.607 36.175 159.934 36.0817 160.237 35.965
L 160.657 37.89
C 160.214 38.0767 159.666 38.2283 159.012 38.345
C 158.382 38.4617 157.834 38.52 157.367 38.52
C 156.271 38.52 155.407 38.2167 154.777 37.61
C 154.147 36.98 153.832 36.105 153.832 34.985
L 153.832 12.76
Z
M 171.017 38.66
C 169.687 38.66 168.474 38.415 167.377 37.925
C 166.281 37.4117 165.324 36.7233 164.507 35.86
C 163.714 34.9967 163.096 33.9933 162.652 32.85
C 162.209 31.7067 161.987 30.505 161.987 29.245
C 161.987 27.9617 162.209 26.7483 162.652 25.605
C 163.119 24.4617 163.749 23.4583 164.542 22.595
C 165.359 21.7317 166.316 21.0433 167.412 20.53
C 168.509 20.0167 169.711 19.76 171.017 19.76
C 172.324 19.76 173.526 20.0167 174.622 20.53
C 175.742 21.0433 176.699 21.7317 177.492 22.595
C 178.309 23.4583 178.939 24.4617 179.382 25.605
C 179.849 26.7483 180.082 27.9617 180.082 29.245
C 180.082 30.505 179.861 31.7067 179.417 32.85
C 178.974 33.9933 178.344 34.9967 177.527 35.86
C 176.734 36.7233 175.777 37.4117 174.657 37.925
C 173.561 38.415 172.347 38.66 171.017 38.66
Z
M 164.402 29.28
C 164.402 30.3067 164.577 31.2633 164.927 32.15
C 165.277 33.0133 165.744 33.7833 166.327 34.46
C 166.934 35.1133 167.634 35.6267 168.427 36
C 169.244 36.3733 170.107 36.56 171.017 36.56
C 171.927 36.56 172.779 36.3733 173.572 36
C 174.389 35.6033 175.101 35.0783 175.707 34.425
C 176.314 33.7483 176.792 32.9667 177.142 32.08
C 177.492 31.1933 177.667 30.2367 177.667 29.21
C 177.667 28.2067 177.492 27.2617 177.142 26.375
C 176.792 25.465 176.314 24.6833 175.707 24.03
C 175.101 23.3533 174.389 22.8283 173.572 22.455
C 172.779 22.0583 171.927 21.86 171.017 21.86
C 170.107 21.86 169.256 22.0583 168.462 22.455
C 167.669 22.8283 166.969 23.3533 166.362 24.03
C 165.756 24.7067 165.277 25.5 164.927 26.41
C 164.577 27.2967 164.402 28.2533 164.402 29.28
Z
M 193.382 38.66
C 191.842 38.66 190.477 38.275 189.287 37.505
C 188.121 36.7117 187.176 35.72 186.452 34.53
L 186.452 45.765
L 184.072 45.765
L 184.072 20.075
L 186.207 20.075
L 186.207 23.61
C 186.954 22.4667 187.922 21.545 189.112 20.845
C 190.302 20.1217 191.597 19.76 192.997 19.76
C 194.257 19.76 195.412 20.0283 196.462 20.565
C 197.512 21.0783 198.422 21.7783 199.192 22.665
C 199.962 23.5283 200.557 24.5317 200.977 25.675
C 201.421 26.8183 201.642 27.9967 201.642 29.21
C 201.642 30.4933 201.444 31.7067 201.047 32.85
C 200.651 33.9933 200.079 34.9967 199.332 35.86
C 198.609 36.7233 197.734 37.4117 196.707 37.925
C 195.704 38.415 194.596 38.66 193.382 38.66
Z
M 192.717 36.56
C 193.697 36.56 194.584 36.35 195.377 35.93
C 196.194 35.51 196.882 34.9617 197.442 34.285
C 198.026 33.585 198.469 32.8033 198.772 31.94
C 199.076 31.0533 199.227 30.1433 199.227 29.21
C 199.227 28.23 199.052 27.2967 198.702 26.41
C 198.352 25.5233 197.874 24.7417 197.267 24.065
C 196.661 23.3883 195.937 22.8517 195.097 22.455
C 194.281 22.0583 193.394 21.86 192.437 21.86
C 191.831 21.86 191.189 21.9883 190.512 22.245
C 189.859 22.4783 189.241 22.805 188.657 23.225
C 188.097 23.6217 187.607 24.1 187.187 24.66
C 186.791 25.1967 186.546 25.7683 186.452 26.375
L 186.452 31.975
C 186.732 32.6283 187.082 33.235 187.502 33.795
C 187.946 34.355 188.436 34.845 188.972 35.265
C 189.532 35.6617 190.127 35.9767 190.757 36.21
C 191.387 36.4433 192.041 36.56 192.717 36.56
Z
M 205.667 38.31
L 205.667 20.075
L 208.047 20.075
L 208.047 38.31
L 205.667 38.31
Z
M 205.667 16.26
L 205.667 12.76
L 208.047 12.76
L 208.047 16.26
L 205.667 16.26
Z
M 228.627 38.31
L 226.247 38.31
L 226.247 28.125
C 226.247 25.955 225.921 24.38 225.267 23.4
C 224.637 22.42 223.657 21.93 222.327 21.93
C 221.627 21.93 220.927 22.0583 220.227 22.315
C 219.527 22.5717 218.874 22.9333 218.267 23.4
C 217.684 23.8667 217.159 24.4267 216.692 25.08
C 216.226 25.71 215.887 26.3983 215.677 27.145
L 215.677 38.31
L 213.297 38.31
L 213.297 20.075
L 215.467 20.075
L 215.467 24.205
C 216.214 22.875 217.276 21.8017 218.652 20.985
C 220.052 20.1683 221.569 19.76 223.202 19.76
C 224.206 19.76 225.057 19.9467 225.757 20.32
C 226.457 20.6933 227.017 21.2183 227.437 21.895
C 227.857 22.5717 228.161 23.4 228.347 24.38
C 228.534 25.36 228.627 26.445 228.627 27.635
L 228.627 38.31
Z
M 241.017 38.555
C 239.757 38.555 238.602 38.2983 237.552 37.785
C 236.526 37.2483 235.627 36.5483 234.857 35.685
C 234.111 34.8217 233.527 33.83 233.107 32.71
C 232.687 31.59 232.477 30.435 232.477 29.245
C 232.477 27.985 232.676 26.7833 233.072 25.64
C 233.492 24.4733 234.076 23.4583 234.822 22.595
C 235.569 21.7317 236.456 21.0433 237.482 20.53
C 238.532 20.0167 239.687 19.76 240.947 19.76
C 242.511 19.76 243.864 20.1567 245.007 20.95
C 246.151 21.72 247.131 22.7 247.947 23.89
L 247.947 20.075
L 250.082 20.075
L 250.082 38.38
C 250.082 39.64 249.837 40.7483 249.347 41.705
C 248.881 42.685 248.239 43.5017 247.422 44.155
C 246.629 44.8083 245.684 45.2983 244.587 45.625
C 243.514 45.9517 242.371 46.115 241.157 46.115
C 239.057 46.115 237.366 45.7417 236.082 44.995
C 234.799 44.2483 233.761 43.245 232.967 41.985
L 234.437 40.83
C 235.161 41.9967 236.117 42.8483 237.307 43.385
C 238.497 43.945 239.781 44.225 241.157 44.225
C 242.044 44.225 242.884 44.0967 243.677 43.84
C 244.471 43.6067 245.159 43.245 245.742 42.755
C 246.349 42.2883 246.827 41.6817 247.177 40.935
C 247.527 40.2117 247.702 39.36 247.702 38.38
L 247.702 34.775
C 247.002 35.9417 246.046 36.8633 244.832 37.54
C 243.619 38.2167 242.347 38.555 241.017 38.555
Z
M 241.682 36.56
C 242.382 36.56 243.071 36.4317 243.747 36.175
C 244.424 35.9183 245.031 35.58 245.567 35.16
C 246.127 34.7167 246.594 34.2267 246.967 33.69
C 247.341 33.1533 247.586 32.605 247.702 32.045
L 247.702 26.41
C 247.446 25.7567 247.096 25.15 246.652 24.59
C 246.209 24.03 245.707 23.5517 245.147 23.155
C 244.587 22.7583 243.981 22.4433 243.327 22.21
C 242.697 21.9767 242.056 21.86 241.402 21.86
C 240.376 21.86 239.454 22.0817 238.637 22.525
C 237.844 22.945 237.167 23.505 236.607 24.205
C 236.047 24.905 235.616 25.6983 235.312 26.585
C 235.032 27.4717 234.892 28.37 234.892 29.28
C 234.892 30.26 235.067 31.1933 235.417 32.08
C 235.767 32.9667 236.246 33.7483 236.852 34.425
C 237.482 35.0783 238.206 35.6033 239.022 36
C 239.839 36.3733 240.726 36.56 241.682 36.56
Z
M 273.357 22.175
C 271.747 22.2217 270.347 22.665 269.157 23.505
C 267.967 24.345 267.127 25.5 266.637 26.97
L 266.637 38.31
L 264.257 38.31
L 264.257 20.075
L 266.497 20.075
L 266.497 24.45
C 267.174 23.05 268.084 21.9533 269.227 21.16
C 270.371 20.3667 271.596 19.97 272.902 19.97
C 273.089 19.97 273.241 19.9817 273.357 20.005
L 273.357 22.175
Z
M 284.417 38.66
C 283.087 38.66 281.862 38.415 280.742 37.925
C 279.646 37.4117 278.689 36.7233 277.872 35.86
C 277.056 34.9733 276.414 33.9583 275.947 32.815
C 275.504 31.6717 275.282 30.4467 275.282 29.14
C 275.282 27.8567 275.504 26.655 275.947 25.535
C 276.414 24.3917 277.044 23.4 277.837 22.56
C 278.654 21.6967 279.622 21.02 280.742 20.53
C 281.862 20.0167 283.076 19.76 284.382 19.76
C 285.712 19.76 286.926 20.0167 288.022 20.53
C 289.142 21.02 290.099 21.6967 290.892 22.56
C 291.686 23.4233 292.304 24.415 292.747 25.535
C 293.191 26.655 293.412 27.845 293.412 29.105
C 293.412 29.2917 293.412 29.4783 293.412 29.665
C 293.412 29.8517 293.401 29.98 293.377 30.05
L 277.767 30.05
C 277.837 31.03 278.059 31.94 278.432 32.78
C 278.829 33.5967 279.331 34.3083 279.937 34.915
C 280.544 35.5217 281.232 36 282.002 36.35
C 282.796 36.6767 283.636 36.84 284.522 36.84
C 285.106 36.84 285.689 36.7583 286.272 36.595
C 286.856 36.4317 287.392 36.21 287.882 35.93
C 288.372 35.65 288.816 35.3117 289.212 34.915
C 289.609 34.495 289.912 34.04 290.122 33.55
L 292.187 34.11
C 291.907 34.7867 291.511 35.405 290.997 35.965
C 290.484 36.5017 289.889 36.98 289.212 37.4
C 288.536 37.7967 287.789 38.1 286.972 38.31
C 286.156 38.5433 285.304 38.66 284.417 38.66
Z
M 291.137 28.23
C 291.067 27.25 290.834 26.3633 290.437 25.57
C 290.064 24.7533 289.574 24.0533 288.967 23.47
C 288.384 22.8867 287.696 22.4317 286.902 22.105
C 286.132 21.7783 285.304 21.615 284.417 21.615
C 283.531 21.615 282.691 21.7783 281.897 22.105
C 281.104 22.4317 280.404 22.8867 279.797 23.47
C 279.214 24.0533 278.736 24.7533 278.362 25.57
C 278.012 26.3867 277.802 27.2733 277.732 28.23
L 291.137 28.23
Z
M 302.547 38.31
L 295.127 20.075
L 297.577 20.075
L 303.842 36.105
L 310.142 20.075
L 312.452 20.075
L 305.032 38.31
L 302.547 38.31
Z
M 323.512 38.66
C 322.182 38.66 320.969 38.415 319.872 37.925
C 318.776 37.4117 317.819 36.7233 317.002 35.86
C 316.209 34.9967 315.591 33.9933 315.147 32.85
C 314.704 31.7067 314.482 30.505 314.482 29.245
C 314.482 27.9617 314.704 26.7483 315.147 25.605
C 315.614 24.4617 316.244 23.4583 317.037 22.595
C 317.854 21.7317 318.811 21.0433 319.907 20.53
C 321.004 20.0167 322.206 19.76 323.512 19.76
C 324.819 19.76 326.021 20.0167 327.117 20.53
C 328.237 21.0433 329.194 21.7317 329.987 22.595
C 330.804 23.4583 331.434 24.4617 331.877 25.605
C 332.344 26.7483 332.577 27.9617 332.577 29.245
C 332.577 30.505 332.356 31.7067 331.912 32.85
C 331.469 33.9933 330.839 34.9967 330.022 35.86
C 329.229 36.7233 328.272 37.4117 327.152 37.925
C 326.056 38.415 324.842 38.66 323.512 38.66
Z
M 316.897 29.28
C 316.897 30.3067 317.072 31.2633 317.422 32.15
C 317.772 33.0133 318.239 33.7833 318.822 34.46
C 319.429 35.1133 320.129 35.6267 320.922 36
C 321.739 36.3733 322.602 36.56 323.512 36.56
C 324.422 36.56 325.274 36.3733 326.067 36
C 326.884 35.6033 327.596 35.0783 328.202 34.425
C 328.809 33.7483 329.287 32.9667 329.637 32.08
C 329.987 31.1933 330.162 30.2367 330.162 29.21
C 330.162 28.2067 329.987 27.2617 329.637 26.375
C 329.287 25.465 328.809 24.6833 328.202 24.03
C 327.596 23.3533 326.884 22.8283 326.067 22.455
C 325.274 22.0583 324.422 21.86 323.512 21.86
C 322.602 21.86 321.751 22.0583 320.957 22.455
C 320.164 22.8283 319.464 23.3533 318.857 24.03
C 318.251 24.7067 317.772 25.5 317.422 26.41
C 317.072 27.2967 316.897 28.2533 316.897 29.28
Z
M 336.672 12.76
L 339.052 12.76
L 339.052 34.18
C 339.052 34.8567 339.239 35.3933 339.612 35.79
C 339.986 36.1633 340.511 36.35 341.187 36.35
C 341.444 36.35 341.747 36.315 342.097 36.245
C 342.447 36.175 342.774 36.0817 343.077 35.965
L 343.497 37.89
C 343.054 38.0767 342.506 38.2283 341.852 38.345
C 341.222 38.4617 340.674 38.52 340.207 38.52
C 339.111 38.52 338.247 38.2167 337.617 37.61
C 336.987 36.98 336.672 36.105 336.672 34.985
L 336.672 12.76
Z
M 351.792 38.66
C 349.809 38.66 348.327 38.0067 347.347 36.7
C 346.391 35.37 345.912 33.3983 345.912 30.785
L 345.912 20.075
L 348.292 20.075
L 348.292 30.365
C 348.292 34.495 349.704 36.56 352.527 36.56
C 353.227 36.56 353.916 36.4433 354.592 36.21
C 355.269 35.9767 355.887 35.6383 356.447 35.195
C 357.031 34.7517 357.544 34.2267 357.987 33.62
C 358.454 33.0133 358.827 32.325 359.107 31.555
L 359.107 20.075
L 361.487 20.075
L 361.487 35.23
C 361.487 35.8833 361.767 36.21 362.327 36.21
L 362.327 38.31
C 362.047 38.3567 361.814 38.38 361.627 38.38
C 361.464 38.38 361.347 38.38 361.277 38.38
C 360.717 38.3567 360.262 38.1583 359.912 37.785
C 359.562 37.4117 359.387 36.91 359.387 36.28
L 359.387 34.18
C 358.594 35.6033 357.509 36.7117 356.132 37.505
C 354.779 38.275 353.332 38.66 351.792 38.66
Z
M 375.627 37.435
C 375.487 37.505 375.277 37.5983 374.997 37.715
C 374.741 37.8317 374.437 37.9483 374.087 38.065
C 373.737 38.1817 373.341 38.2867 372.897 38.38
C 372.454 38.4733 371.987 38.52 371.497 38.52
C 370.984 38.52 370.494 38.45 370.027 38.31
C 369.561 38.17 369.152 37.96 368.802 37.68
C 368.452 37.3767 368.172 37.0033 367.962 36.56
C 367.752 36.1167 367.647 35.6033 367.647 35.02
L 367.647 21.965
L 365.127 21.965
L 365.127 20.075
L 367.647 20.075
L 367.647 13.915
L 370.027 13.915
L 370.027 20.075
L 374.227 20.075
L 374.227 21.965
L 370.027 21.965
L 370.027 34.355
C 370.074 35.0317 370.307 35.5333 370.727 35.86
C 371.171 36.1633 371.672 36.315 372.232 36.315
C 372.909 36.315 373.504 36.21 374.017 36
C 374.531 35.7667 374.857 35.6033 374.997 35.51
L 375.627 37.435
Z
M 378.602 38.31
L 378.602 20.075
L 380.982 20.075
L 380.982 38.31
L 378.602 38.31
Z
M 378.602 16.26
L 378.602 12.76
L 380.982 12.76
L 380.982 16.26
L 378.602 16.26
Z
M 394.002 38.66
C 392.672 38.66 391.459 38.415 390.362 37.925
C 389.266 37.4117 388.309 36.7233 387.492 35.86
C 386.699 34.9967 386.081 33.9933 385.637 32.85
C 385.194 31.7067 384.972 30.505 384.972 29.245
C 384.972 27.9617 385.194 26.7483 385.637 25.605
C 386.104 24.4617 386.734 23.4583 387.527 22.595
C 388.344 21.7317 389.301 21.0433 390.397 20.53
C 391.494 20.0167 392.696 19.76 394.002 19.76
C 395.309 19.76 396.511 20.0167 397.607 20.53
C 398.727 21.0433 399.684 21.7317 400.477 22.595
C 401.294 23.4583 401.924 24.4617 402.367 25.605
C 402.834 26.7483 403.067 27.9617 403.067 29.245
C 403.067 30.505 402.846 31.7067 402.402 32.85
C 401.959 33.9933 401.329 34.9967 400.512 35.86
C 399.719 36.7233 398.762 37.4117 397.642 37.925
C 396.546 38.415 395.332 38.66 394.002 38.66
Z
M 387.387 29.28
C 387.387 30.3067 387.562 31.2633 387.912 32.15
C 388.262 33.0133 388.729 33.7833 389.312 34.46
C 389.919 35.1133 390.619 35.6267 391.412 36
C 392.229 36.3733 393.092 36.56 394.002 36.56
C 394.912 36.56 395.764 36.3733 396.557 36
C 397.374 35.6033 398.086 35.0783 398.692 34.425
C 399.299 33.7483 399.777 32.9667 400.127 32.08
C 400.477 31.1933 400.652 30.2367 400.652 29.21
C 400.652 28.2067 400.477 27.2617 400.127 26.375
C 399.777 25.465 399.299 24.6833 398.692 24.03
C 398.086 23.3533 397.374 22.8283 396.557 22.455
C 395.764 22.0583 394.912 21.86 394.002 21.86
C 393.092 21.86 392.241 22.0583 391.447 22.455
C 390.654 22.8283 389.954 23.3533 389.347 24.03
C 388.741 24.7067 388.262 25.5 387.912 26.41
C 387.562 27.2967 387.387 28.2533 387.387 29.28
Z
M 422.387 38.31
L 420.007 38.31
L 420.007 28.125
C 420.007 25.955 419.681 24.38 419.027 23.4
C 418.397 22.42 417.417 21.93 416.087 21.93
C 415.387 21.93 414.687 22.0583 413.987 22.315
C 413.287 22.5717 412.634 22.9333 412.027 23.4
C 411.444 23.8667 410.919 24.4267 410.452 25.08
C 409.986 25.71 409.647 26.3983 409.437 27.145
L 409.437 38.31
L 407.057 38.31
L 407.057 20.075
L 409.227 20.075
L 409.227 24.205
C 409.974 22.875 411.036 21.8017 412.412 20.985
C 413.812 20.1683 415.329 19.76 416.962 19.76
C 417.966 19.76 418.817 19.9467 419.517 20.32
C 420.217 20.6933 420.777 21.2183 421.197 21.895
C 421.617 22.5717 421.921 23.4 422.107 24.38
C 422.294 25.36 422.387 26.445 422.387 27.635
L 422.387 38.31
Z
M 432.047 38.66
C 431.184 38.66 430.379 38.52 429.632 38.24
C 428.909 37.9367 428.267 37.5283 427.707 37.015
C 427.171 36.5017 426.751 35.9067 426.447 35.23
C 426.144 34.53 425.992 33.7833 425.992 32.99
C 425.992 32.1967 426.179 31.4617 426.552 30.785
C 426.926 30.1083 427.451 29.525 428.127 29.035
C 428.804 28.545 429.609 28.1717 430.542 27.915
C 431.476 27.635 432.502 27.495 433.622 27.495
C 434.556 27.495 435.501 27.5767 436.457 27.74
C 437.414 27.9033 438.266 28.1367 439.012 28.44
L 439.012 26.795
C 439.012 25.185 438.557 23.9133 437.647 22.98
C 436.737 22.0233 435.477 21.545 433.867 21.545
C 432.934 21.545 431.977 21.7317 430.997 22.105
C 430.017 22.4783 429.026 23.015 428.022 23.715
L 427.182 22.14
C 429.539 20.5533 431.826 19.76 434.042 19.76
C 436.329 19.76 438.126 20.4017 439.432 21.685
C 440.739 22.9683 441.392 24.7417 441.392 27.005
L 441.392 35.23
C 441.392 35.8833 441.684 36.21 442.267 36.21
L 442.267 38.31
C 441.871 38.38 441.567 38.415 441.357 38.415
C 440.751 38.415 440.272 38.2633 439.922 37.96
C 439.596 37.6567 439.421 37.2367 439.397 36.7
L 439.327 35.265
C 438.487 36.3617 437.426 37.2017 436.142 37.785
C 434.882 38.3683 433.517 38.66 432.047 38.66
Z
M 432.607 36.84
C 433.844 36.84 434.976 36.6067 436.002 36.14
C 437.052 35.6733 437.846 35.055 438.382 34.285
C 438.592 34.075 438.744 33.8533 438.837 33.62
C 438.954 33.3633 439.012 33.13 439.012 32.92
L 439.012 29.945
C 438.219 29.6417 437.391 29.4083 436.527 29.245
C 435.687 29.0817 434.824 29 433.937 29
C 432.257 29 430.892 29.35 429.842 30.05
C 428.792 30.75 428.267 31.6717 428.267 32.815
C 428.267 33.375 428.372 33.9 428.582 34.39
C 428.816 34.88 429.119 35.3117 429.492 35.685
C 429.889 36.035 430.356 36.315 430.892 36.525
C 431.429 36.735 432.001 36.84 432.607 36.84
Z
M 455.637 22.175
C 454.027 22.2217 452.627 22.665 451.437 23.505
C 450.247 24.345 449.407 25.5 448.917 26.97
L 448.917 38.31
L 446.537 38.31
L 446.537 20.075
L 448.777 20.075
L 448.777 24.45
C 449.454 23.05 450.364 21.9533 451.507 21.16
C 452.651 20.3667 453.876 19.97 455.182 19.97
C 455.369 19.97 455.521 19.9817 455.637 20.005
L 455.637 22.175
Z
M 459.872 43.91
C 460.059 43.9333 460.234 43.945 460.397 43.945
C 460.584 43.9683 460.759 43.98 460.922 43.98
C 461.342 43.98 461.669 43.9217 461.902 43.805
C 462.159 43.6883 462.404 43.4317 462.637 43.035
C 462.871 42.6383 463.127 42.0667 463.407 41.32
C 463.711 40.5733 464.131 39.57 464.667 38.31
L 456.722 20.075
L 459.172 20.075
L 465.927 36.105
L 472.192 20.075
L 474.467 20.075
L 465.017 43.595
C 464.761 44.2717 464.329 44.855 463.722 45.345
C 463.139 45.8583 462.334 46.115 461.307 46.115
C 461.074 46.115 460.852 46.1033 460.642 46.08
C 460.432 46.08 460.176 46.0567 459.872 46.01
L 459.872 43.91
Z
M 486.717 38.31
L 486.717 20.075
L 489.097 20.075
L 489.097 38.31
L 486.717 38.31
Z
M 486.717 16.26
L 486.717 12.76
L 489.097 12.76
L 489.097 16.26
L 486.717 16.26
Z
M 501.837 38.66
C 500.577 38.66 499.411 38.4033 498.337 37.89
C 497.264 37.3533 496.342 36.6533 495.572 35.79
C 494.802 34.9267 494.196 33.935 493.752 32.815
C 493.332 31.6717 493.122 30.4817 493.122 29.245
C 493.122 27.9617 493.332 26.7483 493.752 25.605
C 494.172 24.4383 494.744 23.4233 495.467 22.56
C 496.214 21.6967 497.089 21.02 498.092 20.53
C 499.119 20.0167 500.239 19.76 501.452 19.76
C 502.992 19.76 504.357 20.1683 505.547 20.985
C 506.737 21.7783 507.671 22.7467 508.347 23.89
L 508.347 12.76
L 510.727 12.76
L 510.727 35.23
C 510.727 35.8833 511.007 36.21 511.567 36.21
L 511.567 38.31
C 511.217 38.38 510.937 38.415 510.727 38.415
C 510.167 38.415 509.677 38.24 509.257 37.89
C 508.837 37.5167 508.627 37.0733 508.627 36.56
L 508.627 34.775
C 507.904 35.965 506.924 36.91 505.687 37.61
C 504.451 38.31 503.167 38.66 501.837 38.66
Z
M 502.362 36.56
C 502.946 36.56 503.564 36.4433 504.217 36.21
C 504.894 35.9767 505.524 35.6617 506.107 35.265
C 506.691 34.845 507.181 34.3667 507.577 33.83
C 507.997 33.27 508.254 32.675 508.347 32.045
L 508.347 26.41
C 508.114 25.78 507.776 25.1967 507.332 24.66
C 506.889 24.1 506.376 23.61 505.792 23.19
C 505.232 22.77 504.626 22.4433 503.972 22.21
C 503.319 21.9767 502.677 21.86 502.047 21.86
C 501.067 21.86 500.181 22.07 499.387 22.49
C 498.594 22.91 497.906 23.47 497.322 24.17
C 496.762 24.8467 496.331 25.6283 496.027 26.515
C 495.724 27.4017 495.572 28.3117 495.572 29.245
C 495.572 30.225 495.747 31.1583 496.097 32.045
C 496.447 32.9317 496.926 33.7133 497.532 34.39
C 498.139 35.0433 498.851 35.5683 499.667 35.965
C 500.507 36.3617 501.406 36.56 502.362 36.56
Z
M 523.992 38.66
C 522.662 38.66 521.437 38.415 520.317 37.925
C 519.221 37.4117 518.264 36.7233 517.447 35.86
C 516.631 34.9733 515.989 33.9583 515.522 32.815
C 515.079 31.6717 514.857 30.4467 514.857 29.14
C 514.857 27.8567 515.079 26.655 515.522 25.535
C 515.989 24.3917 516.619 23.4 517.412 22.56
C 518.229 21.6967 519.197 21.02 520.317 20.53
C 521.437 20.0167 522.651 19.76 523.957 19.76
C 525.287 19.76 526.501 20.0167 527.597 20.53
C 528.717 21.02 529.674 21.6967 530.467 22.56
C 531.261 23.4233 531.879 24.415 532.322 25.535
C 532.766 26.655 532.987 27.845 532.987 29.105
C 532.987 29.2917 532.987 29.4783 532.987 29.665
C 532.987 29.8517 532.976 29.98 532.952 30.05
L 517.342 30.05
C 517.412 31.03 517.634 31.94 518.007 32.78
C 518.404 33.5967 518.906 34.3083 519.512 34.915
C 520.119 35.5217 520.807 36 521.577 36.35
C 522.371 36.6767 523.211 36.84 524.097 36.84
C 524.681 36.84 525.264 36.7583 525.847 36.595
C 526.431 36.4317 526.967 36.21 527.457 35.93
C 527.947 35.65 528.391 35.3117 528.787 34.915
C 529.184 34.495 529.487 34.04 529.697 33.55
L 531.762 34.11
C 531.482 34.7867 531.086 35.405 530.572 35.965
C 530.059 36.5017 529.464 36.98 528.787 37.4
C 528.111 37.7967 527.364 38.1 526.547 38.31
C 525.731 38.5433 524.879 38.66 523.992 38.66
Z
M 530.712 28.23
C 530.642 27.25 530.409 26.3633 530.012 25.57
C 529.639 24.7533 529.149 24.0533 528.542 23.47
C 527.959 22.8867 527.271 22.4317 526.477 22.105
C 525.707 21.7783 524.879 21.615 523.992 21.615
C 523.106 21.615 522.266 21.7783 521.472 22.105
C 520.679 22.4317 519.979 22.8867 519.372 23.47
C 518.789 24.0533 518.311 24.7533 517.937 25.57
C 517.587 26.3867 517.377 27.2733 517.307 28.23
L 530.712 28.23
Z
M 541.247 38.66
C 540.384 38.66 539.579 38.52 538.832 38.24
C 538.109 37.9367 537.467 37.5283 536.907 37.015
C 536.371 36.5017 535.951 35.9067 535.647 35.23
C 535.344 34.53 535.192 33.7833 535.192 32.99
C 535.192 32.1967 535.379 31.4617 535.752 30.785
C 536.126 30.1083 536.651 29.525 537.327 29.035
C 538.004 28.545 538.809 28.1717 539.742 27.915
C 540.676 27.635 541.702 27.495 542.822 27.495
C 543.756 27.495 544.701 27.5767 545.657 27.74
C 546.614 27.9033 547.466 28.1367 548.212 28.44
L 548.212 26.795
C 548.212 25.185 547.757 23.9133 546.847 22.98
C 545.937 22.0233 544.677 21.545 543.067 21.545
C 542.134 21.545 541.177 21.7317 540.197 22.105
C 539.217 22.4783 538.226 23.015 537.222 23.715
L 536.382 22.14
C 538.739 20.5533 541.026 19.76 543.242 19.76
C 545.529 19.76 547.326 20.4017 548.632 21.685
C 549.939 22.9683 550.592 24.7417 550.592 27.005
L 550.592 35.23
C 550.592 35.8833 550.884 36.21 551.467 36.21
L 551.467 38.31
C 551.071 38.38 550.767 38.415 550.557 38.415
C 549.951 38.415 549.472 38.2633 549.122 37.96
C 548.796 37.6567 548.621 37.2367 548.597 36.7
L 548.527 35.265
C 547.687 36.3617 546.626 37.2017 545.342 37.785
C 544.082 38.3683 542.717 38.66 541.247 38.66
Z
M 541.807 36.84
C 543.044 36.84 544.176 36.6067 545.202 36.14
C 546.252 35.6733 547.046 35.055 547.582 34.285
C 547.792 34.075 547.944 33.8533 548.037 33.62
C 548.154 33.3633 548.212 33.13 548.212 32.92
L 548.212 29.945
C 547.419 29.6417 546.591 29.4083 545.727 29.245
C 544.887 29.0817 544.024 29 543.137 29
C 541.457 29 540.092 29.35 539.042 30.05
C 537.992 30.75 537.467 31.6717 537.467 32.815
C 537.467 33.375 537.572 33.9 537.782 34.39
C 538.016 34.88 538.319 35.3117 538.692 35.685
C 539.089 36.035 539.556 36.315 540.092 36.525
C 540.629 36.735 541.201 36.84 541.807 36.84
Z
M 561.792 38.66
C 560.369 38.66 558.981 38.4267 557.627 37.96
C 556.274 37.4933 555.107 36.8167 554.127 35.93
L 555.212 34.32
C 556.239 35.16 557.277 35.79 558.327 36.21
C 559.401 36.63 560.544 36.84 561.757 36.84
C 563.227 36.84 564.394 36.5483 565.257 35.965
C 566.144 35.3583 566.587 34.5067 566.587 33.41
C 566.587 32.8967 566.471 32.4767 566.237 32.15
C 566.004 31.8 565.654 31.4967 565.187 31.24
C 564.744 30.9833 564.172 30.7617 563.472 30.575
C 562.796 30.365 562.002 30.155 561.092 29.945
C 560.042 29.6883 559.132 29.4317 558.362 29.175
C 557.592 28.9183 556.951 28.6267 556.437 28.3
C 555.947 27.9733 555.574 27.5767 555.317 27.11
C 555.084 26.62 554.967 26.0133 554.967 25.29
C 554.967 24.38 555.142 23.575 555.492 22.875
C 555.866 22.175 556.356 21.6033 556.962 21.16
C 557.592 20.6933 558.316 20.3433 559.132 20.11
C 559.972 19.8767 560.859 19.76 561.792 19.76
C 563.192 19.76 564.464 19.9933 565.607 20.46
C 566.751 20.9033 567.672 21.4983 568.372 22.245
L 567.217 23.645
C 566.541 22.945 565.712 22.42 564.732 22.07
C 563.776 21.72 562.772 21.545 561.722 21.545
C 561.092 21.545 560.509 21.615 559.972 21.755
C 559.436 21.8717 558.957 22.07 558.537 22.35
C 558.141 22.63 557.826 22.9917 557.592 23.435
C 557.359 23.855 557.242 24.3567 557.242 24.94
C 557.242 25.43 557.324 25.8267 557.487 26.13
C 557.651 26.4333 557.919 26.7017 558.292 26.935
C 558.666 27.145 559.132 27.3433 559.692 27.53
C 560.276 27.6933 560.976 27.8683 561.792 28.055
C 562.959 28.335 563.986 28.615 564.872 28.895
C 565.759 29.175 566.494 29.5017 567.077 29.875
C 567.684 30.2483 568.139 30.7033 568.442 31.24
C 568.746 31.7767 568.897 32.43 568.897 33.2
C 568.897 34.88 568.256 36.21 566.972 37.19
C 565.689 38.17 563.962 38.66 561.792 38.66
Z
M 581.707 38.31
L 581.707 20.075
L 584.087 20.075
L 584.087 38.31
L 581.707 38.31
Z
M 581.707 16.26
L 581.707 12.76
L 584.087 12.76
L 584.087 16.26
L 581.707 16.26
Z
M 604.667 38.31
L 602.287 38.31
L 602.287 28.125
C 602.287 25.955 601.961 24.38 601.307 23.4
C 600.677 22.42 599.697 21.93 598.367 21.93
C 597.667 21.93 596.967 22.0583 596.267 22.315
C 595.567 22.5717 594.914 22.9333 594.307 23.4
C 593.724 23.8667 593.199 24.4267 592.732 25.08
C 592.266 25.71 591.927 26.3983 591.717 27.145
L 591.717 38.31
L 589.337 38.31
L 589.337 20.075
L 591.507 20.075
L 591.507 24.205
C 592.254 22.875 593.316 21.8017 594.692 20.985
C 596.092 20.1683 597.609 19.76 599.242 19.76
C 600.246 19.76 601.097 19.9467 601.797 20.32
C 602.497 20.6933 603.057 21.2183 603.477 21.895
C 603.897 22.5717 604.201 23.4 604.387 24.38
C 604.574 25.36 604.667 26.445 604.667 27.635
L 604.667 38.31
Z
M 618.492 37.435
C 618.352 37.505 618.142 37.5983 617.862 37.715
C 617.606 37.8317 617.302 37.9483 616.952 38.065
C 616.602 38.1817 616.206 38.2867 615.762 38.38
C 615.319 38.4733 614.852 38.52 614.362 38.52
C 613.849 38.52 613.359 38.45 612.892 38.31
C 612.426 38.17 612.017 37.96 611.667 37.68
C 611.317 37.3767 611.037 37.0033 610.827 36.56
C 610.617 36.1167 610.512 35.6033 610.512 35.02
L 610.512 21.965
L 607.992 21.965
L 607.992 20.075
L 610.512 20.075
L 610.512 13.915
L 612.892 13.915
L 612.892 20.075
L 617.092 20.075
L 617.092 21.965
L 612.892 21.965
L 612.892 34.355
C 612.939 35.0317 613.172 35.5333 613.592 35.86
C 614.036 36.1633 614.537 36.315 615.097 36.315
C 615.774 36.315 616.369 36.21 616.882 36
C 617.396 35.7667 617.722 35.6033 617.862 35.51
L 618.492 37.435
Z
M 629.237 38.66
C 627.907 38.66 626.694 38.415 625.597 37.925
C 624.501 37.4117 623.544 36.7233 622.727 35.86
C 621.934 34.9967 621.316 33.9933 620.872 32.85
C 620.429 31.7067 620.207 30.505 620.207 29.245
C 620.207 27.9617 620.429 26.7483 620.872 25.605
C 621.339 24.4617 621.969 23.4583 622.762 22.595
C 623.579 21.7317 624.536 21.0433 625.632 20.53
C 626.729 20.0167 627.931 19.76 629.237 19.76
C 630.544 19.76 631.746 20.0167 632.842 20.53
C 633.962 21.0433 634.919 21.7317 635.712 22.595
C 636.529 23.4583 637.159 24.4617 637.602 25.605
C 638.069 26.7483 638.302 27.9617 638.302 29.245
C 638.302 30.505 638.081 31.7067 637.637 32.85
C 637.194 33.9933 636.564 34.9967 635.747 35.86
C 634.954 36.7233 633.997 37.4117 632.877 37.925
C 631.781 38.415 630.567 38.66 629.237 38.66
Z
M 622.622 29.28
C 622.622 30.3067 622.797 31.2633 623.147 32.15
C 623.497 33.0133 623.964 33.7833 624.547 34.46
C 625.154 35.1133 625.854 35.6267 626.647 36
C 627.464 36.3733 628.327 36.56 629.237 36.56
C 630.147 36.56 630.999 36.3733 631.792 36
C 632.609 35.6033 633.321 35.0783 633.927 34.425
C 634.534 33.7483 635.012 32.9667 635.362 32.08
C 635.712 31.1933 635.887 30.2367 635.887 29.21
C 635.887 28.2067 635.712 27.2617 635.362 26.375
C 635.012 25.465 634.534 24.6833 633.927 24.03
C 633.321 23.3533 632.609 22.8283 631.792 22.455
C 630.999 22.0583 630.147 21.86 629.237 21.86
C 628.327 21.86 627.476 22.0583 626.682 22.455
C 625.889 22.8283 625.189 23.3533 624.582 24.03
C 623.976 24.7067 623.497 25.5 623.147 26.41
C 622.797 27.2967 622.622 28.2533 622.622 29.28
Z
M 187.1 79.4
L 187.1 61.165
L 189.48 61.165
L 189.48 79.4
L 187.1 79.4
Z
M 187.1 57.35
L 187.1 53.85
L 189.48 53.85
L 189.48 57.35
L 187.1 57.35
Z
M 210.06 79.4
L 207.68 79.4
L 207.68 69.215
C 207.68 67.045 207.353 65.47 206.7 64.49
C 206.07 63.51 205.09 63.02 203.76 63.02
C 203.06 63.02 202.36 63.1483 201.66 63.405
C 200.96 63.6617 200.307 64.0233 199.7 64.49
C 199.117 64.9567 198.592 65.5167 198.125 66.17
C 197.658 66.8 197.32 67.4883 197.11 68.235
L 197.11 79.4
L 194.73 79.4
L 194.73 61.165
L 196.9 61.165
L 196.9 65.295
C 197.647 63.965 198.708 62.8917 200.085 62.075
C 201.485 61.2583 203.002 60.85 204.635 60.85
C 205.638 60.85 206.49 61.0367 207.19 61.41
C 207.89 61.7833 208.45 62.3083 208.87 62.985
C 209.29 63.6617 209.593 64.49 209.78 65.47
C 209.967 66.45 210.06 67.535 210.06 68.725
L 210.06 79.4
Z
M 222.625 79.75
C 221.365 79.75 220.198 79.4933 219.125 78.98
C 218.052 78.4433 217.13 77.7433 216.36 76.88
C 215.59 76.0167 214.983 75.025 214.54 73.905
C 214.12 72.7617 213.91 71.5717 213.91 70.335
C 213.91 69.0517 214.12 67.8383 214.54 66.695
C 214.96 65.5283 215.532 64.5133 216.255 63.65
C 217.002 62.7867 217.877 62.11 218.88 61.62
C 219.907 61.1067 221.027 60.85 222.24 60.85
C 223.78 60.85 225.145 61.2583 226.335 62.075
C 227.525 62.8683 228.458 63.8367 229.135 64.98
L 229.135 53.85
L 231.515 53.85
L 231.515 76.32
C 231.515 76.9733 231.795 77.3 232.355 77.3
L 232.355 79.4
C 232.005 79.47 231.725 79.505 231.515 79.505
C 230.955 79.505 230.465 79.33 230.045 78.98
C 229.625 78.6067 229.415 78.1633 229.415 77.65
L 229.415 75.865
C 228.692 77.055 227.712 78 226.475 78.7
C 225.238 79.4 223.955 79.75 222.625 79.75
Z
M 223.15 77.65
C 223.733 77.65 224.352 77.5333 225.005 77.3
C 225.682 77.0667 226.312 76.7517 226.895 76.355
C 227.478 75.935 227.968 75.4567 228.365 74.92
C 228.785 74.36 229.042 73.765 229.135 73.135
L 229.135 67.5
C 228.902 66.87 228.563 66.2867 228.12 65.75
C 227.677 65.19 227.163 64.7 226.58 64.28
C 226.02 63.86 225.413 63.5333 224.76 63.3
C 224.107 63.0667 223.465 62.95 222.835 62.95
C 221.855 62.95 220.968 63.16 220.175 63.58
C 219.382 64 218.693 64.56 218.11 65.26
C 217.55 65.9367 217.118 66.7183 216.815 67.605
C 216.512 68.4917 216.36 69.4017 216.36 70.335
C 216.36 71.315 216.535 72.2483 216.885 73.135
C 217.235 74.0217 217.713 74.8033 218.32 75.48
C 218.927 76.1333 219.638 76.6583 220.455 77.055
C 221.295 77.4517 222.193 77.65 223.15 77.65
Z
M 242.61 79.75
C 240.627 79.75 239.145 79.0967 238.165 77.79
C 237.208 76.46 236.73 74.4883 236.73 71.875
L 236.73 61.165
L 239.11 61.165
L 239.11 71.455
C 239.11 75.585 240.522 77.65 243.345 77.65
C 244.045 77.65 244.733 77.5333 245.41 77.3
C 246.087 77.0667 246.705 76.7283 247.265 76.285
C 247.848 75.8417 248.362 75.3167 248.805 74.71
C 249.272 74.1033 249.645 73.415 249.925 72.645
L 249.925 61.165
L 252.305 61.165
L 252.305 76.32
C 252.305 76.9733 252.585 77.3 253.145 77.3
L 253.145 79.4
C 252.865 79.4467 252.632 79.47 252.445 79.47
C 252.282 79.47 252.165 79.47 252.095 79.47
C 251.535 79.4467 251.08 79.2483 250.73 78.875
C 250.38 78.5017 250.205 78 250.205 77.37
L 250.205 75.27
C 249.412 76.6933 248.327 77.8017 246.95 78.595
C 245.597 79.365 244.15 79.75 242.61 79.75
Z
M 263.75 79.75
C 262.327 79.75 260.938 79.5167 259.585 79.05
C 258.232 78.5833 257.065 77.9067 256.085 77.02
L 257.17 75.41
C 258.197 76.25 259.235 76.88 260.285 77.3
C 261.358 77.72 262.502 77.93 263.715 77.93
C 265.185 77.93 266.352 77.6383 267.215 77.055
C 268.102 76.4483 268.545 75.5967 268.545 74.5
C 268.545 73.9867 268.428 73.5667 268.195 73.24
C 267.962 72.89 267.612 72.5867 267.145 72.33
C 266.702 72.0733 266.13 71.8517 265.43 71.665
C 264.753 71.455 263.96 71.245 263.05 71.035
C 262 70.7783 261.09 70.5217 260.32 70.265
C 259.55 70.0083 258.908 69.7167 258.395 69.39
C 257.905 69.0633 257.532 68.6667 257.275 68.2
C 257.042 67.71 256.925 67.1033 256.925 66.38
C 256.925 65.47 257.1 64.665 257.45 63.965
C 257.823 63.265 258.313 62.6933 258.92 62.25
C 259.55 61.7833 260.273 61.4333 261.09 61.2
C 261.93 60.9667 262.817 60.85 263.75 60.85
C 265.15 60.85 266.422 61.0833 267.565 61.55
C 268.708 61.9933 269.63 62.5883 270.33 63.335
L 269.175 64.735
C 268.498 64.035 267.67 63.51 266.69 63.16
C 265.733 62.81 264.73 62.635 263.68 62.635
C 263.05 62.635 262.467 62.705 261.93 62.845
C 261.393 62.9617 260.915 63.16 260.495 63.44
C 260.098 63.72 259.783 64.0817 259.55 64.525
C 259.317 64.945 259.2 65.4467 259.2 66.03
C 259.2 66.52 259.282 66.9167 259.445 67.22
C 259.608 67.5233 259.877 67.7917 260.25 68.025
C 260.623 68.235 261.09 68.4333 261.65 68.62
C 262.233 68.7833 262.933 68.9583 263.75 69.145
C 264.917 69.425 265.943 69.705 266.83 69.985
C 267.717 70.265 268.452 70.5917 269.035 70.965
C 269.642 71.3383 270.097 71.7933 270.4 72.33
C 270.703 72.8667 270.855 73.52 270.855 74.29
C 270.855 75.97 270.213 77.3 268.93 78.28
C 267.647 79.26 265.92 79.75 263.75 79.75
Z
M 283.49 78.525
C 283.35 78.595 283.14 78.6883 282.86 78.805
C 282.603 78.9217 282.3 79.0383 281.95 79.155
C 281.6 79.2717 281.203 79.3767 280.76 79.47
C 280.317 79.5633 279.85 79.61 279.36 79.61
C 278.847 79.61 278.357 79.54 277.89 79.4
C 277.423 79.26 277.015 79.05 276.665 78.77
C 276.315 78.4667 276.035 78.0933 275.825 77.65
C 275.615 77.2067 275.51 76.6933 275.51 76.11
L 275.51 63.055
L 272.99 63.055
L 272.99 61.165
L 275.51 61.165
L 275.51 55.005
L 277.89 55.005
L 277.89 61.165
L 282.09 61.165
L 282.09 63.055
L 277.89 63.055
L 277.89 75.445
C 277.937 76.1217 278.17 76.6233 278.59 76.95
C 279.033 77.2533 279.535 77.405 280.095 77.405
C 280.772 77.405 281.367 77.3 281.88 77.09
C 282.393 76.8567 282.72 76.6933 282.86 76.6
L 283.49 78.525
Z
M 295.565 63.265
C 293.955 63.3117 292.555 63.755 291.365 64.595
C 290.175 65.435 289.335 66.59 288.845 68.06
L 288.845 79.4
L 286.465 79.4
L 286.465 61.165
L 288.705 61.165
L 288.705 65.54
C 289.382 64.14 290.292 63.0433 291.435 62.25
C 292.578 61.4567 293.803 61.06 295.11 61.06
C 295.297 61.06 295.448 61.0717 295.565 61.095
L 295.565 63.265
Z
M 298.75 79.4
L 298.75 61.165
L 301.13 61.165
L 301.13 79.4
L 298.75 79.4
Z
M 298.75 57.35
L 298.75 53.85
L 301.13 53.85
L 301.13 57.35
L 298.75 57.35
Z
M 310.965 79.75
C 310.102 79.75 309.297 79.61 308.55 79.33
C 307.827 79.0267 307.185 78.6183 306.625 78.105
C 306.088 77.5917 305.668 76.9967 305.365 76.32
C 305.062 75.62 304.91 74.8733 304.91 74.08
C 304.91 73.2867 305.097 72.5517 305.47 71.875
C 305.843 71.1983 306.368 70.615 307.045 70.125
C 307.722 69.635 308.527 69.2617 309.46 69.005
C 310.393 68.725 311.42 68.585 312.54 68.585
C 313.473 68.585 314.418 68.6667 315.375 68.83
C 316.332 68.9933 317.183 69.2267 317.93 69.53
L 317.93 67.885
C 317.93 66.275 317.475 65.0033 316.565 64.07
C 315.655 63.1133 314.395 62.635 312.785 62.635
C 311.852 62.635 310.895 62.8217 309.915 63.195
C 308.935 63.5683 307.943 64.105 306.94 64.805
L 306.1 63.23
C 308.457 61.6433 310.743 60.85 312.96 60.85
C 315.247 60.85 317.043 61.4917 318.35 62.775
C 319.657 64.0583 320.31 65.8317 320.31 68.095
L 320.31 76.32
C 320.31 76.9733 320.602 77.3 321.185 77.3
L 321.185 79.4
C 320.788 79.47 320.485 79.505 320.275 79.505
C 319.668 79.505 319.19 79.3533 318.84 79.05
C 318.513 78.7467 318.338 78.3267 318.315 77.79
L 318.245 76.355
C 317.405 77.4517 316.343 78.2917 315.06 78.875
C 313.8 79.4583 312.435 79.75 310.965 79.75
Z
M 311.525 77.93
C 312.762 77.93 313.893 77.6967 314.92 77.23
C 315.97 76.7633 316.763 76.145 317.3 75.375
C 317.51 75.165 317.662 74.9433 317.755 74.71
C 317.872 74.4533 317.93 74.22 317.93 74.01
L 317.93 71.035
C 317.137 70.7317 316.308 70.4983 315.445 70.335
C 314.605 70.1717 313.742 70.09 312.855 70.09
C 311.175 70.09 309.81 70.44 308.76 71.14
C 307.71 71.84 307.185 72.7617 307.185 73.905
C 307.185 74.465 307.29 74.99 307.5 75.48
C 307.733 75.97 308.037 76.4017 308.41 76.775
C 308.807 77.125 309.273 77.405 309.81 77.615
C 310.347 77.825 310.918 77.93 311.525 77.93
Z
M 325.56 53.85
L 327.94 53.85
L 327.94 75.27
C 327.94 75.9467 328.127 76.4833 328.5 76.88
C 328.873 77.2533 329.398 77.44 330.075 77.44
C 330.332 77.44 330.635 77.405 330.985 77.335
C 331.335 77.265 331.662 77.1717 331.965 77.055
L 332.385 78.98
C 331.942 79.1667 331.393 79.3183 330.74 79.435
C 330.11 79.5517 329.562 79.61 329.095 79.61
C 327.998 79.61 327.135 79.3067 326.505 78.7
C 325.875 78.07 325.56 77.195 325.56 76.075
L 325.56 53.85
Z
M 353 63.265
C 351.39 63.3117 349.99 63.755 348.8 64.595
C 347.61 65.435 346.77 66.59 346.28 68.06
L 346.28 79.4
L 343.9 79.4
L 343.9 61.165
L 346.14 61.165
L 346.14 65.54
C 346.817 64.14 347.727 63.0433 348.87 62.25
C 350.013 61.4567 351.238 61.06 352.545 61.06
C 352.732 61.06 352.883 61.0717 353 61.095
L 353 63.265
Z
M 364.06 79.75
C 362.73 79.75 361.505 79.505 360.385 79.015
C 359.288 78.5017 358.332 77.8133 357.515 76.95
C 356.698 76.0633 356.057 75.0483 355.59 73.905
C 355.147 72.7617 354.925 71.5367 354.925 70.23
C 354.925 68.9467 355.147 67.745 355.59 66.625
C 356.057 65.4817 356.687 64.49 357.48 63.65
C 358.297 62.7867 359.265 62.11 360.385 61.62
C 361.505 61.1067 362.718 60.85 364.025 60.85
C 365.355 60.85 366.568 61.1067 367.665 61.62
C 368.785 62.11 369.742 62.7867 370.535 63.65
C 371.328 64.5133 371.947 65.505 372.39 66.625
C 372.833 67.745 373.055 68.935 373.055 70.195
C 373.055 70.3817 373.055 70.5683 373.055 70.755
C 373.055 70.9417 373.043 71.07 373.02 71.14
L 357.41 71.14
C 357.48 72.12 357.702 73.03 358.075 73.87
C 358.472 74.6867 358.973 75.3983 359.58 76.005
C 360.187 76.6117 360.875 77.09 361.645 77.44
C 362.438 77.7667 363.278 77.93 364.165 77.93
C 364.748 77.93 365.332 77.8483 365.915 77.685
C 366.498 77.5217 367.035 77.3 367.525 77.02
C 368.015 76.74 368.458 76.4017 368.855 76.005
C 369.252 75.585 369.555 75.13 369.765 74.64
L 371.83 75.2
C 371.55 75.8767 371.153 76.495 370.64 77.055
C 370.127 77.5917 369.532 78.07 368.855 78.49
C 368.178 78.8867 367.432 79.19 366.615 79.4
C 365.798 79.6333 364.947 79.75 364.06 79.75
Z
M 370.78 69.32
C 370.71 68.34 370.477 67.4533 370.08 66.66
C 369.707 65.8433 369.217 65.1433 368.61 64.56
C 368.027 63.9767 367.338 63.5217 366.545 63.195
C 365.775 62.8683 364.947 62.705 364.06 62.705
C 363.173 62.705 362.333 62.8683 361.54 63.195
C 360.747 63.5217 360.047 63.9767 359.44 64.56
C 358.857 65.1433 358.378 65.8433 358.005 66.66
C 357.655 67.4767 357.445 68.3633 357.375 69.32
L 370.78 69.32
Z
M 382.19 79.4
L 374.77 61.165
L 377.22 61.165
L 383.485 77.195
L 389.785 61.165
L 392.095 61.165
L 384.675 79.4
L 382.19 79.4
Z
M 403.155 79.75
C 401.825 79.75 400.612 79.505 399.515 79.015
C 398.418 78.5017 397.462 77.8133 396.645 76.95
C 395.852 76.0867 395.233 75.0833 394.79 73.94
C 394.347 72.7967 394.125 71.595 394.125 70.335
C 394.125 69.0517 394.347 67.8383 394.79 66.695
C 395.257 65.5517 395.887 64.5483 396.68 63.685
C 397.497 62.8217 398.453 62.1333 399.55 61.62
C 400.647 61.1067 401.848 60.85 403.155 60.85
C 404.462 60.85 405.663 61.1067 406.76 61.62
C 407.88 62.1333 408.837 62.8217 409.63 63.685
C 410.447 64.5483 411.077 65.5517 411.52 66.695
C 411.987 67.8383 412.22 69.0517 412.22 70.335
C 412.22 71.595 411.998 72.7967 411.555 73.94
C 411.112 75.0833 410.482 76.0867 409.665 76.95
C 408.872 77.8133 407.915 78.5017 406.795 79.015
C 405.698 79.505 404.485 79.75 403.155 79.75
Z
M 396.54 70.37
C 396.54 71.3967 396.715 72.3533 397.065 73.24
C 397.415 74.1033 397.882 74.8733 398.465 75.55
C 399.072 76.2033 399.772 76.7167 400.565 77.09
C 401.382 77.4633 402.245 77.65 403.155 77.65
C 404.065 77.65 404.917 77.4633 405.71 77.09
C 406.527 76.6933 407.238 76.1683 407.845 75.515
C 408.452 74.8383 408.93 74.0567 409.28 73.17
C 409.63 72.2833 409.805 71.3267 409.805 70.3
C 409.805 69.2967 409.63 68.3517 409.28 67.465
C 408.93 66.555 408.452 65.7733 407.845 65.12
C 407.238 64.4433 406.527 63.9183 405.71 63.545
C 404.917 63.1483 404.065 62.95 403.155 62.95
C 402.245 62.95 401.393 63.1483 400.6 63.545
C 399.807 63.9183 399.107 64.4433 398.5 65.12
C 397.893 65.7967 397.415 66.59 397.065 67.5
C 396.715 68.3867 396.54 69.3433 396.54 70.37
Z
M 416.315 53.85
L 418.695 53.85
L 418.695 75.27
C 418.695 75.9467 418.882 76.4833 419.255 76.88
C 419.628 77.2533 420.153 77.44 420.83 77.44
C 421.087 77.44 421.39 77.405 421.74 77.335
C 422.09 77.265 422.417 77.1717 422.72 77.055
L 423.14 78.98
C 422.697 79.1667 422.148 79.3183 421.495 79.435
C 420.865 79.5517 420.317 79.61 419.85 79.61
C 418.753 79.61 417.89 79.3067 417.26 78.7
C 416.63 78.07 416.315 77.195 416.315 76.075
L 416.315 53.85
Z
M 431.435 79.75
C 429.452 79.75 427.97 79.0967 426.99 77.79
C 426.033 76.46 425.555 74.4883 425.555 71.875
L 425.555 61.165
L 427.935 61.165
L 427.935 71.455
C 427.935 75.585 429.347 77.65 432.17 77.65
C 432.87 77.65 433.558 77.5333 434.235 77.3
C 434.912 77.0667 435.53 76.7283 436.09 76.285
C 436.673 75.8417 437.187 75.3167 437.63 74.71
C 438.097 74.1033 438.47 73.415 438.75 72.645
L 438.75 61.165
L 441.13 61.165
L 441.13 76.32
C 441.13 76.9733 441.41 77.3 441.97 77.3
L 441.97 79.4
C 441.69 79.4467 441.457 79.47 441.27 79.47
C 441.107 79.47 440.99 79.47 440.92 79.47
C 440.36 79.4467 439.905 79.2483 439.555 78.875
C 439.205 78.5017 439.03 78 439.03 77.37
L 439.03 75.27
C 438.237 76.6933 437.152 77.8017 435.775 78.595
C 434.422 79.365 432.975 79.75 431.435 79.75
Z
M 455.27 78.525
C 455.13 78.595 454.92 78.6883 454.64 78.805
C 454.383 78.9217 454.08 79.0383 453.73 79.155
C 453.38 79.2717 452.983 79.3767 452.54 79.47
C 452.097 79.5633 451.63 79.61 451.14 79.61
C 450.627 79.61 450.137 79.54 449.67 79.4
C 449.203 79.26 448.795 79.05 448.445 78.77
C 448.095 78.4667 447.815 78.0933 447.605 77.65
C 447.395 77.2067 447.29 76.6933 447.29 76.11
L 447.29 63.055
L 444.77 63.055
L 444.77 61.165
L 447.29 61.165
L 447.29 55.005
L 449.67 55.005
L 449.67 61.165
L 453.87 61.165
L 453.87 63.055
L 449.67 63.055
L 449.67 75.445
C 449.717 76.1217 449.95 76.6233 450.37 76.95
C 450.813 77.2533 451.315 77.405 451.875 77.405
C 452.552 77.405 453.147 77.3 453.66 77.09
C 454.173 76.8567 454.5 76.6933 454.64 76.6
L 455.27 78.525
Z
M 458.245 79.4
L 458.245 61.165
L 460.625 61.165
L 460.625 79.4
L 458.245 79.4
Z
M 458.245 57.35
L 458.245 53.85
L 460.625 53.85
L 460.625 57.35
L 458.245 57.35
Z
M 473.645 79.75
C 472.315 79.75 471.102 79.505 470.005 79.015
C 468.908 78.5017 467.952 77.8133 467.135 76.95
C 466.342 76.0867 465.723 75.0833 465.28 73.94
C 464.837 72.7967 464.615 71.595 464.615 70.335
C 464.615 69.0517 464.837 67.8383 465.28 66.695
C 465.747 65.5517 466.377 64.5483 467.17 63.685
C 467.987 62.8217 468.943 62.1333 470.04 61.62
C 471.137 61.1067 472.338 60.85 473.645 60.85
C 474.952 60.85 476.153 61.1067 477.25 61.62
C 478.37 62.1333 479.327 62.8217 480.12 63.685
C 480.937 64.5483 481.567 65.5517 482.01 66.695
C 482.477 67.8383 482.71 69.0517 482.71 70.335
C 482.71 71.595 482.488 72.7967 482.045 73.94
C 481.602 75.0833 480.972 76.0867 480.155 76.95
C 479.362 77.8133 478.405 78.5017 477.285 79.015
C 476.188 79.505 474.975 79.75 473.645 79.75
Z
M 467.03 70.37
C 467.03 71.3967 467.205 72.3533 467.555 73.24
C 467.905 74.1033 468.372 74.8733 468.955 75.55
C 469.562 76.2033 470.262 76.7167 471.055 77.09
C 471.872 77.4633 472.735 77.65 473.645 77.65
C 474.555 77.65 475.407 77.4633 476.2 77.09
C 477.017 76.6933 477.728 76.1683 478.335 75.515
C 478.942 74.8383 479.42 74.0567 479.77 73.17
C 480.12 72.2833 480.295 71.3267 480.295 70.3
C 480.295 69.2967 480.12 68.3517 479.77 67.465
C 479.42 66.555 478.942 65.7733 478.335 65.12
C 477.728 64.4433 477.017 63.9183 476.2 63.545
C 475.407 63.1483 474.555 62.95 473.645 62.95
C 472.735 62.95 471.883 63.1483 471.09 63.545
C 470.297 63.9183 469.597 64.4433 468.99 65.12
C 468.383 65.7967 467.905 66.59 467.555 67.5
C 467.205 68.3867 467.03 69.3433 467.03 70.37
Z
M 502.03 79.4
L 499.65 79.4
L 499.65 69.215
C 499.65 67.045 499.323 65.47 498.67 64.49
C 498.04 63.51 497.06 63.02 495.73 63.02
C 495.03 63.02 494.33 63.1483 493.63 63.405
C 492.93 63.6617 492.277 64.0233 491.67 64.49
C 491.087 64.9567 490.562 65.5167 490.095 66.17
C 489.628 66.8 489.29 67.4883 489.08 68.235
L 489.08 79.4
L 486.7 79.4
L 486.7 61.165
L 488.87 61.165
L 488.87 65.295
C 489.617 63.965 490.678 62.8917 492.055 62.075
C 493.455 61.2583 494.972 60.85 496.605 60.85
C 497.608 60.85 498.46 61.0367 499.16 61.41
C 499.86 61.7833 500.42 62.3083 500.84 62.985
C 501.26 63.6617 501.563 64.49 501.75 65.47
C 501.937 66.45 502.03 67.535 502.03 68.725
L 502.03 79.4
Z
M 513.16 79.75
C 511.737 79.75 510.348 79.5167 508.995 79.05
C 507.642 78.5833 506.475 77.9067 505.495 77.02
L 506.58 75.41
C 507.607 76.25 508.645 76.88 509.695 77.3
C 510.768 77.72 511.912 77.93 513.125 77.93
C 514.595 77.93 515.762 77.6383 516.625 77.055
C 517.512 76.4483 517.955 75.5967 517.955 74.5
C 517.955 73.9867 517.838 73.5667 517.605 73.24
C 517.372 72.89 517.022 72.5867 516.555 72.33
C 516.112 72.0733 515.54 71.8517 514.84 71.665
C 514.163 71.455 513.37 71.245 512.46 71.035
C 511.41 70.7783 510.5 70.5217 509.73 70.265
C 508.96 70.0083 508.318 69.7167 507.805 69.39
C 507.315 69.0633 506.942 68.6667 506.685 68.2
C 506.452 67.71 506.335 67.1033 506.335 66.38
C 506.335 65.47 506.51 64.665 506.86 63.965
C 507.233 63.265 507.723 62.6933 508.33 62.25
C 508.96 61.7833 509.683 61.4333 510.5 61.2
C 511.34 60.9667 512.227 60.85 513.16 60.85
C 514.56 60.85 515.832 61.0833 516.975 61.55
C 518.118 61.9933 519.04 62.5883 519.74 63.335
L 518.585 64.735
C 517.908 64.035 517.08 63.51 516.1 63.16
C 515.143 62.81 514.14 62.635 513.09 62.635
C 512.46 62.635 511.877 62.705 511.34 62.845
C 510.803 62.9617 510.325 63.16 509.905 63.44
C 509.508 63.72 509.193 64.0817 508.96 64.525
C 508.727 64.945 508.61 65.4467 508.61 66.03
C 508.61 66.52 508.692 66.9167 508.855 67.22
C 509.018 67.5233 509.287 67.7917 509.66 68.025
C 510.033 68.235 510.5 68.4333 511.06 68.62
C 511.643 68.7833 512.343 68.9583 513.16 69.145
C 514.327 69.425 515.353 69.705 516.24 69.985
C 517.127 70.265 517.862 70.5917 518.445 70.965
C 519.052 71.3383 519.507 71.7933 519.81 72.33
C 520.113 72.8667 520.265 73.52 520.265 74.29
C 520.265 75.97 519.623 77.3 518.34 78.28
C 517.057 79.26 515.33 79.75 513.16 79.75
Z"/>
</defs>
</svg>
