<svg width="347" height="157" version="2.0" xmlns="http://www.w3.org/2000/svg" xmlns:xlink="http://www.w3.org/1999/xlink" xmlns:figma="http://www.figma.com/figma/ns">
<title>qvp</title>
<desc>Created using Figma (9000)</desc>
<g id="Canvas" transform="translate(-3093 218)" figma:type="canvas">
<g id="qvp" style="mix-blend-mode:normal;" figma:type="text">
<use xlink:href="#path0_fill" transform="translate(3014.5 -334)" fill="#FFFFFF" style="mix-blend-mode:normal;"/>
</g>
</g>
<defs>
<path id="path0_fill" d="
M 179.319 116.857
L 179.319 246.13
C 179.319 251.664 179.644 255.692 180.295 258.215
C 180.946 260.819 182.208 263.016 184.08 264.807
C 186.358 267.004 190.59 268.632 196.775 269.689
L 196.775 272.131
L 142.82 272.131
L 142.82 269.689
C 147.703 269.038 151.202 268.143 153.318 267.004
C 155.434 265.865 157.143 263.871 158.445 261.022
C 159.34 259.151 159.991 256.302 160.398 252.478
C 160.805 248.653 161.008 243.2 161.008 236.12
L 161.008 212.438
C 157.59 216.67 154.294 219.763 151.121 221.716
C 144.936 225.703 137.489 227.697 128.782 227.697
C 116.412 227.697 105.629 223.791 96.4331 215.979
C 85.1213 206.213 79.4653 192.541 79.4653 174.963
C 79.4653 158.28 84.2668 144.934 93.8696 134.924
C 103.554 124.914 116.493 119.909 132.688 119.909
C 139.361 119.909 145.139 120.967 150.022 123.083
L 156.37 125.891
C 157.916 126.542 159.381 126.867 160.764 126.867
C 164.996 126.867 168.699 123.531 171.873 116.857
L 179.319 116.857
Z
M 161.008 175.451
C 161.008 166.662 160.52 158.646 159.543 151.403
C 158.567 144.079 157.306 138.749 155.759 135.412
C 153.806 131.343 150.999 128.21 147.336 126.013
C 143.674 123.734 139.443 122.595 134.641 122.595
C 125.201 122.595 117.389 126.826 111.204 135.29
C 107.867 139.847 105.263 145.422 103.391 152.014
C 101.519 158.524 100.583 165.441 100.583 172.766
C 100.583 180.415 101.641 187.699 103.757 194.616
C 105.873 201.452 108.884 207.312 112.791 212.194
C 115.883 216.182 119.26 219.234 122.922 221.35
C 126.666 223.384 130.491 224.401 134.397 224.401
C 139.117 224.401 143.471 222.977 147.458 220.129
C 151.528 217.199 154.579 213.374 156.614 208.654
C 159.543 201.9 161.008 190.832 161.008 175.451
Z
M 196.775 121.74
L 244.016 121.74
L 244.016 124.304
C 240.435 125.036 237.994 125.85 236.692 126.745
C 234.088 128.373 232.786 130.977 232.786 134.558
C 232.786 136.755 233.193 139.318 234.006 142.248
C 234.82 145.178 236.326 149.45 238.523 155.065
L 258.298 205.236
L 278.196 152.99
C 281.125 145.259 282.59 139.522 282.59 135.778
C 282.59 131.709 281.329 128.739 278.806 126.867
C 277.504 125.891 275.103 125.036 271.604 124.304
L 271.604 121.74
L 305.295 121.74
L 305.295 124.304
C 300.738 125.443 297.076 127.478 294.309 130.407
C 290.81 134.069 286.781 141.76 282.224 153.479
L 254.026 225.5
L 247.434 225.5
L 216.794 149.816
C 212.074 138.179 208.697 131.14 206.663 128.698
C 205.523 127.396 204.262 126.46 202.878 125.891
C 201.495 125.24 199.46 124.711 196.775 124.304
L 196.775 121.74
Z
M 342.527 215.246
L 342.649 237.707
L 342.649 246.13
C 342.649 251.664 342.974 255.692 343.625 258.215
C 344.277 260.819 345.538 263.016 347.41 264.807
C 349.688 267.004 353.879 268.632 359.983 269.689
L 359.983 272.131
L 306.15 272.131
L 306.15 269.689
C 311.033 269.038 314.532 268.143 316.648 267.004
C 318.764 265.865 320.473 263.871 321.775 261.022
C 322.67 259.151 323.28 256.302 323.606 252.478
C 324.013 248.653 324.216 243.2 324.216 236.12
L 324.216 151.77
C 324.216 142.574 322.751 136.022 319.822 132.116
C 316.973 128.21 312.131 126.257 305.295 126.257
L 305.295 123.205
L 340.818 118.2
C 341.713 122.106 342.161 125.687 342.161 128.942
L 342.161 131.262
C 348.183 127.193 353.839 124.304 359.128 122.595
C 364.418 120.804 370.155 119.909 376.34 119.909
C 388.71 119.909 399.29 123.612 408.079 131.018
C 413.612 135.738 417.885 141.638 420.896 148.718
C 423.907 155.798 425.413 163.61 425.413 172.155
C 425.413 181.026 423.785 189.286 420.53 196.936
C 417.356 204.585 412.799 210.892 406.858 215.856
C 397.581 223.75 386.554 227.697 373.777 227.697
C 367.673 227.697 362.384 226.802 357.908 225.012
C 353.513 223.221 348.386 219.966 342.527 215.246
Z
M 342.527 174.719
C 342.527 185.949 343.015 194.413 343.992 200.109
C 344.968 205.806 346.718 210.404 349.241 213.903
C 351.519 216.996 354.49 219.478 358.152 221.35
C 361.895 223.221 365.68 224.157 369.504 224.157
C 378.131 224.157 385.658 220.088 392.087 211.95
C 395.994 207.067 399.005 201.289 401.121 194.616
C 403.236 187.943 404.294 180.985 404.294 173.742
C 404.294 166.743 403.277 159.908 401.243 153.234
C 399.29 146.48 396.523 140.702 392.942 135.9
C 386.838 127.6 379.392 123.449 370.603 123.449
C 366.29 123.449 362.221 124.507 358.396 126.623
C 354.571 128.739 351.519 131.628 349.241 135.29
C 346.718 139.196 344.968 144.079 343.992 149.938
C 343.015 155.716 342.527 163.977 342.527 174.719
Z"/>
</defs>
</svg>
